%TF.GenerationSoftware,KiCad,Pcbnew,10.0.0-1.fc44app2*%
%TF.CreationDate,2026-05-13T18:30:08-04:00*%
%TF.ProjectId,JankWheelPCB,4a616e6b-5768-4656-956c-5043422e6b69,rev?*%
%TF.SameCoordinates,Original*%
%TF.FileFunction,Copper,L2,Bot*%
%TF.FilePolarity,Positive*%
%FSLAX46Y46*%
G04 Gerber Fmt 4.6, Leading zero omitted, Abs format (unit mm)*
G04 Created by KiCad (PCBNEW 10.0.0-1.fc44app2) date 2026-05-13 18:30:08*
%MOMM*%
%LPD*%
G01*
G04 APERTURE LIST*
%TA.AperFunction,ComponentPad*%
%ADD10R,1.875000X1.875000*%
%TD*%
%TA.AperFunction,ComponentPad*%
%ADD11C,1.875000*%
%TD*%
%TA.AperFunction,ComponentPad*%
%ADD12R,1.358000X1.358000*%
%TD*%
%TA.AperFunction,ComponentPad*%
%ADD13C,1.358000*%
%TD*%
%TA.AperFunction,SMDPad,CuDef*%
%ADD14C,2.000000*%
%TD*%
%TA.AperFunction,ViaPad*%
%ADD15C,0.600000*%
%TD*%
%TA.AperFunction,Conductor*%
%ADD16C,0.250000*%
%TD*%
%TA.AperFunction,Conductor*%
%ADD17C,0.500000*%
%TD*%
G04 APERTURE END LIST*
D10*
%TO.P,S4,1*%
%TO.N,Net-(D4-PadA)*%
X123750000Y-93000000D03*
D11*
%TO.P,S4,2*%
X136250000Y-93000000D03*
%TO.P,S4,3*%
%TO.N,/Button Matrix/Row4*%
X123750000Y-98000000D03*
%TO.P,S4,4*%
X136250000Y-98000000D03*
%TD*%
D10*
%TO.P,S3,1*%
%TO.N,Net-(D3-PadA)*%
X113750000Y-77000000D03*
D11*
%TO.P,S3,2*%
X126250000Y-77000000D03*
%TO.P,S3,3*%
%TO.N,/Button Matrix/Row3*%
X113750000Y-82000000D03*
%TO.P,S3,4*%
X126250000Y-82000000D03*
%TD*%
D10*
%TO.P,S2,1*%
%TO.N,Net-(D2-PadA)*%
X118750000Y-58000000D03*
D11*
%TO.P,S2,2*%
X131250000Y-58000000D03*
%TO.P,S2,3*%
%TO.N,/Button Matrix/Row2*%
X118750000Y-63000000D03*
%TO.P,S2,4*%
X131250000Y-63000000D03*
%TD*%
D10*
%TO.P,S7,1*%
%TO.N,Net-(D7-PadA)*%
X238750000Y-58000000D03*
D11*
%TO.P,S7,2*%
X251250000Y-58000000D03*
%TO.P,S7,3*%
%TO.N,/Button Matrix/Row2*%
X238750000Y-63000000D03*
%TO.P,S7,4*%
X251250000Y-63000000D03*
%TD*%
D10*
%TO.P,S9,1*%
%TO.N,Net-(D9-PadA)*%
X233750000Y-93000000D03*
D11*
%TO.P,S9,2*%
X246250000Y-93000000D03*
%TO.P,S9,3*%
%TO.N,/Button Matrix/Row4*%
X233750000Y-98000000D03*
%TO.P,S9,4*%
X246250000Y-98000000D03*
%TD*%
D10*
%TO.P,S10,1*%
%TO.N,Net-(D10-PadA)*%
X233750000Y-110500000D03*
D11*
%TO.P,S10,2*%
X246250000Y-110500000D03*
%TO.P,S10,3*%
%TO.N,/Button Matrix/Row5*%
X233750000Y-115500000D03*
%TO.P,S10,4*%
X246250000Y-115500000D03*
%TD*%
D10*
%TO.P,S5,1*%
%TO.N,Net-(D5-PadA)*%
X123750000Y-110500000D03*
D11*
%TO.P,S5,2*%
X136250000Y-110500000D03*
%TO.P,S5,3*%
%TO.N,/Button Matrix/Row5*%
X123750000Y-115500000D03*
%TO.P,S5,4*%
X136250000Y-115500000D03*
%TD*%
D10*
%TO.P,S6,1*%
%TO.N,Net-(D6-PadA)*%
X243750000Y-40000000D03*
D11*
%TO.P,S6,2*%
X256250000Y-40000000D03*
%TO.P,S6,3*%
%TO.N,/Button Matrix/Row1*%
X243750000Y-45000000D03*
%TO.P,S6,4*%
X256250000Y-45000000D03*
%TD*%
D12*
%TO.P,U1,1,D0*%
%TO.N,/Button Matrix/Row1*%
X177380000Y-77943500D03*
D13*
%TO.P,U1,2,D1*%
%TO.N,/Button Matrix/Row2*%
X177380000Y-80483500D03*
%TO.P,U1,3,D2*%
%TO.N,/Button Matrix/Row3*%
X177380000Y-83023500D03*
%TO.P,U1,4,D3*%
%TO.N,/Button Matrix/Row4*%
X177380000Y-85563500D03*
%TO.P,U1,5,D4*%
%TO.N,/Button Matrix/Row5*%
X177380000Y-88103500D03*
%TO.P,U1,6,D5*%
%TO.N,/Button Matrix/Column1*%
X177380000Y-90643500D03*
%TO.P,U1,7,TX_D6*%
%TO.N,Net-(U1-TX_D6)*%
X177380000Y-93183500D03*
%TO.P,U1,8,RX_D7*%
%TO.N,Net-(U1-RX_D7)*%
X192620000Y-93183500D03*
%TO.P,U1,9,D8*%
%TO.N,Net-(U1-D8)*%
X192620000Y-90643500D03*
%TO.P,U1,10,D9*%
%TO.N,Net-(U1-D9)*%
X192620000Y-88103500D03*
%TO.P,U1,11,D10*%
%TO.N,/Button Matrix/Column2*%
X192620000Y-85563500D03*
%TO.P,U1,12,VCC_3V3*%
%TO.N,Net-(U1-VCC_3V3)*%
X192620000Y-83023500D03*
%TO.P,U1,13,GND*%
%TO.N,Net-(U1-GND)*%
X192620000Y-80483500D03*
%TO.P,U1,14,VUSB*%
%TO.N,unconnected-(U1-VUSB-Pad14)*%
X192620000Y-77943500D03*
%TD*%
D10*
%TO.P,S8,1*%
%TO.N,Net-(D8-PadA)*%
X243750000Y-77000000D03*
D11*
%TO.P,S8,2*%
X256250000Y-77000000D03*
%TO.P,S8,3*%
%TO.N,/Button Matrix/Row3*%
X243750000Y-82000000D03*
%TO.P,S8,4*%
X256250000Y-82000000D03*
%TD*%
D10*
%TO.P,S1,1*%
%TO.N,Net-(D1-PadA)*%
X113750000Y-40000000D03*
D11*
%TO.P,S1,2*%
X126250000Y-40000000D03*
%TO.P,S1,3*%
%TO.N,/Button Matrix/Row1*%
X113750000Y-45000000D03*
%TO.P,S1,4*%
X126250000Y-45000000D03*
%TD*%
D14*
%TO.P,GND,1,1*%
%TO.N,Net-(U1-GND)*%
X218350000Y-79300000D03*
%TD*%
%TO.P,D8,1,1*%
%TO.N,Net-(U1-D8)*%
X218380000Y-95000000D03*
%TD*%
%TO.P,TP1,1,1*%
%TO.N,Net-(U1-D9)*%
X218430000Y-89660000D03*
%TD*%
%TO.P,TX_D6,1,1*%
%TO.N,Net-(U1-TX_D6)*%
X143300000Y-82200000D03*
%TD*%
%TO.P,3.3V,1,1*%
%TO.N,Net-(U1-VCC_3V3)*%
X218350000Y-84500000D03*
%TD*%
%TO.P,RX_D7,1,1*%
%TO.N,Net-(U1-RX_D7)*%
X209000000Y-94700000D03*
%TD*%
D15*
%TO.N,/Button Matrix/Row1*%
X183400000Y-59000000D03*
%TO.N,/Button Matrix/Row2*%
X187250000Y-64000000D03*
%TO.N,/Button Matrix/Row5*%
X179500000Y-107250000D03*
%TD*%
%TO.N,Net-(U1-TX_D6)*%
D16*
X177363500Y-93200000D02*
X177380000Y-93183500D01*
X143300000Y-82200000D02*
X154300000Y-93200000D01*
X154300000Y-93200000D02*
X177363500Y-93200000D01*
%TO.N,Net-(U1-RX_D7)*%
X209000000Y-94700000D02*
X194136500Y-94700000D01*
X194136500Y-94700000D02*
X192620000Y-93183500D01*
%TO.N,Net-(U1-D8)*%
X210943500Y-90643500D02*
X215300000Y-95000000D01*
X215300000Y-95000000D02*
X218380000Y-95000000D01*
X192620000Y-90643500D02*
X210943500Y-90643500D01*
%TO.N,Net-(U1-D9)*%
X216873500Y-88103500D02*
X192620000Y-88103500D01*
X218430000Y-89660000D02*
X216873500Y-88103500D01*
%TO.N,Net-(U1-VCC_3V3)*%
X216873500Y-83023500D02*
X192620000Y-83023500D01*
X218350000Y-84500000D02*
X216873500Y-83023500D01*
%TO.N,Net-(U1-GND)*%
X192620000Y-80483500D02*
X202016500Y-80483500D01*
X218150000Y-79500000D02*
X218350000Y-79300000D01*
X203000000Y-79500000D02*
X218150000Y-79500000D01*
X202016500Y-80483500D02*
X203000000Y-79500000D01*
%TO.N,/Button Matrix/Row1*%
D17*
X140250000Y-59000000D02*
X183400000Y-59000000D01*
X229750000Y-59000000D02*
X243750000Y-45000000D01*
X126250000Y-45000000D02*
X140250000Y-59000000D01*
X183400000Y-59000000D02*
X229750000Y-59000000D01*
%TO.N,/Button Matrix/Row2*%
X180250000Y-64000000D02*
X180750000Y-64000000D01*
X180750000Y-64000000D02*
X186750000Y-64000000D01*
X187250000Y-64000000D02*
X187750000Y-64000000D01*
X187750000Y-64000000D02*
X237750000Y-64000000D01*
X179750000Y-64000000D02*
X180250000Y-64000000D01*
X186750000Y-64000000D02*
X187250000Y-64000000D01*
X237750000Y-64000000D02*
X238750000Y-63000000D01*
X131250000Y-63000000D02*
X132250000Y-64000000D01*
X132250000Y-64000000D02*
X179750000Y-64000000D01*
%TO.N,/Button Matrix/Row3*%
X132250000Y-76000000D02*
X181750000Y-76000000D01*
X126250000Y-82000000D02*
X132250000Y-76000000D01*
X177380000Y-83023500D02*
X182226500Y-83023500D01*
X188750000Y-76500000D02*
X189250000Y-76000000D01*
X182226500Y-83023500D02*
X188750000Y-76500000D01*
X237750000Y-76000000D02*
X243750000Y-82000000D01*
X181750000Y-76000000D02*
X188250000Y-76000000D01*
X189250000Y-76000000D02*
X237750000Y-76000000D01*
X188750000Y-76500000D02*
X188250000Y-76000000D01*
X188250000Y-76000000D02*
X189250000Y-76000000D01*
%TO.N,/Button Matrix/Row4*%
X190500000Y-98000000D02*
X191000000Y-98000000D01*
X190000000Y-98000000D02*
X190500000Y-98000000D01*
X180000000Y-98000000D02*
X180500000Y-98000000D01*
X180500000Y-98000000D02*
X181000000Y-98000000D01*
X189000000Y-98000000D02*
X189816500Y-98000000D01*
X189816500Y-98000000D02*
X190000000Y-98000000D01*
X189016500Y-98000000D02*
X189816500Y-97200000D01*
X189816500Y-92916500D02*
X189816500Y-97200000D01*
X191000000Y-98000000D02*
X190616500Y-98000000D01*
X182463500Y-85563500D02*
X189816500Y-92916500D01*
X191000000Y-98000000D02*
X233750000Y-98000000D01*
X188600000Y-98000000D02*
X189000000Y-98000000D01*
X188600000Y-98000000D02*
X189016500Y-98000000D01*
X181000000Y-98000000D02*
X188600000Y-98000000D01*
X136250000Y-98000000D02*
X180000000Y-98000000D01*
X177380000Y-85563500D02*
X182463500Y-85563500D01*
X189816500Y-97200000D02*
X189816500Y-98000000D01*
X190616500Y-98000000D02*
X189816500Y-97200000D01*
%TO.N,/Button Matrix/Row5*%
X227250000Y-107250000D02*
X233750000Y-113750000D01*
X136250000Y-114250000D02*
X143250000Y-107250000D01*
X136250000Y-115500000D02*
X136250000Y-114250000D01*
X143250000Y-107250000D02*
X179500000Y-107250000D01*
X233750000Y-113750000D02*
X233750000Y-115500000D01*
X179500000Y-107250000D02*
X227250000Y-107250000D01*
%TD*%
M02*
