M48
; DRILL file KiCad 10.0.0-1.fc44app2 date 2026-05-13T18:30:11
; FORMAT={-:-/ absolute / metric / decimal}
; #@! TF.CreationDate,2026-05-13T18:30:11-04:00
; #@! TF.GenerationSoftware,Kicad,Pcbnew,10.0.0-1.fc44app2
; #@! TF.FileFunction,NonPlated,1,2,NPTH
FMAT,2
METRIC
; #@! TA.AperFunction,NonPlated,NPTH,ComponentDrill
T1C1.850
; #@! TA.AperFunction,NonPlated,NPTH,ComponentDrill
T2C3.200
; #@! TA.AperFunction,NonPlated,NPTH,ComponentDrill
T3C5.300
%
G90
G05
T1
X120.0Y-38.0
X120.0Y-47.0
X120.0Y-75.0
X120.0Y-84.0
X125.0Y-56.0
X125.0Y-65.0
X130.0Y-91.0
X130.0Y-100.0
X130.0Y-108.5
X130.0Y-117.5
X240.0Y-91.0
X240.0Y-100.0
X240.0Y-108.5
X240.0Y-117.5
X245.0Y-56.0
X245.0Y-65.0
X250.0Y-38.0
X250.0Y-47.0
X250.0Y-75.0
X250.0Y-84.0
T2
X140.0Y-48.5
X143.0Y-114.5
X227.0Y-114.5
X230.0Y-48.5
T3
X154.689Y-68.0
X154.689Y-103.0
X215.311Y-68.0
X215.311Y-103.0
M30
