M48
; DRILL file KiCad 10.0.0-1.fc44app2 date 2026-05-13T18:30:11
; FORMAT={-:-/ absolute / metric / decimal}
; #@! TF.CreationDate,2026-05-13T18:30:11-04:00
; #@! TF.GenerationSoftware,Kicad,Pcbnew,10.0.0-1.fc44app2
; #@! TF.FileFunction,Plated,1,2,PTH
FMAT,2
METRIC
; #@! TA.AperFunction,Plated,PTH,ViaDrill
T1C0.300
; #@! TA.AperFunction,Plated,PTH,ComponentDrill
T2C0.850
; #@! TA.AperFunction,Plated,PTH,ComponentDrill
T3C1.250
%
G90
G05
T1
X179.5Y-107.25
X183.4Y-59.0
X187.25Y-64.0
T2
X177.38Y-77.944
X177.38Y-80.483
X177.38Y-83.023
X177.38Y-85.563
X177.38Y-88.103
X177.38Y-90.643
X177.38Y-93.183
X192.62Y-77.944
X192.62Y-80.483
X192.62Y-83.023
X192.62Y-85.563
X192.62Y-88.103
X192.62Y-90.643
X192.62Y-93.183
T3
X113.75Y-40.0
X113.75Y-45.0
X113.75Y-77.0
X113.75Y-82.0
X118.75Y-58.0
X118.75Y-63.0
X123.75Y-93.0
X123.75Y-98.0
X123.75Y-110.5
X123.75Y-115.5
X126.25Y-40.0
X126.25Y-45.0
X126.25Y-77.0
X126.25Y-82.0
X131.25Y-58.0
X131.25Y-63.0
X136.25Y-93.0
X136.25Y-98.0
X136.25Y-110.5
X136.25Y-115.5
X233.75Y-93.0
X233.75Y-98.0
X233.75Y-110.5
X233.75Y-115.5
X238.75Y-58.0
X238.75Y-63.0
X243.75Y-40.0
X243.75Y-45.0
X243.75Y-77.0
X243.75Y-82.0
X246.25Y-93.0
X246.25Y-98.0
X246.25Y-110.5
X246.25Y-115.5
X251.25Y-58.0
X251.25Y-63.0
X256.25Y-40.0
X256.25Y-45.0
X256.25Y-77.0
X256.25Y-82.0
M30
