%TF.GenerationSoftware,KiCad,Pcbnew,10.0.0-1.fc44app2*%
%TF.CreationDate,2026-05-13T18:30:08-04:00*%
%TF.ProjectId,JankWheelPCB,4a616e6b-5768-4656-956c-5043422e6b69,rev?*%
%TF.SameCoordinates,Original*%
%TF.FileFunction,Profile,NP*%
%FSLAX46Y46*%
G04 Gerber Fmt 4.6, Leading zero omitted, Abs format (unit mm)*
G04 Created by KiCad (PCBNEW 10.0.0-1.fc44app2) date 2026-05-13 18:30:08*
%MOMM*%
%LPD*%
G01*
G04 APERTURE LIST*
%TA.AperFunction,Profile*%
%ADD10C,0.050000*%
%TD*%
%ADD11C,0.050000*%
G04 APERTURE END LIST*
D10*
X111514720Y-70985281D02*
X111514720Y-85985281D01*
X241514719Y-34014719D02*
G75*
G02*
X250000000Y-30500001I8485281J-8485281D01*
G01*
D11*
X240000000Y-124926860D02*
X239911689Y-124879816D01*
X239823366Y-124832856D01*
X239735031Y-124785981D01*
X239646684Y-124739189D01*
X239558325Y-124692482D01*
X239469953Y-124645858D01*
X239381570Y-124599319D01*
X239293174Y-124552863D01*
X239204767Y-124506492D01*
X239116347Y-124460205D01*
X239027915Y-124414001D01*
X238939471Y-124367881D01*
X238851014Y-124321846D01*
X238762546Y-124275894D01*
X238674065Y-124230025D01*
X238585573Y-124184241D01*
X238497068Y-124138540D01*
X238408551Y-124092923D01*
X238320021Y-124047390D01*
X238231480Y-124001940D01*
X238142926Y-123956574D01*
X238054360Y-123911292D01*
X237965782Y-123866093D01*
X237877191Y-123820977D01*
X237788589Y-123775945D01*
X237699974Y-123730997D01*
X237611346Y-123686132D01*
X237522707Y-123641351D01*
X237434055Y-123596653D01*
X237345391Y-123552038D01*
X237256715Y-123507506D01*
X237168026Y-123463058D01*
X237079325Y-123418694D01*
X236990612Y-123374412D01*
X236901887Y-123330214D01*
X236813149Y-123286099D01*
X236724399Y-123242067D01*
X236635636Y-123198118D01*
X236546861Y-123154252D01*
X236458074Y-123110470D01*
X236369275Y-123066770D01*
X236280463Y-123023154D01*
X236191638Y-122979620D01*
X236102802Y-122936170D01*
X236013953Y-122892802D01*
X235925091Y-122849518D01*
X235836217Y-122806316D01*
X235747331Y-122763197D01*
X235658432Y-122720161D01*
X235569521Y-122677208D01*
X235480598Y-122634338D01*
X235391662Y-122591550D01*
X235302713Y-122548846D01*
X235213752Y-122506223D01*
X235124779Y-122463684D01*
X235035793Y-122421227D01*
X234946794Y-122378853D01*
X234857784Y-122336562D01*
X234768760Y-122294353D01*
X234679724Y-122252227D01*
X234590676Y-122210183D01*
X234501615Y-122168222D01*
X234412542Y-122126344D01*
X234323456Y-122084547D01*
X234234357Y-122042834D01*
X234145246Y-122001202D01*
X234056122Y-121959653D01*
X233966986Y-121918187D01*
X233877837Y-121876803D01*
X233788676Y-121835501D01*
X233699502Y-121794281D01*
X233610316Y-121753144D01*
X233521116Y-121712089D01*
X233431905Y-121671116D01*
X233342680Y-121630225D01*
X233253443Y-121589417D01*
X233164194Y-121548691D01*
X233074931Y-121508046D01*
X232985656Y-121467484D01*
X232896369Y-121427004D01*
X232807068Y-121386606D01*
X232717755Y-121346290D01*
X232628430Y-121306057D01*
X232539091Y-121265905D01*
X232449740Y-121225835D01*
X232360377Y-121185847D01*
X232271000Y-121145941D01*
X232181611Y-121106117D01*
X232092209Y-121066374D01*
X232002794Y-121026714D01*
X231913367Y-120987135D01*
X231823927Y-120947638D01*
X231734474Y-120908223D01*
X231645008Y-120868890D01*
X231555530Y-120829639D01*
X231466038Y-120790469D01*
X231376534Y-120751381D01*
X231287017Y-120712374D01*
X231197488Y-120673449D01*
X231107945Y-120634606D01*
X231018390Y-120595844D01*
X230928821Y-120557164D01*
X230839240Y-120518566D01*
X230749647Y-120480049D01*
X230660040Y-120441614D01*
X230570420Y-120403260D01*
X230480788Y-120364987D01*
X230391142Y-120326796D01*
X230301484Y-120288687D01*
X230211813Y-120250659D01*
X230122129Y-120212712D01*
X230032432Y-120174847D01*
X229942722Y-120137063D01*
X229852999Y-120099360D01*
X229763263Y-120061738D01*
X229673515Y-120024198D01*
X229583753Y-119986739D01*
X229493978Y-119949362D01*
X229404191Y-119912065D01*
X229314390Y-119874850D01*
X229224576Y-119837716D01*
X229134750Y-119800663D01*
X229044910Y-119763692D01*
X228955058Y-119726801D01*
X228865192Y-119689991D01*
X228775313Y-119653263D01*
X228685422Y-119616616D01*
X228595517Y-119580049D01*
X228505599Y-119543564D01*
X228415668Y-119507160D01*
X228325724Y-119470836D01*
X228235767Y-119434594D01*
X228145797Y-119398433D01*
X228055814Y-119362352D01*
X227965818Y-119326353D01*
X227875809Y-119290434D01*
X227785786Y-119254596D01*
X227695751Y-119218839D01*
X227605702Y-119183163D01*
X227515640Y-119147567D01*
X227425565Y-119112053D01*
X227335477Y-119076619D01*
X227245376Y-119041266D01*
X227155261Y-119005994D01*
X227065133Y-118970802D01*
X226974992Y-118935691D01*
X226884838Y-118900661D01*
X226794671Y-118865712D01*
X226704491Y-118830843D01*
X226614297Y-118796054D01*
X226524090Y-118761347D01*
X226433870Y-118726720D01*
X226343637Y-118692173D01*
X226253390Y-118657707D01*
X226163130Y-118623322D01*
X226072857Y-118589017D01*
X225982571Y-118554793D01*
X225892271Y-118520649D01*
X225801958Y-118486585D01*
X225711632Y-118452602D01*
X225621292Y-118418700D01*
X225530939Y-118384878D01*
X225440573Y-118351136D01*
X225350193Y-118317474D01*
X225259801Y-118283893D01*
X225169394Y-118250393D01*
X225078975Y-118216973D01*
X224988542Y-118183633D01*
X224898096Y-118150373D01*
X224807636Y-118117194D01*
X224717163Y-118084094D01*
X224626677Y-118051076D01*
X224536177Y-118018137D01*
X224445664Y-117985278D01*
X224355137Y-117952500D01*
X224264597Y-117919802D01*
X224174043Y-117887184D01*
X224083476Y-117854647D01*
X223992896Y-117822189D01*
X223902302Y-117789812D01*
X223811695Y-117757514D01*
X223721074Y-117725297D01*
X223630440Y-117693160D01*
X223539792Y-117661103D01*
X223449131Y-117629126D01*
X223358457Y-117597229D01*
X223267769Y-117565412D01*
X223177067Y-117533675D01*
X223086352Y-117502018D01*
X222995623Y-117470441D01*
X222904881Y-117438944D01*
X222814125Y-117407527D01*
X222723356Y-117376190D01*
X222632573Y-117344933D01*
X222541776Y-117313755D01*
X222450966Y-117282658D01*
X222360143Y-117251640D01*
X222269306Y-117220703D01*
X222178455Y-117189845D01*
X222087590Y-117159067D01*
X221996713Y-117128369D01*
X221905821Y-117097750D01*
X221814916Y-117067212D01*
X221723997Y-117036753D01*
X221633064Y-117006374D01*
X221542118Y-116976074D01*
X221451159Y-116945855D01*
X221360185Y-116915715D01*
X221269198Y-116885655D01*
X221178197Y-116855675D01*
X221087183Y-116825774D01*
X220996155Y-116795953D01*
X220905113Y-116766211D01*
X220814058Y-116736550D01*
X220722988Y-116706967D01*
X220631906Y-116677465D01*
X220540809Y-116648042D01*
X220449699Y-116618699D01*
X220358575Y-116589435D01*
X220267437Y-116560251D01*
X220176285Y-116531147D01*
X220085120Y-116502122D01*
X219993941Y-116473176D01*
X219902748Y-116444310D01*
X219811541Y-116415524D01*
X219720321Y-116386817D01*
X219629087Y-116358189D01*
X219537839Y-116329642D01*
X219446577Y-116301173D01*
X219355301Y-116272784D01*
X219264012Y-116244475D01*
X219172708Y-116216244D01*
X219081391Y-116188094D01*
X218990060Y-116160022D01*
X218898716Y-116132031D01*
X218807357Y-116104118D01*
X218715985Y-116076285D01*
X218624598Y-116048531D01*
X218533198Y-116020857D01*
X218441784Y-115993262D01*
X218350356Y-115965746D01*
X218258914Y-115938310D01*
X218167459Y-115910953D01*
X218075989Y-115883675D01*
X217984505Y-115856477D01*
X217893008Y-115829357D01*
X217801496Y-115802318D01*
X217709971Y-115775357D01*
X217618432Y-115748476D01*
X217526879Y-115721674D01*
X217435312Y-115694951D01*
X217343731Y-115668307D01*
X217252136Y-115641743D01*
X217160527Y-115615257D01*
X217068904Y-115588851D01*
X216977267Y-115562525D01*
X216885616Y-115536277D01*
X216793951Y-115510109D01*
X216702272Y-115484019D01*
X216610579Y-115458009D01*
X216518872Y-115432078D01*
X216427151Y-115406226D01*
X216335416Y-115380454D01*
X216243667Y-115354760D01*
X216151904Y-115329146D01*
X216060127Y-115303610D01*
X215968336Y-115278154D01*
X215876531Y-115252777D01*
X215784712Y-115227479D01*
X215692879Y-115202260D01*
X215601031Y-115177120D01*
X215509170Y-115152059D01*
X215417294Y-115127077D01*
X215325405Y-115102174D01*
X215233501Y-115077350D01*
X215141584Y-115052605D01*
X215049652Y-115027940D01*
X214957706Y-115003353D01*
X214865746Y-114978845D01*
X214773772Y-114954416D01*
X214681784Y-114930066D01*
X214589781Y-114905796D01*
X214497765Y-114881604D01*
X214405734Y-114857491D01*
X214313689Y-114833457D01*
X214221631Y-114809502D01*
X214129558Y-114785626D01*
X214037470Y-114761829D01*
X213945369Y-114738111D01*
X213853253Y-114714472D01*
X213761124Y-114690911D01*
X213668980Y-114667430D01*
X213576822Y-114644028D01*
X213484650Y-114620704D01*
X213392463Y-114597459D01*
X213300263Y-114574294D01*
X213208048Y-114551207D01*
X213115819Y-114528199D01*
X213023576Y-114505270D01*
X212931318Y-114482419D01*
X212839047Y-114459648D01*
X212746761Y-114436955D01*
X212654461Y-114414342D01*
X212562146Y-114391807D01*
X212469818Y-114369351D01*
X212377475Y-114346973D01*
X212285118Y-114324675D01*
X212192747Y-114302455D01*
X212100361Y-114280315D01*
X212007962Y-114258253D01*
X211915548Y-114236270D01*
X211823119Y-114214365D01*
X211730677Y-114192540D01*
X211638220Y-114170793D01*
X211545749Y-114149125D01*
X211453263Y-114127536D01*
X211360764Y-114106026D01*
X211268250Y-114084594D01*
X211175722Y-114063241D01*
X211083179Y-114041967D01*
X210990622Y-114020772D01*
X210898051Y-113999655D01*
X210805466Y-113978617D01*
X210712866Y-113957658D01*
X210620252Y-113936778D01*
X210527624Y-113915976D01*
X210434981Y-113895254D01*
X210342324Y-113874610D01*
X210249653Y-113854044D01*
X210156967Y-113833558D01*
X210064267Y-113813150D01*
X209971553Y-113792821D01*
X209878825Y-113772570D01*
X209786082Y-113752398D01*
X209693324Y-113732305D01*
X209600553Y-113712291D01*
X209507767Y-113692355D01*
X209414966Y-113672499D01*
X209322152Y-113652720D01*
X209229323Y-113633021D01*
X209136479Y-113613400D01*
X209043622Y-113593858D01*
X208950750Y-113574395D01*
X208857863Y-113555010D01*
X208764962Y-113535704D01*
X208672047Y-113516476D01*
X208579118Y-113497328D01*
X208486174Y-113478258D01*
X208393215Y-113459266D01*
X208300243Y-113440354D01*
X208207256Y-113421520D01*
X208114254Y-113402765D01*
X208021238Y-113384088D01*
X207928208Y-113365490D01*
X207835164Y-113346971D01*
X207742105Y-113328530D01*
X207649031Y-113310168D01*
X207555944Y-113291885D01*
X207462841Y-113273680D01*
X207369725Y-113255554D01*
X207276594Y-113237507D01*
X207183449Y-113219538D01*
X207090289Y-113201648D01*
X206997115Y-113183837D01*
X206903926Y-113166104D01*
X206810723Y-113148450D01*
X206717506Y-113130875D01*
X206624274Y-113113378D01*
X206531028Y-113095960D01*
X206437768Y-113078621D01*
X206344493Y-113061360D01*
X206251203Y-113044178D01*
X206157900Y-113027075D01*
X206064581Y-113010050D01*
X205971249Y-112993104D01*
X205877902Y-112976236D01*
X205784541Y-112959448D01*
X205691165Y-112942738D01*
X205597775Y-112926106D01*
X205504370Y-112909553D01*
X205410951Y-112893079D01*
X205317518Y-112876683D01*
X205224070Y-112860367D01*
X205130608Y-112844128D01*
X205037131Y-112827969D01*
X204943640Y-112811888D01*
X204850135Y-112795886D01*
X204756615Y-112779962D01*
X204663080Y-112764117D01*
X204569532Y-112748351D01*
X204475969Y-112732663D01*
X204382391Y-112717054D01*
X204288799Y-112701524D01*
X204195193Y-112686072D01*
X204101573Y-112670699D01*
X204007937Y-112655405D01*
X203914288Y-112640189D01*
X203820624Y-112625052D01*
X203726946Y-112609994D01*
X203633253Y-112595014D01*
X203539546Y-112580113D01*
X203445825Y-112565291D01*
X203352089Y-112550548D01*
X203258339Y-112535883D01*
X203164574Y-112521297D01*
X203070795Y-112506789D01*
X202977002Y-112492360D01*
X202883194Y-112478010D01*
X202789372Y-112463738D01*
X202695536Y-112449546D01*
X202601685Y-112435432D01*
X202507820Y-112421396D01*
X202413940Y-112407440D01*
X202320046Y-112393562D01*
X202226138Y-112379762D01*
X202132215Y-112366042D01*
X202038278Y-112352400D01*
X201944327Y-112338837D01*
X201850361Y-112325352D01*
X201756381Y-112311947D01*
X201662387Y-112298620D01*
X201568378Y-112285371D01*
X201474355Y-112272202D01*
X201380317Y-112259111D01*
X201286266Y-112246099D01*
X201192200Y-112233166D01*
X201098119Y-112220311D01*
X201004024Y-112207535D01*
X200909915Y-112194838D01*
X200815792Y-112182220D01*
X200721654Y-112169680D01*
X200627502Y-112157219D01*
X200533336Y-112144837D01*
X200439156Y-112132534D01*
X200344961Y-112120310D01*
X200250752Y-112108164D01*
X200156528Y-112096097D01*
X200062291Y-112084109D01*
X199968039Y-112072199D01*
X199873772Y-112060369D01*
X199779492Y-112048617D01*
X199685197Y-112036944D01*
X199590888Y-112025350D01*
X199496565Y-112013834D01*
X199402228Y-112002398D01*
X199307876Y-111991040D01*
X199213510Y-111979761D01*
X199119130Y-111968561D01*
X199024736Y-111957440D01*
X198930327Y-111946397D01*
X198835904Y-111935434D01*
X198741467Y-111924549D01*
X198647016Y-111913743D01*
X198552551Y-111903016D01*
X198458071Y-111892368D01*
X198363578Y-111881798D01*
X198269070Y-111871308D01*
X198174548Y-111860897D01*
X198080012Y-111850564D01*
X197985461Y-111840310D01*
X197890897Y-111830135D01*
X197796318Y-111820039D01*
X197701726Y-111810022D01*
X197607119Y-111800084D01*
X197512498Y-111790225D01*
X197417863Y-111780444D01*
X197323214Y-111770743D01*
X197228551Y-111761120D01*
X197133874Y-111751577D01*
X197039182Y-111742112D01*
X196944477Y-111732727D01*
X196849758Y-111723420D01*
X196755024Y-111714192D01*
X196660277Y-111705043D01*
X196565515Y-111695974D01*
X196470740Y-111686983D01*
X196375950Y-111678071D01*
X196281147Y-111669238D01*
X196186329Y-111660484D01*
X196091498Y-111651810D01*
X195996652Y-111643214D01*
X195901793Y-111634697D01*
X195806920Y-111626259D01*
X195712032Y-111617900D01*
X195617131Y-111609621D01*
X195522216Y-111601420D01*
X195427287Y-111593299D01*
X195332344Y-111585256D01*
X195237388Y-111577293D01*
X195142417Y-111569408D01*
X195047432Y-111561603D01*
X194952434Y-111553877D01*
X194857422Y-111546230D01*
X194762396Y-111538662D01*
X194667356Y-111531173D01*
X194572302Y-111523763D01*
X194477235Y-111516432D01*
X194382154Y-111509181D01*
X194287059Y-111502008D01*
X194191950Y-111494915D01*
X194096827Y-111487901D01*
X194001691Y-111480966D01*
X193906541Y-111474110D01*
X193811377Y-111467333D01*
X193716200Y-111460636D01*
X193621009Y-111454018D01*
X193525804Y-111447479D01*
X193430586Y-111441019D01*
X193335354Y-111434638D01*
X193240108Y-111428337D01*
X193144849Y-111422115D01*
X193049576Y-111415972D01*
X192954290Y-111409908D01*
X192858990Y-111403924D01*
X192763676Y-111398018D01*
X192668349Y-111392193D01*
X192573008Y-111386446D01*
X192477654Y-111380779D01*
X192382286Y-111375190D01*
X192286905Y-111369682D01*
X192191511Y-111364252D01*
X192096103Y-111358902D01*
X192000681Y-111353631D01*
X191905246Y-111348440D01*
X191809798Y-111343328D01*
X191714336Y-111338295D01*
X191618861Y-111333342D01*
X191523373Y-111328468D01*
X191427871Y-111323673D01*
X191332356Y-111318958D01*
X191236827Y-111314322D01*
X191141285Y-111309765D01*
X191045730Y-111305288D01*
X190950162Y-111300890D01*
X190854581Y-111296572D01*
X190758986Y-111292333D01*
X190663378Y-111288174D01*
X190567757Y-111284094D01*
X190472122Y-111280094D01*
X190376475Y-111276173D01*
X190280814Y-111272331D01*
X190185141Y-111268569D01*
X190089454Y-111264887D01*
X189993754Y-111261284D01*
X189898041Y-111257760D01*
X189802315Y-111254317D01*
X189706576Y-111250952D01*
X189610824Y-111247667D01*
X189515059Y-111244462D01*
X189419282Y-111241336D01*
X189323491Y-111238290D01*
X189227687Y-111235324D01*
X189131870Y-111232437D01*
X189036041Y-111229629D01*
X188940198Y-111226901D01*
X188844343Y-111224253D01*
X188748475Y-111221685D01*
X188652594Y-111219196D01*
X188556701Y-111216787D01*
X188460794Y-111214457D01*
X188364875Y-111212207D01*
X188268944Y-111210037D01*
X188172999Y-111207946D01*
X188077042Y-111205935D01*
X187981072Y-111204004D01*
X187885090Y-111202153D01*
X187789095Y-111200381D01*
X187693088Y-111198689D01*
X187597068Y-111197077D01*
X187501035Y-111195544D01*
X187404990Y-111194092D01*
X187308932Y-111192719D01*
X187212862Y-111191425D01*
X187116780Y-111190212D01*
X187020685Y-111189078D01*
X186924578Y-111188025D01*
X186828459Y-111187051D01*
X186732327Y-111186157D01*
X186636183Y-111185342D01*
X186540027Y-111184608D01*
X186443858Y-111183953D01*
X186347677Y-111183379D01*
X186251484Y-111182884D01*
X186155279Y-111182469D01*
X186059062Y-111182134D01*
X185962832Y-111181879D01*
X185866591Y-111181703D01*
X185770337Y-111181608D01*
X185674072Y-111181593D01*
X185577794Y-111181657D01*
X185481505Y-111181802D01*
X185385203Y-111182026D01*
X185288890Y-111182331D01*
X185192565Y-111182715D01*
X185096228Y-111183180D01*
X184999879Y-111183724D01*
X184903518Y-111184349D01*
X184807145Y-111185053D01*
X184710761Y-111185838D01*
X184614365Y-111186702D01*
X184517958Y-111187647D01*
X184421539Y-111188672D01*
X184325108Y-111189777D01*
X184228665Y-111190961D01*
X184132211Y-111192226D01*
X184035746Y-111193571D01*
X183939269Y-111194997D01*
X183842781Y-111196502D01*
X183746281Y-111198087D01*
X183649770Y-111199753D01*
X183553247Y-111201499D01*
X183456713Y-111203325D01*
X183360168Y-111205231D01*
X183263612Y-111207217D01*
X183167044Y-111209284D01*
X183070465Y-111211430D01*
X182973875Y-111213657D01*
X182877274Y-111215964D01*
X182780662Y-111218352D01*
X182684039Y-111220819D01*
X182587405Y-111223367D01*
X182490760Y-111225995D01*
X182394104Y-111228704D01*
X182297437Y-111231492D01*
X182200759Y-111234361D01*
X182104070Y-111237311D01*
X182007371Y-111240340D01*
X181910661Y-111243450D01*
X181813940Y-111246640D01*
X181717208Y-111249911D01*
X181620466Y-111253262D01*
X181523713Y-111256693D01*
X181426950Y-111260205D01*
X181330176Y-111263797D01*
X181233392Y-111267469D01*
X181136597Y-111271222D01*
X181039792Y-111275055D01*
X180942976Y-111278969D01*
X180846150Y-111282963D01*
X180749314Y-111287037D01*
X180652468Y-111291192D01*
X180555611Y-111295428D01*
X180458745Y-111299744D01*
X180361868Y-111304140D01*
X180264981Y-111308617D01*
X180168084Y-111313174D01*
X180071177Y-111317812D01*
X179974260Y-111322530D01*
X179877334Y-111327329D01*
X179780397Y-111332209D01*
X179683451Y-111337169D01*
X179586495Y-111342209D01*
X179489529Y-111347330D01*
X179392553Y-111352532D01*
X179295568Y-111357814D01*
X179198573Y-111363177D01*
X179101569Y-111368620D01*
X179004555Y-111374144D01*
X178907532Y-111379748D01*
X178810500Y-111385434D01*
X178713458Y-111391199D01*
X178616407Y-111397046D01*
X178519346Y-111402973D01*
X178422276Y-111408981D01*
X178325198Y-111415069D01*
X178228110Y-111421238D01*
X178131013Y-111427488D01*
X178033907Y-111433818D01*
X177936792Y-111440229D01*
X177839668Y-111446721D01*
X177742535Y-111453294D01*
X177645394Y-111459947D01*
X177548244Y-111466681D01*
X177451085Y-111473496D01*
X177353917Y-111480391D01*
X177256741Y-111487367D01*
X177159557Y-111494424D01*
X177062363Y-111501562D01*
X176965162Y-111508780D01*
X176867952Y-111516080D01*
X176770734Y-111523460D01*
X176673507Y-111530921D01*
X176576272Y-111538462D01*
X176479030Y-111546085D01*
X176381779Y-111553788D01*
X176284519Y-111561572D01*
X176187252Y-111569437D01*
X176089978Y-111577383D01*
X175992695Y-111585410D01*
X175895404Y-111593517D01*
X175798106Y-111601706D01*
X175700800Y-111609975D01*
X175603486Y-111618325D01*
X175506165Y-111626756D01*
X175408836Y-111635268D01*
X175311499Y-111643861D01*
X175214156Y-111652534D01*
X175116805Y-111661289D01*
X175019447Y-111670125D01*
X174922081Y-111679041D01*
X174824708Y-111688038D01*
X174727329Y-111697117D01*
X174629942Y-111706276D01*
X174532548Y-111715516D01*
X174435148Y-111724837D01*
X174337740Y-111734239D01*
X174240326Y-111743722D01*
X174142905Y-111753286D01*
X174045478Y-111762931D01*
X173948044Y-111772657D01*
X173850603Y-111782464D01*
X173753156Y-111792352D01*
X173655703Y-111802321D01*
X173558243Y-111812371D01*
X173460777Y-111822502D01*
X173363305Y-111832714D01*
X173265827Y-111843007D01*
X173168343Y-111853381D01*
X173070853Y-111863836D01*
X172973357Y-111874372D01*
X172875855Y-111884989D01*
X172778347Y-111895687D01*
X172680834Y-111906466D01*
X172583315Y-111917326D01*
X172485791Y-111928267D01*
X172388261Y-111939289D01*
X172290726Y-111950393D01*
X172193186Y-111961577D01*
X172095640Y-111972842D01*
X171998089Y-111984189D01*
X171900533Y-111995616D01*
X171802972Y-112007125D01*
X171705407Y-112018714D01*
X171607836Y-112030385D01*
X171510261Y-112042137D01*
X171412681Y-112053970D01*
X171315096Y-112065884D01*
X171217507Y-112077879D01*
X171119913Y-112089955D01*
X171022315Y-112102112D01*
X170924713Y-112114350D01*
X170827107Y-112126669D01*
X170729496Y-112139070D01*
X170631882Y-112151551D01*
X170534263Y-112164114D01*
X170436641Y-112176757D01*
X170339015Y-112189482D01*
X170241385Y-112202288D01*
X170143751Y-112215175D01*
X170046114Y-112228143D01*
X169948474Y-112241192D01*
X169850830Y-112254322D01*
X169753183Y-112267533D01*
X169655533Y-112280826D01*
X169557880Y-112294199D01*
X169460224Y-112307654D01*
X169362564Y-112321189D01*
X169264902Y-112334806D01*
X169167238Y-112348504D01*
X169069570Y-112362283D01*
X168971901Y-112376143D01*
X168874228Y-112390084D01*
X168776554Y-112404106D01*
X168678877Y-112418209D01*
X168581198Y-112432393D01*
X168483517Y-112446658D01*
X168385834Y-112461005D01*
X168288149Y-112475432D01*
X168190462Y-112489941D01*
X168092774Y-112504530D01*
X167995084Y-112519201D01*
X167897393Y-112533952D01*
X167799700Y-112548785D01*
X167702006Y-112563698D01*
X167604311Y-112578693D01*
X167506614Y-112593769D01*
X167408917Y-112608926D01*
X167311219Y-112624163D01*
X167213520Y-112639482D01*
X167115821Y-112654882D01*
X167018121Y-112670363D01*
X166920420Y-112685924D01*
X166822720Y-112701567D01*
X166725019Y-112717291D01*
X166627317Y-112733096D01*
X166529616Y-112748981D01*
X166431915Y-112764948D01*
X166334215Y-112780995D01*
X166236514Y-112797124D01*
X166138814Y-112813333D01*
X166041115Y-112829624D01*
X165943416Y-112845995D01*
X165845718Y-112862447D01*
X165748021Y-112878980D01*
X165650325Y-112895594D01*
X165552630Y-112912289D01*
X165454936Y-112929065D01*
X165357244Y-112945921D01*
X165259553Y-112962858D01*
X165161863Y-112979877D01*
X165064176Y-112996976D01*
X164966490Y-113014156D01*
X164868807Y-113031416D01*
X164771125Y-113048758D01*
X164673446Y-113066180D01*
X164575768Y-113083683D01*
X164478094Y-113101267D01*
X164380422Y-113118931D01*
X164282753Y-113136676D01*
X164185086Y-113154502D01*
X164087423Y-113172409D01*
X163989762Y-113190396D01*
X163892105Y-113208464D01*
X163794452Y-113226613D01*
X163696801Y-113244842D01*
X163599155Y-113263152D01*
X163501512Y-113281542D01*
X163403873Y-113300013D01*
X163306238Y-113318565D01*
X163208608Y-113337197D01*
X163110981Y-113355910D01*
X163013359Y-113374703D01*
X162915742Y-113393576D01*
X162818130Y-113412531D01*
X162720522Y-113431565D01*
X162622919Y-113450680D01*
X162525322Y-113469876D01*
X162427729Y-113489152D01*
X162330143Y-113508508D01*
X162232562Y-113527945D01*
X162134986Y-113547462D01*
X162037417Y-113567059D01*
X161939853Y-113586737D01*
X161842296Y-113606494D01*
X161744745Y-113626332D01*
X161647201Y-113646251D01*
X161549663Y-113666249D01*
X161452132Y-113686328D01*
X161354608Y-113706487D01*
X161257091Y-113726726D01*
X161159582Y-113747045D01*
X161062080Y-113767444D01*
X160964585Y-113787923D01*
X160867098Y-113808483D01*
X160769620Y-113829122D01*
X160672149Y-113849841D01*
X160574686Y-113870640D01*
X160477232Y-113891519D01*
X160379787Y-113912478D01*
X160282350Y-113933517D01*
X160184922Y-113954636D01*
X160087504Y-113975834D01*
X159990094Y-113997112D01*
X159892694Y-114018470D01*
X159795304Y-114039908D01*
X159697923Y-114061425D01*
X159600552Y-114083022D01*
X159503192Y-114104698D01*
X159405841Y-114126454D01*
X159308502Y-114148290D01*
X159211173Y-114170205D01*
X159113854Y-114192200D01*
X159016547Y-114214274D01*
X158919251Y-114236427D01*
X158821967Y-114258660D01*
X158724694Y-114280972D01*
X158627433Y-114303363D01*
X158530184Y-114325834D01*
X158432947Y-114348383D01*
X158335722Y-114371012D01*
X158238510Y-114393720D01*
X158141311Y-114416507D01*
X158044124Y-114439373D01*
X157946951Y-114462318D01*
X157849791Y-114485342D01*
X157752645Y-114508445D01*
X157655513Y-114531627D01*
X157558394Y-114554888D01*
X157461290Y-114578227D01*
X157364199Y-114601645D01*
X157267124Y-114625142D01*
X157170063Y-114648717D01*
X157073018Y-114672371D01*
X156975987Y-114696104D01*
X156878972Y-114719915D01*
X156781973Y-114743804D01*
X156684989Y-114767772D01*
X156588022Y-114791818D01*
X156491071Y-114815942D01*
X156394136Y-114840145D01*
X156297218Y-114864426D01*
X156200317Y-114888785D01*
X156103434Y-114913222D01*
X156006567Y-114937736D01*
X155909719Y-114962329D01*
X155812888Y-114987000D01*
X155716076Y-115011749D01*
X155619281Y-115036575D01*
X155522506Y-115061479D01*
X155425749Y-115086461D01*
X155329011Y-115111520D01*
X155232293Y-115136657D01*
X155135594Y-115161871D01*
X155038915Y-115187163D01*
X154942256Y-115212532D01*
X154845618Y-115237978D01*
X154749000Y-115263501D01*
X154652403Y-115289102D01*
X154555827Y-115314779D01*
X154459272Y-115340534D01*
X154362739Y-115366366D01*
X154266228Y-115392274D01*
X154169738Y-115418259D01*
X154073272Y-115444321D01*
X153976827Y-115470459D01*
X153880406Y-115496674D01*
X153784008Y-115522966D01*
X153687634Y-115549334D01*
X153591283Y-115575778D01*
X153494956Y-115602298D01*
X153398654Y-115628895D01*
X153302376Y-115655568D01*
X153206123Y-115682316D01*
X153109895Y-115709141D01*
X153013693Y-115736042D01*
X152917516Y-115763018D01*
X152821366Y-115790070D01*
X152725241Y-115817197D01*
X152629144Y-115844400D01*
X152533073Y-115871678D01*
X152437029Y-115899032D01*
X152341014Y-115926461D01*
X152245025Y-115953965D01*
X152149065Y-115981544D01*
X152053134Y-116009197D01*
X151957231Y-116036926D01*
X151861358Y-116064730D01*
X151765514Y-116092608D01*
X151669699Y-116120560D01*
X151573915Y-116148587D01*
X151478161Y-116176689D01*
X151382438Y-116204864D01*
X151286746Y-116233114D01*
X151191085Y-116261438D01*
X151095456Y-116289835D01*
X150999859Y-116318307D01*
X150904294Y-116346852D01*
X150808763Y-116375470D01*
X150713264Y-116404163D01*
X150617799Y-116432928D01*
X150522368Y-116461767D01*
X150426970Y-116490678D01*
X150331608Y-116519663D01*
X150236280Y-116548721D01*
X150140988Y-116577851D01*
X150045731Y-116607054D01*
X149950510Y-116636330D01*
X149855326Y-116665677D01*
X149760178Y-116695097D01*
X149665068Y-116724590D01*
X149569995Y-116754154D01*
X149474960Y-116783790D01*
X149379964Y-116813497D01*
X149285006Y-116843276D01*
X149190087Y-116873127D01*
X149095208Y-116903049D01*
X149000369Y-116933042D01*
X148905570Y-116963106D01*
X148810812Y-116993241D01*
X148716095Y-117023446D01*
X148621420Y-117053723D01*
X148526786Y-117084069D01*
X148432196Y-117114486D01*
X148337648Y-117144973D01*
X148243143Y-117175530D01*
X148148682Y-117206156D01*
X148054266Y-117236852D01*
X147959894Y-117267618D01*
X147865567Y-117298453D01*
X147771286Y-117329357D01*
X147677050Y-117360330D01*
X147582862Y-117391371D01*
X147488720Y-117422482D01*
X147394625Y-117453660D01*
X147300579Y-117484907D01*
X147206581Y-117516222D01*
X147112632Y-117547605D01*
X147018732Y-117579056D01*
X146924882Y-117610574D01*
X146831082Y-117642159D01*
X146737334Y-117673812D01*
X146643636Y-117705531D01*
X146549991Y-117737317D01*
X146456398Y-117769170D01*
X146362858Y-117801089D01*
X146269371Y-117833074D01*
X146175938Y-117865125D01*
X146082560Y-117897241D01*
X145989237Y-117929424D01*
X145895970Y-117961671D01*
X145802759Y-117993983D01*
X145709604Y-118026361D01*
X145616507Y-118058803D01*
X145523467Y-118091309D01*
X145430487Y-118123879D01*
X145337565Y-118156513D01*
X145244702Y-118189211D01*
X145151900Y-118221973D01*
X145059159Y-118254797D01*
X144966479Y-118287685D01*
X144873861Y-118320635D01*
X144781306Y-118353648D01*
X144688814Y-118386722D01*
X144596386Y-118419859D01*
X144504023Y-118453058D01*
X144411725Y-118486317D01*
X144319492Y-118519638D01*
X144227326Y-118553020D01*
X144135227Y-118586462D01*
X144043196Y-118619965D01*
X143951234Y-118653527D01*
X143859340Y-118687150D01*
X143767517Y-118720831D01*
X143675764Y-118754572D01*
X143584082Y-118788372D01*
X143492472Y-118822230D01*
X143400935Y-118856146D01*
X143309472Y-118890121D01*
X143218083Y-118924153D01*
X143126768Y-118958242D01*
X143035529Y-118992388D01*
X142944367Y-119026590D01*
X142853282Y-119060849D01*
X142762274Y-119095164D01*
X142671346Y-119129535D01*
X142580497Y-119163960D01*
X142489729Y-119198441D01*
X142399041Y-119232976D01*
X142308436Y-119267565D01*
X142217913Y-119302208D01*
X142127474Y-119336904D01*
X142037120Y-119371654D01*
X141946851Y-119406456D01*
X141856668Y-119441310D01*
X141766573Y-119476216D01*
X141676565Y-119511174D01*
X141586647Y-119546182D01*
X141496818Y-119581242D01*
X141407080Y-119616351D01*
X141317434Y-119651510D01*
X141227880Y-119686719D01*
X141138420Y-119721976D01*
X141049055Y-119757282D01*
X140959785Y-119792636D01*
X140870612Y-119828038D01*
X140781536Y-119863486D01*
X140692559Y-119898982D01*
X140603681Y-119934523D01*
X140514905Y-119970110D01*
X140426229Y-120005742D01*
X140337657Y-120041419D01*
X140249189Y-120077140D01*
X140160825Y-120112904D01*
X140072568Y-120148712D01*
X139984417Y-120184562D01*
X139896376Y-120220454D01*
X139808443Y-120256388D01*
X139720622Y-120292362D01*
X139632912Y-120328377D01*
X139545315Y-120364432D01*
X139457833Y-120400526D01*
X139370466Y-120436658D01*
X139283216Y-120472829D01*
X139196085Y-120509036D01*
X139109072Y-120545281D01*
X139022180Y-120581561D01*
X138935411Y-120617877D01*
X138848764Y-120654228D01*
X138762243Y-120690613D01*
X138675847Y-120727031D01*
X138589579Y-120763482D01*
X138503440Y-120799965D01*
X138417431Y-120836480D01*
X138331554Y-120873025D01*
X138245811Y-120909600D01*
X138160202Y-120946204D01*
X138074730Y-120982836D01*
X137989396Y-121019496D01*
X137904202Y-121056182D01*
X137819148Y-121092895D01*
X137734238Y-121129633D01*
X137649472Y-121166395D01*
X137564852Y-121203180D01*
X137480380Y-121239989D01*
X137396057Y-121276818D01*
X137311886Y-121313669D01*
X137227868Y-121350540D01*
X137144006Y-121387429D01*
X137060300Y-121424337D01*
X136976753Y-121461261D01*
X136893366Y-121498202D01*
X136810143Y-121535157D01*
X136727084Y-121572127D01*
X136644191Y-121609109D01*
X136561468Y-121646104D01*
X136478915Y-121683109D01*
X136396536Y-121720124D01*
X136314331Y-121757148D01*
X136232304Y-121794179D01*
X136150457Y-121831216D01*
X136068791Y-121868259D01*
X135987310Y-121905305D01*
X135906016Y-121942353D01*
X135824910Y-121979403D01*
X135743997Y-122016453D01*
X135663277Y-122053502D01*
X135582755Y-122090547D01*
X135502431Y-122127589D01*
X135422310Y-122164625D01*
X135342394Y-122201654D01*
X135262685Y-122238675D01*
X135183186Y-122275685D01*
X135103902Y-122312684D01*
X135024833Y-122349670D01*
X134945984Y-122386641D01*
X134867357Y-122423595D01*
X134788957Y-122460531D01*
X134710785Y-122497447D01*
X134632845Y-122534342D01*
X134555142Y-122571213D01*
X134477677Y-122608058D01*
X134400456Y-122644875D01*
X134323480Y-122681664D01*
X134246755Y-122718421D01*
X134170284Y-122755144D01*
X134094072Y-122791831D01*
X134018121Y-122828481D01*
X133942436Y-122865090D01*
X133867022Y-122901657D01*
X133791882Y-122938178D01*
X133717022Y-122974653D01*
X133642446Y-123011077D01*
X133568158Y-123047449D01*
X133494163Y-123083765D01*
X133420468Y-123120023D01*
X133347075Y-123156221D01*
X133273992Y-123192354D01*
X133201223Y-123228421D01*
X133128774Y-123264418D01*
X133056650Y-123300341D01*
X132984859Y-123336188D01*
X132913405Y-123371954D01*
X132842296Y-123407637D01*
X132771537Y-123443233D01*
X132701137Y-123478737D01*
X132631100Y-123514146D01*
X132561436Y-123549456D01*
X132492152Y-123584662D01*
X132423255Y-123619760D01*
X132354754Y-123654746D01*
X132286656Y-123689614D01*
X132218972Y-123724359D01*
X132151709Y-123758977D01*
X132084877Y-123793462D01*
X132018488Y-123827808D01*
X131952549Y-123862009D01*
X131887073Y-123896059D01*
X131822071Y-123929952D01*
X131757555Y-123963681D01*
X131693536Y-123997239D01*
X131630028Y-124030618D01*
X131567045Y-124063810D01*
X131504601Y-124096807D01*
X131442711Y-124129601D01*
X131381390Y-124162182D01*
X131320657Y-124194540D01*
X131260529Y-124226665D01*
X131201024Y-124258545D01*
X131142163Y-124290170D01*
X131083968Y-124321526D01*
X131026461Y-124352601D01*
X130969668Y-124383379D01*
X130913615Y-124413845D01*
X130858330Y-124443982D01*
X130803844Y-124473773D01*
X130750192Y-124503197D01*
X130697409Y-124532232D01*
X130645537Y-124560856D01*
X130594619Y-124589042D01*
X130544704Y-124616761D01*
X130495848Y-124643980D01*
X130448112Y-124670664D01*
X130401566Y-124696771D01*
X130356289Y-124722253D01*
X130312375Y-124747057D01*
X130269932Y-124771116D01*
X130229090Y-124794355D01*
X130190008Y-124816678D01*
X130152883Y-124837969D01*
X130117971Y-124858074D01*
X130085619Y-124876788D01*
X130056327Y-124893812D01*
X130030889Y-124908672D01*
X130010801Y-124920474D01*
X130000000Y-124926860D01*
X111514720Y-85985281D02*
X111540171Y-86013835D01*
X111565571Y-86042362D01*
X111590936Y-86070878D01*
X111616249Y-86099367D01*
X111641526Y-86127846D01*
X111666753Y-86156298D01*
X111691943Y-86184739D01*
X111717083Y-86213153D01*
X111742187Y-86241556D01*
X111767240Y-86269933D01*
X111792257Y-86298298D01*
X111817224Y-86326637D01*
X111842154Y-86354965D01*
X111867035Y-86383266D01*
X111891879Y-86411557D01*
X111916673Y-86439820D01*
X111941431Y-86468073D01*
X111966138Y-86496298D01*
X111990810Y-86524513D01*
X112015432Y-86552701D01*
X112040018Y-86580878D01*
X112064553Y-86609028D01*
X112089053Y-86637167D01*
X112113503Y-86665279D01*
X112137917Y-86693381D01*
X112162280Y-86721455D01*
X112186608Y-86749519D01*
X112210886Y-86777555D01*
X112235129Y-86805581D01*
X112259321Y-86833579D01*
X112283478Y-86861567D01*
X112307585Y-86889528D01*
X112331656Y-86917478D01*
X112355677Y-86945400D01*
X112379663Y-86973312D01*
X112403599Y-87001196D01*
X112427500Y-87029071D01*
X112451350Y-87056917D01*
X112475166Y-87084753D01*
X112498931Y-87112561D01*
X112522662Y-87140359D01*
X112546342Y-87168130D01*
X112569988Y-87195890D01*
X112593583Y-87223622D01*
X112617144Y-87251344D01*
X112640654Y-87279037D01*
X112664130Y-87306721D01*
X112687556Y-87334377D01*
X112710947Y-87362023D01*
X112734288Y-87389640D01*
X112757594Y-87417248D01*
X112780851Y-87444827D01*
X112804073Y-87472396D01*
X112827245Y-87499937D01*
X112850382Y-87527468D01*
X112873470Y-87554971D01*
X112896523Y-87582464D01*
X112919526Y-87609928D01*
X112942495Y-87637383D01*
X112965414Y-87664809D01*
X112988299Y-87692225D01*
X113011134Y-87719613D01*
X113033935Y-87746991D01*
X113056686Y-87774340D01*
X113079403Y-87801680D01*
X113102070Y-87828990D01*
X113124703Y-87856291D01*
X113147287Y-87883564D01*
X113169836Y-87910826D01*
X113192336Y-87938060D01*
X113214801Y-87965285D01*
X113237217Y-87992480D01*
X113259599Y-88019666D01*
X113281932Y-88046822D01*
X113304231Y-88073970D01*
X113326480Y-88101088D01*
X113348695Y-88128196D01*
X113370861Y-88155276D01*
X113392993Y-88182346D01*
X113415076Y-88209387D01*
X113437124Y-88236418D01*
X113459124Y-88263421D01*
X113481090Y-88290413D01*
X113503006Y-88317377D01*
X113524889Y-88344331D01*
X113546723Y-88371256D01*
X113568523Y-88398171D01*
X113590273Y-88425057D01*
X113611990Y-88451933D01*
X113633659Y-88478781D01*
X113655293Y-88505618D01*
X113676878Y-88532427D01*
X113698430Y-88559226D01*
X113719933Y-88585996D01*
X113741402Y-88612755D01*
X113762823Y-88639486D01*
X113784210Y-88666207D01*
X113805548Y-88692899D01*
X113826853Y-88719581D01*
X113848108Y-88746234D01*
X113869331Y-88772877D01*
X113890505Y-88799491D01*
X113911645Y-88826095D01*
X113932737Y-88852670D01*
X113953795Y-88879235D01*
X113974805Y-88905771D01*
X113995781Y-88932297D01*
X114016709Y-88958794D01*
X114037604Y-88985281D01*
X114058449Y-89011739D01*
X114079262Y-89038187D01*
X114100027Y-89064605D01*
X114120758Y-89091014D01*
X114141441Y-89117393D01*
X114162091Y-89143762D01*
X114182692Y-89170102D01*
X114203260Y-89196433D01*
X114223780Y-89222733D01*
X114244267Y-89249024D01*
X114264705Y-89275286D01*
X114285111Y-89301537D01*
X114305469Y-89327759D01*
X114325793Y-89353972D01*
X114346069Y-89380154D01*
X114366313Y-89406328D01*
X114386508Y-89432471D01*
X114406671Y-89458604D01*
X114426785Y-89484708D01*
X114446867Y-89510802D01*
X114466900Y-89536866D01*
X114486901Y-89562921D01*
X114506854Y-89588946D01*
X114526774Y-89614961D01*
X114546647Y-89640946D01*
X114566486Y-89666922D01*
X114586278Y-89692867D01*
X114606037Y-89718803D01*
X114625748Y-89744709D01*
X114645427Y-89770606D01*
X114665058Y-89796472D01*
X114684657Y-89822328D01*
X114704207Y-89848155D01*
X114723725Y-89873972D01*
X114743196Y-89899759D01*
X114762634Y-89925536D01*
X114782024Y-89951283D01*
X114801383Y-89977020D01*
X114820693Y-90002727D01*
X114859202Y-90054092D01*
X114897551Y-90105377D01*
X114935741Y-90156582D01*
X114973771Y-90207707D01*
X115011643Y-90258752D01*
X115049356Y-90309718D01*
X115086910Y-90360602D01*
X115124305Y-90411407D01*
X115161543Y-90462131D01*
X115198622Y-90512775D01*
X115235543Y-90563338D01*
X115272307Y-90613820D01*
X115308913Y-90664222D01*
X115345361Y-90714543D01*
X115381653Y-90764783D01*
X115417787Y-90814942D01*
X115453765Y-90865021D01*
X115489586Y-90915017D01*
X115525251Y-90964933D01*
X115560760Y-91014767D01*
X115596112Y-91064520D01*
X115631309Y-91114191D01*
X115666350Y-91163781D01*
X115701235Y-91213289D01*
X115735965Y-91262715D01*
X115770540Y-91312060D01*
X115804960Y-91361322D01*
X115839226Y-91410502D01*
X115873337Y-91459600D01*
X115907293Y-91508615D01*
X115941095Y-91557548D01*
X115974743Y-91606399D01*
X116008238Y-91655167D01*
X116041579Y-91703852D01*
X116074766Y-91752455D01*
X116107800Y-91800974D01*
X116140681Y-91849411D01*
X116173409Y-91897764D01*
X116205984Y-91946035D01*
X116238407Y-91994221D01*
X116270677Y-92042325D01*
X116302795Y-92090344D01*
X116334762Y-92138280D01*
X116366576Y-92186133D01*
X116398239Y-92233901D01*
X116429750Y-92281585D01*
X116461110Y-92329185D01*
X116492319Y-92376701D01*
X116523377Y-92424132D01*
X116554284Y-92471479D01*
X116585041Y-92518742D01*
X116615648Y-92565919D01*
X116646104Y-92613012D01*
X116676410Y-92660020D01*
X116706567Y-92706942D01*
X116736573Y-92753780D01*
X116766431Y-92800532D01*
X116796139Y-92847198D01*
X116825698Y-92893779D01*
X116855108Y-92940274D01*
X116884369Y-92986684D01*
X116913481Y-93033007D01*
X116942446Y-93079244D01*
X116971262Y-93125395D01*
X116999930Y-93171459D01*
X117028450Y-93217437D01*
X117056822Y-93263328D01*
X117085047Y-93309132D01*
X117113125Y-93354849D01*
X117141056Y-93400479D01*
X117168839Y-93446022D01*
X117196476Y-93491478D01*
X117223966Y-93536846D01*
X117251310Y-93582126D01*
X117278507Y-93627318D01*
X117305559Y-93672422D01*
X117332464Y-93717438D01*
X117359224Y-93762366D01*
X117385838Y-93807205D01*
X117412306Y-93851956D01*
X117438630Y-93896618D01*
X117464808Y-93941191D01*
X117490842Y-93985675D01*
X117516731Y-94030069D01*
X117542475Y-94074374D01*
X117568075Y-94118589D01*
X117593531Y-94162715D01*
X117618843Y-94206751D01*
X117644011Y-94250696D01*
X117669036Y-94294551D01*
X117693917Y-94338316D01*
X117718654Y-94381990D01*
X117743249Y-94425573D01*
X117767700Y-94469065D01*
X117792009Y-94512466D01*
X117816175Y-94555775D01*
X117840199Y-94598993D01*
X117864080Y-94642119D01*
X117887819Y-94685153D01*
X117911416Y-94728095D01*
X117934872Y-94770944D01*
X117958186Y-94813701D01*
X117981358Y-94856366D01*
X118004390Y-94898937D01*
X118027280Y-94941415D01*
X118050029Y-94983799D01*
X118072637Y-95026090D01*
X118095105Y-95068287D01*
X118117433Y-95110390D01*
X118139620Y-95152399D01*
X118161667Y-95194313D01*
X118183574Y-95236133D01*
X118205341Y-95277857D01*
X118226969Y-95319487D01*
X118248457Y-95361021D01*
X118269807Y-95402459D01*
X118291017Y-95443802D01*
X118312088Y-95485048D01*
X118333020Y-95526199D01*
X118353814Y-95567252D01*
X118374469Y-95608209D01*
X118394986Y-95649068D01*
X118415365Y-95689830D01*
X118435606Y-95730495D01*
X118455709Y-95771062D01*
X118475675Y-95811530D01*
X118495503Y-95851900D01*
X118515194Y-95892172D01*
X118534747Y-95932344D01*
X118554164Y-95972417D01*
X118573444Y-96012391D01*
X118592587Y-96052265D01*
X118611594Y-96092038D01*
X118630464Y-96131711D01*
X118649199Y-96171284D01*
X118667797Y-96210756D01*
X118686259Y-96250126D01*
X118704586Y-96289395D01*
X118722777Y-96328561D01*
X118740833Y-96367626D01*
X118758754Y-96406588D01*
X118776539Y-96445446D01*
X118794190Y-96484202D01*
X118811706Y-96522854D01*
X118829087Y-96561402D01*
X118846334Y-96599846D01*
X118863446Y-96638186D01*
X118880425Y-96676420D01*
X118897269Y-96714549D01*
X118913980Y-96752572D01*
X118930557Y-96790489D01*
X118947001Y-96828300D01*
X118963311Y-96866004D01*
X118979488Y-96903601D01*
X118995532Y-96941090D01*
X119011443Y-96978471D01*
X119027221Y-97015743D01*
X119042867Y-97052907D01*
X119058380Y-97089961D01*
X119073761Y-97126906D01*
X119089010Y-97163740D01*
X119104127Y-97200464D01*
X119119112Y-97237077D01*
X119133965Y-97273579D01*
X119148687Y-97309968D01*
X119163278Y-97346245D01*
X119177737Y-97382410D01*
X119192065Y-97418460D01*
X119206262Y-97454397D01*
X119220328Y-97490220D01*
X119234264Y-97525928D01*
X119248069Y-97561520D01*
X119261744Y-97596997D01*
X119275289Y-97632357D01*
X119288703Y-97667600D01*
X119301988Y-97702725D01*
X119315143Y-97737732D01*
X119328168Y-97772621D01*
X119341063Y-97807390D01*
X119353830Y-97842040D01*
X119366467Y-97876569D01*
X119378975Y-97910976D01*
X119391354Y-97945263D01*
X119403604Y-97979426D01*
X119415726Y-98013467D01*
X119427719Y-98047384D01*
X119439584Y-98081177D01*
X119451320Y-98114844D01*
X119462929Y-98148386D01*
X119474409Y-98181802D01*
X119485762Y-98215090D01*
X119496987Y-98248250D01*
X119508084Y-98281281D01*
X119519054Y-98314183D01*
X119529897Y-98346955D01*
X119540612Y-98379595D01*
X119551201Y-98412104D01*
X119561662Y-98444480D01*
X119571997Y-98476722D01*
X119582205Y-98508829D01*
X119592287Y-98540802D01*
X119602243Y-98572637D01*
X119612072Y-98604336D01*
X119621775Y-98635896D01*
X119631352Y-98667317D01*
X119640803Y-98698598D01*
X119650129Y-98729737D01*
X119659329Y-98760734D01*
X119668403Y-98791587D01*
X119677353Y-98822296D01*
X119686177Y-98852860D01*
X119694876Y-98883276D01*
X119703450Y-98913544D01*
X119711899Y-98943663D01*
X119720223Y-98973632D01*
X119728423Y-99003449D01*
X119736499Y-99033112D01*
X119744450Y-99062621D01*
X119752276Y-99091974D01*
X119759979Y-99121169D01*
X119767558Y-99150206D01*
X119775013Y-99179083D01*
X119782344Y-99207797D01*
X119789551Y-99236348D01*
X119796635Y-99264733D01*
X119803596Y-99292952D01*
X119810433Y-99321002D01*
X119817148Y-99348882D01*
X119823739Y-99376589D01*
X119830207Y-99404121D01*
X119836552Y-99431478D01*
X119842775Y-99458656D01*
X119848875Y-99485653D01*
X119854853Y-99512467D01*
X119860708Y-99539097D01*
X119866441Y-99565539D01*
X119872051Y-99591791D01*
X119877540Y-99617851D01*
X119882907Y-99643715D01*
X119888152Y-99669381D01*
X119893275Y-99694847D01*
X119898276Y-99720109D01*
X119903156Y-99745164D01*
X119907915Y-99770009D01*
X119912552Y-99794640D01*
X119917068Y-99819054D01*
X119921463Y-99843247D01*
X119925737Y-99867216D01*
X119929890Y-99890955D01*
X119933923Y-99914462D01*
X119937834Y-99937731D01*
X119941625Y-99960757D01*
X119945295Y-99983536D01*
X119948845Y-100006063D01*
X119952275Y-100028331D01*
X119955585Y-100050335D01*
X119958774Y-100072068D01*
X119961843Y-100093524D01*
X119964793Y-100114696D01*
X119967623Y-100135575D01*
X119970333Y-100156155D01*
X119972923Y-100176425D01*
X119975394Y-100196376D01*
X119977745Y-100215999D01*
X119979977Y-100235281D01*
X119982090Y-100254210D01*
X119984084Y-100272774D01*
X119985960Y-100290957D01*
X119987716Y-100308742D01*
X119989353Y-100326112D01*
X119990872Y-100343046D01*
X119992273Y-100359520D01*
X119993556Y-100375507D01*
X119994720Y-100390977D01*
X119995767Y-100405894D01*
X119996697Y-100420212D01*
X119997509Y-100433881D01*
X119998204Y-100446833D01*
X119998784Y-100458982D01*
X119999248Y-100470214D01*
X119999597Y-100480361D01*
X119999835Y-100489160D01*
X119999965Y-100496119D01*
X120000000Y-100500000D01*
X111514720Y-50985281D02*
X111534767Y-51017224D01*
X111554735Y-51049192D01*
X111574625Y-51081186D01*
X111594436Y-51113205D01*
X111614169Y-51145250D01*
X111633824Y-51177320D01*
X111653401Y-51209415D01*
X111672900Y-51241536D01*
X111692321Y-51273682D01*
X111711664Y-51305855D01*
X111730929Y-51338052D01*
X111750116Y-51370276D01*
X111769225Y-51402525D01*
X111788257Y-51434799D01*
X111807211Y-51467100D01*
X111826088Y-51499426D01*
X111844887Y-51531778D01*
X111863608Y-51564155D01*
X111882253Y-51596559D01*
X111900819Y-51628989D01*
X111919309Y-51661444D01*
X111937721Y-51693925D01*
X111956057Y-51726433D01*
X111974315Y-51758966D01*
X111992496Y-51791525D01*
X112010600Y-51824111D01*
X112028627Y-51856722D01*
X112046578Y-51889360D01*
X112064451Y-51922024D01*
X112082248Y-51954714D01*
X112099968Y-51987430D01*
X112117611Y-52020173D01*
X112135178Y-52052942D01*
X112152668Y-52085737D01*
X112170082Y-52118559D01*
X112187419Y-52151407D01*
X112204679Y-52184282D01*
X112221864Y-52217183D01*
X112238972Y-52250110D01*
X112256003Y-52283064D01*
X112272959Y-52316045D01*
X112289838Y-52349052D01*
X112306641Y-52382086D01*
X112323369Y-52415147D01*
X112340020Y-52448234D01*
X112356595Y-52481349D01*
X112373094Y-52514490D01*
X112389517Y-52547657D01*
X112405864Y-52580852D01*
X112422135Y-52614074D01*
X112438331Y-52647322D01*
X112454451Y-52680598D01*
X112470495Y-52713901D01*
X112486463Y-52747230D01*
X112502356Y-52780587D01*
X112518173Y-52813971D01*
X112533915Y-52847382D01*
X112549581Y-52880820D01*
X112565171Y-52914286D01*
X112580687Y-52947779D01*
X112596126Y-52981299D01*
X112611490Y-53014847D01*
X112626779Y-53048422D01*
X112641993Y-53082024D01*
X112657131Y-53115654D01*
X112672194Y-53149311D01*
X112687182Y-53182996D01*
X112702095Y-53216709D01*
X112716932Y-53250449D01*
X112731694Y-53284217D01*
X112746381Y-53318012D01*
X112760993Y-53351836D01*
X112775530Y-53385687D01*
X112789992Y-53419566D01*
X112804379Y-53453473D01*
X112818691Y-53487408D01*
X112832928Y-53521370D01*
X112847090Y-53555361D01*
X112861177Y-53589380D01*
X112875189Y-53623426D01*
X112889127Y-53657501D01*
X112902989Y-53691604D01*
X112916777Y-53725735D01*
X112930490Y-53759895D01*
X112944128Y-53794083D01*
X112957691Y-53828299D01*
X112971180Y-53862543D01*
X112984594Y-53896816D01*
X112997933Y-53931117D01*
X113011198Y-53965447D01*
X113024387Y-53999805D01*
X113037502Y-54034191D01*
X113050543Y-54068607D01*
X113063509Y-54103051D01*
X113076400Y-54137523D01*
X113089217Y-54172024D01*
X113101959Y-54206554D01*
X113114626Y-54241113D01*
X113127219Y-54275701D01*
X113139738Y-54310317D01*
X113152182Y-54344963D01*
X113164551Y-54379637D01*
X113176846Y-54414340D01*
X113189066Y-54449073D01*
X113201212Y-54483834D01*
X113213283Y-54518624D01*
X113225280Y-54553444D01*
X113237202Y-54588293D01*
X113249050Y-54623171D01*
X113260823Y-54658078D01*
X113272522Y-54693015D01*
X113284147Y-54727981D01*
X113295697Y-54762976D01*
X113307172Y-54798001D01*
X113318573Y-54833055D01*
X113329900Y-54868139D01*
X113341152Y-54903252D01*
X113352330Y-54938395D01*
X113363433Y-54973568D01*
X113374462Y-55008770D01*
X113385416Y-55044002D01*
X113396296Y-55079263D01*
X113407101Y-55114555D01*
X113417832Y-55149876D01*
X113428489Y-55185227D01*
X113439071Y-55220608D01*
X113449578Y-55256019D01*
X113460012Y-55291459D01*
X113470370Y-55326930D01*
X113480654Y-55362431D01*
X113490864Y-55397962D01*
X113500999Y-55433523D01*
X113511060Y-55469114D01*
X113521046Y-55504736D01*
X113530957Y-55540388D01*
X113540794Y-55576070D01*
X113550557Y-55611782D01*
X113560245Y-55647524D01*
X113569858Y-55683297D01*
X113579397Y-55719101D01*
X113588861Y-55754935D01*
X113598251Y-55790799D01*
X113607566Y-55826694D01*
X113616806Y-55862619D01*
X113625972Y-55898576D01*
X113635062Y-55934562D01*
X113644079Y-55970580D01*
X113653020Y-56006628D01*
X113661887Y-56042707D01*
X113670679Y-56078816D01*
X113679397Y-56114957D01*
X113688039Y-56151128D01*
X113696607Y-56187330D01*
X113705100Y-56223563D01*
X113713518Y-56259828D01*
X113721862Y-56296123D01*
X113730130Y-56332449D01*
X113738324Y-56368806D01*
X113746442Y-56405194D01*
X113754486Y-56441613D01*
X113762455Y-56478064D01*
X113770349Y-56514546D01*
X113778167Y-56551059D01*
X113785911Y-56587603D01*
X113793580Y-56624178D01*
X113801173Y-56660785D01*
X113808691Y-56697423D01*
X113816135Y-56734093D01*
X113823503Y-56770794D01*
X113830796Y-56807526D01*
X113838013Y-56844290D01*
X113845156Y-56881085D01*
X113852223Y-56917912D01*
X113859215Y-56954770D01*
X113866131Y-56991660D01*
X113872972Y-57028582D01*
X113879738Y-57065535D01*
X113886428Y-57102520D01*
X113893043Y-57139536D01*
X113899582Y-57176584D01*
X113906045Y-57213664D01*
X113912433Y-57250776D01*
X113918746Y-57287920D01*
X113924983Y-57325095D01*
X113931144Y-57362303D01*
X113937229Y-57399542D01*
X113943239Y-57436813D01*
X113949172Y-57474116D01*
X113955030Y-57511450D01*
X113960812Y-57548817D01*
X113966519Y-57586216D01*
X113972149Y-57623647D01*
X113977703Y-57661110D01*
X113983181Y-57698605D01*
X113988583Y-57736132D01*
X113993909Y-57773691D01*
X113999159Y-57811282D01*
X114004333Y-57848905D01*
X114009430Y-57886561D01*
X114014451Y-57924248D01*
X114019396Y-57961968D01*
X114024264Y-57999720D01*
X114029056Y-58037504D01*
X114033772Y-58075321D01*
X114038411Y-58113169D01*
X114042973Y-58151050D01*
X114047459Y-58188964D01*
X114051868Y-58226909D01*
X114056201Y-58264887D01*
X114060456Y-58302897D01*
X114064635Y-58340939D01*
X114068737Y-58379014D01*
X114072763Y-58417121D01*
X114076711Y-58455261D01*
X114080582Y-58493433D01*
X114084376Y-58531637D01*
X114088094Y-58569874D01*
X114091734Y-58608143D01*
X114095297Y-58646444D01*
X114098782Y-58684778D01*
X114102191Y-58723144D01*
X114105521Y-58761543D01*
X114108775Y-58799974D01*
X114111951Y-58838437D01*
X114115050Y-58876933D01*
X114118071Y-58915462D01*
X114121014Y-58954022D01*
X114123880Y-58992616D01*
X114126668Y-59031241D01*
X114129379Y-59069899D01*
X114132011Y-59108590D01*
X114134566Y-59147313D01*
X114137043Y-59186068D01*
X114139441Y-59224856D01*
X114141762Y-59263676D01*
X114144004Y-59302529D01*
X114146169Y-59341414D01*
X114148255Y-59380331D01*
X114150263Y-59419281D01*
X114152192Y-59458263D01*
X114154043Y-59497277D01*
X114155816Y-59536324D01*
X114157510Y-59575403D01*
X114159126Y-59614515D01*
X114160663Y-59653659D01*
X114162121Y-59692835D01*
X114163501Y-59732043D01*
X114164801Y-59771284D01*
X114166023Y-59810557D01*
X114167166Y-59849862D01*
X114168230Y-59889199D01*
X114169215Y-59928569D01*
X114170120Y-59967970D01*
X114170947Y-60007404D01*
X114171694Y-60046870D01*
X114172362Y-60086368D01*
X114172951Y-60125898D01*
X114173460Y-60165460D01*
X114173890Y-60205055D01*
X114174240Y-60244681D01*
X114174511Y-60284339D01*
X114174702Y-60324029D01*
X114174813Y-60363751D01*
X114174844Y-60403504D01*
X114174795Y-60443290D01*
X114174667Y-60483107D01*
X114174459Y-60522956D01*
X114174170Y-60562837D01*
X114173801Y-60602749D01*
X114173353Y-60642693D01*
X114172824Y-60682669D01*
X114172214Y-60722676D01*
X114171524Y-60762714D01*
X114170754Y-60802784D01*
X114169904Y-60842886D01*
X114168972Y-60883018D01*
X114167960Y-60923182D01*
X114166868Y-60963378D01*
X114165694Y-61003604D01*
X114164440Y-61043862D01*
X114163105Y-61084150D01*
X114161689Y-61124470D01*
X114160192Y-61164820D01*
X114158614Y-61205201D01*
X114156955Y-61245614D01*
X114155214Y-61286056D01*
X114153392Y-61326530D01*
X114151489Y-61367034D01*
X114149505Y-61407569D01*
X114147439Y-61448134D01*
X114145291Y-61488730D01*
X114143062Y-61529356D01*
X114140752Y-61570012D01*
X114138359Y-61610698D01*
X114135885Y-61651414D01*
X114133329Y-61692160D01*
X114130691Y-61732937D01*
X114127971Y-61773743D01*
X114125169Y-61814578D01*
X114122285Y-61855444D01*
X114119319Y-61896339D01*
X114116270Y-61937263D01*
X114113139Y-61978217D01*
X114109926Y-62019200D01*
X114106631Y-62060212D01*
X114103253Y-62101253D01*
X114099792Y-62142323D01*
X114096249Y-62183422D01*
X114092624Y-62224549D01*
X114088915Y-62265706D01*
X114085124Y-62306890D01*
X114081250Y-62348103D01*
X114077293Y-62389345D01*
X114073254Y-62430614D01*
X114069131Y-62471912D01*
X114064925Y-62513237D01*
X114060636Y-62554590D01*
X114056264Y-62595971D01*
X114051809Y-62637379D01*
X114047271Y-62678814D01*
X114042649Y-62720277D01*
X114037944Y-62761767D01*
X114033155Y-62803283D01*
X114028283Y-62844827D01*
X114023327Y-62886397D01*
X114018288Y-62927993D01*
X114013165Y-62969616D01*
X114007959Y-63011265D01*
X114002669Y-63052940D01*
X113997295Y-63094641D01*
X113991837Y-63136367D01*
X113986295Y-63178119D01*
X113980670Y-63219896D01*
X113974960Y-63261698D01*
X113969167Y-63303525D01*
X113963290Y-63345377D01*
X113957328Y-63387254D01*
X113951282Y-63429154D01*
X113945152Y-63471079D01*
X113938938Y-63513028D01*
X113932640Y-63555001D01*
X113926258Y-63596997D01*
X113919791Y-63639017D01*
X113913240Y-63681060D01*
X113906604Y-63723125D01*
X113899884Y-63765214D01*
X113893080Y-63807324D01*
X113886191Y-63849457D01*
X113879217Y-63891613D01*
X113872160Y-63933789D01*
X113865017Y-63975988D01*
X113857790Y-64018207D01*
X113850479Y-64060448D01*
X113843083Y-64102709D01*
X113835602Y-64144991D01*
X113828036Y-64187293D01*
X113820386Y-64229615D01*
X113812651Y-64271957D01*
X113804832Y-64314318D01*
X113796928Y-64356699D01*
X113788939Y-64399098D01*
X113780865Y-64441515D01*
X113772707Y-64483951D01*
X113764464Y-64526405D01*
X113756136Y-64568877D01*
X113747724Y-64611365D01*
X113739227Y-64653871D01*
X113730645Y-64696394D01*
X113721978Y-64738932D01*
X113713227Y-64781487D01*
X113704391Y-64824058D01*
X113695470Y-64866643D01*
X113686465Y-64909244D01*
X113677375Y-64951859D01*
X113668200Y-64994488D01*
X113658941Y-65037132D01*
X113649597Y-65079788D01*
X113640169Y-65122458D01*
X113630656Y-65165140D01*
X113621059Y-65207835D01*
X113611377Y-65250541D01*
X113601611Y-65293259D01*
X113591760Y-65335988D01*
X113581826Y-65378727D01*
X113571807Y-65421476D01*
X113561703Y-65464235D01*
X113551516Y-65507004D01*
X113541244Y-65549780D01*
X113530889Y-65592566D01*
X113520449Y-65635359D01*
X113509926Y-65678159D01*
X113499319Y-65720966D01*
X113488628Y-65763779D01*
X113477853Y-65806598D01*
X113466995Y-65849423D01*
X113456054Y-65892251D01*
X113445029Y-65935084D01*
X113433920Y-65977921D01*
X113422729Y-66020760D01*
X113411454Y-66063602D01*
X113400097Y-66106446D01*
X113388657Y-66149291D01*
X113377134Y-66192137D01*
X113365528Y-66234982D01*
X113353841Y-66277827D01*
X113342070Y-66320671D01*
X113330218Y-66363512D01*
X113318284Y-66406351D01*
X113306267Y-66449186D01*
X113294170Y-66492018D01*
X113281990Y-66534844D01*
X113269730Y-66577666D01*
X113257388Y-66620480D01*
X113244965Y-66663288D01*
X113232461Y-66706088D01*
X113219877Y-66748880D01*
X113207213Y-66791662D01*
X113194469Y-66834434D01*
X113181644Y-66877195D01*
X113168740Y-66919944D01*
X113155757Y-66962680D01*
X113142694Y-67005403D01*
X113129553Y-67048111D01*
X113116333Y-67090803D01*
X113103035Y-67133479D01*
X113089658Y-67176138D01*
X113076204Y-67218778D01*
X113062673Y-67261399D01*
X113049064Y-67303999D01*
X113035379Y-67346578D01*
X113021617Y-67389134D01*
X113007779Y-67431667D01*
X112993865Y-67474175D01*
X112979877Y-67516657D01*
X112965813Y-67559112D01*
X112951674Y-67601538D01*
X112937462Y-67643935D01*
X112923176Y-67686301D01*
X112908817Y-67728635D01*
X112894385Y-67770936D01*
X112879880Y-67813202D01*
X112865304Y-67855432D01*
X112850657Y-67897624D01*
X112835939Y-67939778D01*
X112821150Y-67981890D01*
X112806292Y-68023961D01*
X112791365Y-68065989D01*
X112776370Y-68107971D01*
X112761306Y-68149907D01*
X112746176Y-68191795D01*
X112730979Y-68233632D01*
X112715716Y-68275417D01*
X112700388Y-68317149D01*
X112684996Y-68358826D01*
X112669540Y-68400445D01*
X112654022Y-68442004D01*
X112638441Y-68483503D01*
X112622799Y-68524938D01*
X112607097Y-68566307D01*
X112591335Y-68607609D01*
X112575516Y-68648841D01*
X112559638Y-68690002D01*
X112543704Y-68731087D01*
X112527715Y-68772096D01*
X112511671Y-68813025D01*
X112495575Y-68853872D01*
X112479426Y-68894635D01*
X112463226Y-68935310D01*
X112446977Y-68975895D01*
X112430680Y-69016387D01*
X112414335Y-69056783D01*
X112397945Y-69097080D01*
X112381511Y-69137274D01*
X112365035Y-69177363D01*
X112348517Y-69217343D01*
X112331960Y-69257210D01*
X112315366Y-69296961D01*
X112298735Y-69336591D01*
X112282071Y-69376098D01*
X112265375Y-69415477D01*
X112248649Y-69454724D01*
X112231894Y-69493834D01*
X112215114Y-69532803D01*
X112198311Y-69571626D01*
X112181486Y-69610298D01*
X112164643Y-69648814D01*
X112147785Y-69687169D01*
X112130913Y-69725357D01*
X112114031Y-69763372D01*
X112097141Y-69801209D01*
X112080248Y-69838860D01*
X112063354Y-69876320D01*
X112046463Y-69913581D01*
X112029579Y-69950636D01*
X112012705Y-69987478D01*
X111995847Y-70024097D01*
X111979007Y-70060486D01*
X111962191Y-70096636D01*
X111945405Y-70132537D01*
X111928652Y-70168179D01*
X111911939Y-70203552D01*
X111895272Y-70238643D01*
X111878656Y-70273442D01*
X111862100Y-70307934D01*
X111845610Y-70342107D01*
X111829195Y-70375946D01*
X111812862Y-70409434D01*
X111796622Y-70442555D01*
X111780483Y-70475290D01*
X111764458Y-70507618D01*
X111748558Y-70539519D01*
X111732796Y-70570968D01*
X111717187Y-70601938D01*
X111701746Y-70632401D01*
X111686493Y-70662323D01*
X111671447Y-70691668D01*
X111656632Y-70720396D01*
X111642072Y-70748459D01*
X111627800Y-70775802D01*
X111613850Y-70802363D01*
X111600265Y-70828068D01*
X111587095Y-70852825D01*
X111574404Y-70876523D01*
X111562271Y-70899022D01*
X111550804Y-70920134D01*
X111540150Y-70939602D01*
X111530530Y-70957037D01*
X111522323Y-70971783D01*
X111516330Y-70982444D01*
X111514720Y-70985281D01*
D10*
X120000000Y-100500000D02*
X120000000Y-119500000D01*
D11*
X258492631Y-85977925D02*
X258467158Y-86006500D01*
X258441737Y-86035048D01*
X258416351Y-86063586D01*
X258391017Y-86092096D01*
X258365718Y-86120596D01*
X258340471Y-86149069D01*
X258315259Y-86177531D01*
X258290098Y-86205966D01*
X258264973Y-86234391D01*
X258239899Y-86262788D01*
X258214861Y-86291175D01*
X258189873Y-86319534D01*
X258164922Y-86347883D01*
X258140021Y-86376205D01*
X258115156Y-86404516D01*
X258090341Y-86432800D01*
X258065562Y-86461073D01*
X258040834Y-86489319D01*
X258016141Y-86517555D01*
X257991499Y-86545763D01*
X257966893Y-86573961D01*
X257942337Y-86602131D01*
X257917816Y-86630291D01*
X257893347Y-86658423D01*
X257868912Y-86686545D01*
X257844528Y-86714639D01*
X257820180Y-86742723D01*
X257795882Y-86770780D01*
X257771619Y-86798826D01*
X257747406Y-86826844D01*
X257723229Y-86854852D01*
X257699103Y-86882832D01*
X257675011Y-86910802D01*
X257650970Y-86938744D01*
X257626964Y-86966676D01*
X257603008Y-86994581D01*
X257579087Y-87022475D01*
X257555217Y-87050341D01*
X257531381Y-87078196D01*
X257507596Y-87106024D01*
X257483846Y-87133842D01*
X257460146Y-87161632D01*
X257436481Y-87189411D01*
X257412866Y-87217163D01*
X257389286Y-87244904D01*
X257365756Y-87272617D01*
X257342260Y-87300320D01*
X257318815Y-87327995D01*
X257295405Y-87355660D01*
X257272044Y-87383297D01*
X257248718Y-87410924D01*
X257225443Y-87438522D01*
X257202201Y-87466111D01*
X257179010Y-87493671D01*
X257155853Y-87521221D01*
X257132747Y-87548742D01*
X257109674Y-87576254D01*
X257086652Y-87603737D01*
X257063664Y-87631211D01*
X257040726Y-87658656D01*
X257017822Y-87686090D01*
X256994968Y-87713497D01*
X256972148Y-87740893D01*
X256949378Y-87768261D01*
X256926643Y-87795619D01*
X256903957Y-87822949D01*
X256881305Y-87850268D01*
X256858703Y-87877559D01*
X256836135Y-87904840D01*
X256813617Y-87932092D01*
X256791133Y-87959335D01*
X256768698Y-87986548D01*
X256746298Y-88013752D01*
X256723946Y-88040927D01*
X256701629Y-88068093D01*
X256679362Y-88095229D01*
X256657128Y-88122355D01*
X256634944Y-88149453D01*
X256612794Y-88176541D01*
X256590693Y-88203600D01*
X256568626Y-88230649D01*
X256546608Y-88257669D01*
X256524625Y-88284680D01*
X256502690Y-88311661D01*
X256480789Y-88338633D01*
X256458938Y-88365575D01*
X256437120Y-88392508D01*
X256415351Y-88419412D01*
X256393616Y-88446306D01*
X256371930Y-88473171D01*
X256350278Y-88500026D01*
X256328675Y-88526852D01*
X256307105Y-88553668D01*
X256285585Y-88580455D01*
X256264098Y-88607232D01*
X256242660Y-88633980D01*
X256221255Y-88660719D01*
X256199899Y-88687428D01*
X256178577Y-88714127D01*
X256157304Y-88740797D01*
X256136064Y-88767457D01*
X256114873Y-88794088D01*
X256093715Y-88820709D01*
X256072606Y-88847301D01*
X256051531Y-88873883D01*
X256030504Y-88900436D01*
X256009510Y-88926979D01*
X255988565Y-88953492D01*
X255967654Y-88979996D01*
X255946791Y-89006470D01*
X255925961Y-89032935D01*
X255905179Y-89059370D01*
X255884431Y-89085795D01*
X255863731Y-89112191D01*
X255843065Y-89138577D01*
X255822447Y-89164933D01*
X255801861Y-89191280D01*
X255781325Y-89217597D01*
X255760821Y-89243904D01*
X255740366Y-89270182D01*
X255719943Y-89296450D01*
X255699570Y-89322688D01*
X255679228Y-89348916D01*
X255658936Y-89375115D01*
X255638675Y-89401304D01*
X255618464Y-89427463D01*
X255598285Y-89453613D01*
X255578154Y-89479733D01*
X255558056Y-89505843D01*
X255538006Y-89531923D01*
X255517989Y-89557993D01*
X255498020Y-89584034D01*
X255478083Y-89610065D01*
X255458195Y-89636065D01*
X255438339Y-89662057D01*
X255418531Y-89688018D01*
X255398756Y-89713969D01*
X255379029Y-89739891D01*
X255359334Y-89765803D01*
X255339687Y-89791684D01*
X255320073Y-89817556D01*
X255300506Y-89843398D01*
X255280972Y-89869231D01*
X255261486Y-89895032D01*
X255242032Y-89920825D01*
X255222626Y-89946587D01*
X255203252Y-89972340D01*
X255183926Y-89998062D01*
X255145386Y-90049457D01*
X255107005Y-90100772D01*
X255068784Y-90152007D01*
X255030723Y-90203161D01*
X254992821Y-90254236D01*
X254955077Y-90305230D01*
X254917493Y-90356144D01*
X254880067Y-90406978D01*
X254842800Y-90457731D01*
X254805691Y-90508403D01*
X254768739Y-90558995D01*
X254731946Y-90609506D01*
X254695311Y-90659936D01*
X254658832Y-90710285D01*
X254622512Y-90760553D01*
X254586348Y-90810740D01*
X254550341Y-90860845D01*
X254514491Y-90910870D01*
X254478798Y-90960813D01*
X254443260Y-91010674D01*
X254407880Y-91060454D01*
X254372655Y-91110152D01*
X254337585Y-91159768D01*
X254302672Y-91209303D01*
X254267914Y-91258755D01*
X254233311Y-91308125D01*
X254198863Y-91357414D01*
X254164570Y-91406620D01*
X254130432Y-91455743D01*
X254096448Y-91504784D01*
X254062619Y-91553743D01*
X254028944Y-91602619D01*
X253995423Y-91651412D01*
X253962055Y-91700122D01*
X253928841Y-91748749D01*
X253895781Y-91797293D01*
X253862874Y-91845754D01*
X253830119Y-91894132D01*
X253797518Y-91942426D01*
X253765069Y-91990637D01*
X253732773Y-92038764D01*
X253700629Y-92086808D01*
X253668637Y-92134767D01*
X253636797Y-92182643D01*
X253605109Y-92230434D01*
X253573573Y-92278142D01*
X253542188Y-92325765D01*
X253510954Y-92373303D01*
X253479871Y-92420757D01*
X253448939Y-92468127D01*
X253418158Y-92515411D01*
X253387527Y-92562611D01*
X253357046Y-92609726D01*
X253326716Y-92656756D01*
X253296535Y-92703700D01*
X253266505Y-92750559D01*
X253236623Y-92797332D01*
X253206892Y-92844020D01*
X253177309Y-92890622D01*
X253147876Y-92937138D01*
X253118591Y-92983568D01*
X253089455Y-93029912D01*
X253060468Y-93076170D01*
X253031629Y-93122341D01*
X253002938Y-93168426D01*
X252974395Y-93214424D01*
X252946000Y-93260335D01*
X252917753Y-93306159D01*
X252889652Y-93351896D01*
X252861700Y-93397545D01*
X252833894Y-93443108D01*
X252806235Y-93488582D01*
X252778723Y-93533969D01*
X252751358Y-93579268D01*
X252724139Y-93624479D01*
X252697066Y-93669602D01*
X252670139Y-93714637D01*
X252643358Y-93759583D01*
X252616722Y-93804441D01*
X252590233Y-93849209D01*
X252563888Y-93893889D01*
X252537689Y-93938480D01*
X252511634Y-93982981D01*
X252485725Y-94027393D01*
X252459960Y-94071716D01*
X252434339Y-94115948D01*
X252408863Y-94160091D01*
X252383531Y-94204144D01*
X252358343Y-94248106D01*
X252333299Y-94291978D01*
X252308398Y-94335759D01*
X252283640Y-94379449D01*
X252259026Y-94423049D01*
X252234555Y-94466557D01*
X252210227Y-94509974D01*
X252186042Y-94553299D01*
X252161999Y-94596533D01*
X252138098Y-94639674D01*
X252114340Y-94682724D01*
X252090724Y-94725681D01*
X252067250Y-94768546D01*
X252043917Y-94811318D01*
X252020726Y-94853997D01*
X251997676Y-94896583D01*
X251974768Y-94939076D01*
X251952000Y-94981475D01*
X251929374Y-95023780D01*
X251906888Y-95065991D01*
X251884542Y-95108109D01*
X251862337Y-95150131D01*
X251840272Y-95192060D01*
X251818348Y-95233893D01*
X251796563Y-95275631D01*
X251774917Y-95317274D01*
X251753412Y-95358822D01*
X251732045Y-95400273D01*
X251710818Y-95441629D01*
X251689730Y-95482888D01*
X251668781Y-95524051D01*
X251647970Y-95565118D01*
X251627298Y-95606087D01*
X251606764Y-95646959D01*
X251586369Y-95687733D01*
X251566111Y-95728410D01*
X251545992Y-95768989D01*
X251526010Y-95809469D01*
X251506166Y-95849851D01*
X251486459Y-95890134D01*
X251466889Y-95930318D01*
X251447456Y-95970403D01*
X251428161Y-96010388D01*
X251409002Y-96050273D01*
X251389979Y-96090058D01*
X251371093Y-96129742D01*
X251352344Y-96169326D01*
X251333730Y-96208808D01*
X251315252Y-96248189D01*
X251296910Y-96287468D01*
X251278704Y-96326645D01*
X251260633Y-96365720D01*
X251242698Y-96404692D01*
X251224897Y-96443561D01*
X251207232Y-96482327D01*
X251189702Y-96520989D01*
X251172306Y-96559547D01*
X251155044Y-96598000D01*
X251137917Y-96636349D01*
X251120925Y-96674593D01*
X251104066Y-96712731D01*
X251087341Y-96750764D01*
X251070750Y-96788690D01*
X251054292Y-96826510D01*
X251037968Y-96864222D01*
X251021778Y-96901828D01*
X251005720Y-96939325D01*
X250989795Y-96976715D01*
X250974003Y-97013996D01*
X250958344Y-97051168D01*
X250942818Y-97088231D01*
X250927423Y-97125183D01*
X250912161Y-97162026D01*
X250897031Y-97198758D01*
X250882033Y-97235379D01*
X250867167Y-97271888D01*
X250852432Y-97308285D01*
X250837829Y-97344570D01*
X250823357Y-97380741D01*
X250809016Y-97416800D01*
X250794806Y-97452744D01*
X250780727Y-97488574D01*
X250766779Y-97524289D01*
X250752962Y-97559888D01*
X250739274Y-97595371D01*
X250725718Y-97630738D01*
X250712291Y-97665988D01*
X250698994Y-97701120D01*
X250685827Y-97736134D01*
X250672790Y-97771029D01*
X250659883Y-97805804D01*
X250647105Y-97840460D01*
X250634456Y-97874995D01*
X250621936Y-97909409D01*
X250609546Y-97943701D01*
X250597284Y-97977871D01*
X250585151Y-98011918D01*
X250573146Y-98045841D01*
X250561270Y-98079639D01*
X250549522Y-98113312D01*
X250537903Y-98146860D01*
X250526411Y-98180281D01*
X250515048Y-98213574D01*
X250503812Y-98246740D01*
X250492703Y-98279777D01*
X250481722Y-98312684D01*
X250470869Y-98345461D01*
X250460143Y-98378106D01*
X250449544Y-98410620D01*
X250439071Y-98443001D01*
X250428726Y-98475248D01*
X250418507Y-98507360D01*
X250408415Y-98539337D01*
X250398449Y-98571178D01*
X250388610Y-98602881D01*
X250378896Y-98634446D01*
X250369309Y-98665872D01*
X250359848Y-98697157D01*
X250350512Y-98728301D01*
X250341302Y-98759303D01*
X250332218Y-98790161D01*
X250323258Y-98820874D01*
X250314425Y-98851442D01*
X250305716Y-98881863D01*
X250297132Y-98912136D01*
X250288673Y-98942259D01*
X250280339Y-98972232D01*
X250272130Y-99002053D01*
X250264045Y-99031721D01*
X250256084Y-99061234D01*
X250248248Y-99090591D01*
X250240536Y-99119791D01*
X250232948Y-99148832D01*
X250225484Y-99177713D01*
X250218144Y-99206432D01*
X250210927Y-99234987D01*
X250203834Y-99263377D01*
X250196864Y-99291600D01*
X250190018Y-99319655D01*
X250183295Y-99347539D01*
X250176695Y-99375250D01*
X250170217Y-99402787D01*
X250163863Y-99430148D01*
X250157632Y-99457331D01*
X250151523Y-99484333D01*
X250145537Y-99511152D01*
X250139673Y-99537787D01*
X250133931Y-99564234D01*
X250128312Y-99590491D01*
X250122815Y-99616555D01*
X250117440Y-99642425D01*
X250112186Y-99668097D01*
X250107055Y-99693568D01*
X250102045Y-99718836D01*
X250097156Y-99743896D01*
X250092389Y-99768747D01*
X250087744Y-99793384D01*
X250083220Y-99817804D01*
X250078816Y-99842004D01*
X250074534Y-99865979D01*
X250070373Y-99889725D01*
X250066333Y-99913239D01*
X250062413Y-99936515D01*
X250058614Y-99959549D01*
X250054936Y-99982336D01*
X250051378Y-100004871D01*
X250047940Y-100027147D01*
X250044623Y-100049160D01*
X250041426Y-100070903D01*
X250038348Y-100092369D01*
X250035391Y-100113550D01*
X250032554Y-100134441D01*
X250029836Y-100155031D01*
X250027238Y-100175313D01*
X250024759Y-100195277D01*
X250022400Y-100214912D01*
X250020160Y-100234208D01*
X250018039Y-100253152D01*
X250016038Y-100271731D01*
X250014155Y-100289930D01*
X250012391Y-100307733D01*
X250010746Y-100325122D01*
X250009220Y-100342076D01*
X250007811Y-100358572D01*
X250006521Y-100374584D01*
X250005349Y-100390080D01*
X250004295Y-100405025D01*
X250003358Y-100419376D01*
X250002539Y-100433080D01*
X250001836Y-100446073D01*
X250001249Y-100458269D01*
X250000778Y-100469557D01*
X250000421Y-100479773D01*
X250000177Y-100488662D01*
X250000040Y-100495756D01*
X250000000Y-100500000D01*
X258492631Y-70977925D02*
X258471846Y-70941503D01*
X258451148Y-70905071D01*
X258430535Y-70868628D01*
X258410008Y-70832174D01*
X258389566Y-70795709D01*
X258369210Y-70759233D01*
X258348940Y-70722747D01*
X258328755Y-70686249D01*
X258308655Y-70649741D01*
X258288640Y-70613222D01*
X258268711Y-70576692D01*
X258248867Y-70540151D01*
X258229107Y-70503599D01*
X258209433Y-70467036D01*
X258189843Y-70430462D01*
X258170339Y-70393877D01*
X258150919Y-70357281D01*
X258131583Y-70320674D01*
X258112332Y-70284056D01*
X258093166Y-70247427D01*
X258074084Y-70210786D01*
X258055086Y-70174135D01*
X258036173Y-70137472D01*
X258017343Y-70100798D01*
X257998598Y-70064113D01*
X257979937Y-70027417D01*
X257961360Y-69990710D01*
X257942866Y-69953991D01*
X257924457Y-69917261D01*
X257906131Y-69880520D01*
X257887889Y-69843768D01*
X257869731Y-69807004D01*
X257851656Y-69770229D01*
X257833664Y-69733442D01*
X257815756Y-69696644D01*
X257797931Y-69659835D01*
X257780190Y-69623014D01*
X257762532Y-69586182D01*
X257744956Y-69549338D01*
X257727464Y-69512483D01*
X257710055Y-69475616D01*
X257692729Y-69438738D01*
X257675486Y-69401848D01*
X257658326Y-69364947D01*
X257641248Y-69328034D01*
X257624253Y-69291109D01*
X257607341Y-69254173D01*
X257590511Y-69217225D01*
X257573764Y-69180266D01*
X257557099Y-69143295D01*
X257540516Y-69106312D01*
X257524016Y-69069317D01*
X257507598Y-69032310D01*
X257491263Y-68995292D01*
X257475009Y-68958262D01*
X257458838Y-68921220D01*
X257442749Y-68884166D01*
X257426741Y-68847101D01*
X257410816Y-68810023D01*
X257394972Y-68772934D01*
X257379210Y-68735832D01*
X257363530Y-68698719D01*
X257347932Y-68661593D01*
X257332415Y-68624456D01*
X257316980Y-68587307D01*
X257301627Y-68550145D01*
X257286354Y-68512972D01*
X257271164Y-68475786D01*
X257256055Y-68438588D01*
X257241027Y-68401378D01*
X257226080Y-68364156D01*
X257211215Y-68326922D01*
X257196430Y-68289676D01*
X257181727Y-68252417D01*
X257167105Y-68215146D01*
X257152564Y-68177863D01*
X257138105Y-68140568D01*
X257123726Y-68103260D01*
X257109427Y-68065940D01*
X257095210Y-68028607D01*
X257081074Y-67991263D01*
X257067018Y-67953905D01*
X257053043Y-67916536D01*
X257039149Y-67879154D01*
X257025335Y-67841759D01*
X257011602Y-67804352D01*
X256997950Y-67766932D01*
X256984378Y-67729500D01*
X256970886Y-67692056D01*
X256957475Y-67654598D01*
X256944144Y-67617129D01*
X256930894Y-67579646D01*
X256917724Y-67542151D01*
X256904634Y-67504643D01*
X256891624Y-67467123D01*
X256878695Y-67429590D01*
X256865845Y-67392044D01*
X256853076Y-67354485D01*
X256840387Y-67316914D01*
X256827778Y-67279330D01*
X256815249Y-67241733D01*
X256802800Y-67204123D01*
X256790430Y-67166500D01*
X256778141Y-67128865D01*
X256765932Y-67091216D01*
X256753802Y-67053555D01*
X256741752Y-67015881D01*
X256729782Y-66978194D01*
X256717892Y-66940493D01*
X256706081Y-66902780D01*
X256694350Y-66865054D01*
X256682699Y-66827315D01*
X256671127Y-66789562D01*
X256659635Y-66751797D01*
X256648223Y-66714018D01*
X256636890Y-66676227D01*
X256625636Y-66638422D01*
X256614462Y-66600604D01*
X256603368Y-66562773D01*
X256592352Y-66524929D01*
X256581416Y-66487071D01*
X256570560Y-66449201D01*
X256559783Y-66411317D01*
X256549085Y-66373420D01*
X256538467Y-66335509D01*
X256527927Y-66297585D01*
X256517467Y-66259648D01*
X256507087Y-66221698D01*
X256496785Y-66183734D01*
X256486563Y-66145756D01*
X256476419Y-66107766D01*
X256466355Y-66069762D01*
X256456370Y-66031744D01*
X256446464Y-65993713D01*
X256436637Y-65955669D01*
X256426890Y-65917611D01*
X256417221Y-65879540D01*
X256407631Y-65841455D01*
X256398120Y-65803356D01*
X256388689Y-65765244D01*
X256379336Y-65727119D01*
X256370062Y-65688980D01*
X256360867Y-65650827D01*
X256351751Y-65612661D01*
X256342714Y-65574481D01*
X256333756Y-65536287D01*
X256324877Y-65498080D01*
X256316077Y-65459859D01*
X256307355Y-65421624D01*
X256298712Y-65383376D01*
X256290148Y-65345114D01*
X256281663Y-65306838D01*
X256273257Y-65268549D01*
X256264930Y-65230246D01*
X256256681Y-65191929D01*
X256248511Y-65153598D01*
X256240420Y-65115253D01*
X256232408Y-65076895D01*
X256224474Y-65038523D01*
X256216619Y-65000137D01*
X256208843Y-64961737D01*
X256201146Y-64923323D01*
X256193527Y-64884896D01*
X256185987Y-64846454D01*
X256178526Y-64807999D01*
X256171143Y-64769530D01*
X256163840Y-64731047D01*
X256156614Y-64692550D01*
X256149468Y-64654039D01*
X256142400Y-64615514D01*
X256135411Y-64576976D01*
X256128501Y-64538423D01*
X256121669Y-64499857D01*
X256114916Y-64461276D01*
X256108242Y-64422681D01*
X256101646Y-64384073D01*
X256095129Y-64345451D01*
X256088691Y-64306814D01*
X256082332Y-64268164D01*
X256076051Y-64229499D01*
X256069848Y-64190821D01*
X256063725Y-64152129D01*
X256057680Y-64113422D01*
X256051714Y-64074702D01*
X256045827Y-64035968D01*
X256040018Y-63997219D01*
X256034288Y-63958457D01*
X256028636Y-63919681D01*
X256023064Y-63880890D01*
X256017570Y-63842086D01*
X256012155Y-63803268D01*
X256006818Y-63764435D01*
X256001560Y-63725589D01*
X255996381Y-63686728D01*
X255991281Y-63647854D01*
X255986260Y-63608966D01*
X255981317Y-63570063D01*
X255976453Y-63531147D01*
X255971668Y-63492216D01*
X255966961Y-63453272D01*
X255962334Y-63414314D01*
X255957785Y-63375341D01*
X255953315Y-63336355D01*
X255948924Y-63297355D01*
X255944611Y-63258340D01*
X255940378Y-63219312D01*
X255936223Y-63180270D01*
X255932147Y-63141214D01*
X255928150Y-63102144D01*
X255924232Y-63063060D01*
X255920393Y-63023962D01*
X255916633Y-62984850D01*
X255912952Y-62945724D01*
X255909350Y-62906585D01*
X255905826Y-62867432D01*
X255902382Y-62828264D01*
X255899017Y-62789083D01*
X255895730Y-62749888D01*
X255892523Y-62710680D01*
X255889395Y-62671457D01*
X255886345Y-62632221D01*
X255883375Y-62592971D01*
X255880484Y-62553707D01*
X255877672Y-62514429D01*
X255874939Y-62475138D01*
X255872286Y-62435833D01*
X255869711Y-62396515D01*
X255867216Y-62357182D01*
X255864800Y-62317837D01*
X255862463Y-62278477D01*
X255860205Y-62239104D01*
X255858026Y-62199718D01*
X255855927Y-62160318D01*
X255853907Y-62120904D01*
X255851967Y-62081477D01*
X255850105Y-62042036D01*
X255848323Y-62002583D01*
X255846621Y-61963115D01*
X255844998Y-61923635D01*
X255843454Y-61884141D01*
X255841989Y-61844633D01*
X255840605Y-61805113D01*
X255839299Y-61765579D01*
X255838073Y-61726032D01*
X255836927Y-61686472D01*
X255835860Y-61646899D01*
X255834873Y-61607312D01*
X255833965Y-61567713D01*
X255833137Y-61528100D01*
X255832389Y-61488475D01*
X255831720Y-61448837D01*
X255831131Y-61409185D01*
X255830621Y-61369521D01*
X255830192Y-61329844D01*
X255829842Y-61290155D01*
X255829571Y-61250452D01*
X255829381Y-61210737D01*
X255829271Y-61171010D01*
X255829240Y-61131270D01*
X255829289Y-61091517D01*
X255829418Y-61051752D01*
X255829627Y-61011974D01*
X255829916Y-60972184D01*
X255830285Y-60932382D01*
X255830734Y-60892567D01*
X255831263Y-60852740D01*
X255831872Y-60812902D01*
X255832561Y-60773051D01*
X255833331Y-60733188D01*
X255834180Y-60693313D01*
X255835109Y-60653426D01*
X255836119Y-60613527D01*
X255837209Y-60573617D01*
X255838379Y-60533694D01*
X255839629Y-60493761D01*
X255840960Y-60453815D01*
X255842371Y-60413858D01*
X255843862Y-60373890D01*
X255845434Y-60333910D01*
X255847086Y-60293920D01*
X255848818Y-60253917D01*
X255850631Y-60213904D01*
X255852524Y-60173880D01*
X255854498Y-60133845D01*
X255856553Y-60093799D01*
X255858687Y-60053742D01*
X255860903Y-60013674D01*
X255863199Y-59973596D01*
X255865575Y-59933507D01*
X255868032Y-59893408D01*
X255870570Y-59853298D01*
X255873189Y-59813178D01*
X255875888Y-59773048D01*
X255878668Y-59732908D01*
X255881529Y-59692758D01*
X255884470Y-59652598D01*
X255887492Y-59612429D01*
X255890595Y-59572249D01*
X255893779Y-59532060D01*
X255897044Y-59491862D01*
X255900390Y-59451654D01*
X255903816Y-59411437D01*
X255907324Y-59371211D01*
X255910912Y-59330976D01*
X255914582Y-59290732D01*
X255918332Y-59250479D01*
X255922164Y-59210218D01*
X255926076Y-59169948D01*
X255930070Y-59129670D01*
X255934144Y-59089383D01*
X255938300Y-59049088D01*
X255942537Y-59008785D01*
X255946855Y-58968475D01*
X255951254Y-58928156D01*
X255955734Y-58887830D01*
X255960295Y-58847497D01*
X255964938Y-58807156D01*
X255969662Y-58766808D01*
X255974467Y-58726452D01*
X255979353Y-58686090D01*
X255984321Y-58645722D01*
X255989369Y-58605346D01*
X255994499Y-58564964D01*
X255999711Y-58524576D01*
X256005003Y-58484182D01*
X256010377Y-58443782D01*
X256015832Y-58403376D01*
X256021369Y-58362964D01*
X256026987Y-58322547D01*
X256032686Y-58282125D01*
X256038467Y-58241698D01*
X256044329Y-58201266D01*
X256050272Y-58160829D01*
X256056297Y-58120387D01*
X256062403Y-58079941D01*
X256068590Y-58039491D01*
X256074859Y-57999037D01*
X256081209Y-57958579D01*
X256087641Y-57918118D01*
X256094154Y-57877654D01*
X256100748Y-57837186D01*
X256107423Y-57796715D01*
X256114180Y-57756242D01*
X256121019Y-57715766D01*
X256127938Y-57675287D01*
X256134939Y-57634807D01*
X256142022Y-57594325D01*
X256149185Y-57553841D01*
X256156430Y-57513356D01*
X256163757Y-57472870D01*
X256171164Y-57432383D01*
X256178653Y-57391895D01*
X256186223Y-57351407D01*
X256193874Y-57310919D01*
X256201607Y-57270431D01*
X256209420Y-57229943D01*
X256217315Y-57189456D01*
X256225291Y-57148970D01*
X256233348Y-57108486D01*
X256241486Y-57068002D01*
X256249705Y-57027521D01*
X256258005Y-56987042D01*
X256266387Y-56946565D01*
X256274849Y-56906090D01*
X256283392Y-56865619D01*
X256292016Y-56825151D01*
X256300720Y-56784686D01*
X256309506Y-56744226D01*
X256318372Y-56703770D01*
X256327319Y-56663318D01*
X256336346Y-56622871D01*
X256345454Y-56582430D01*
X256354643Y-56541994D01*
X256363912Y-56501564D01*
X256373262Y-56461140D01*
X256382692Y-56420724D01*
X256392202Y-56380314D01*
X256401792Y-56339911D01*
X256411463Y-56299517D01*
X256421213Y-56259130D01*
X256431044Y-56218752D01*
X256440954Y-56178384D01*
X256450945Y-56138024D01*
X256461015Y-56097675D01*
X256471165Y-56057335D01*
X256481394Y-56017006D01*
X256491703Y-55976689D01*
X256502091Y-55936383D01*
X256512559Y-55896089D01*
X256523105Y-55855807D01*
X256533731Y-55815539D01*
X256544436Y-55775283D01*
X256555219Y-55735042D01*
X256566082Y-55694815D01*
X256577022Y-55654603D01*
X256588042Y-55614406D01*
X256599139Y-55574225D01*
X256610315Y-55534061D01*
X256621569Y-55493913D01*
X256632901Y-55453784D01*
X256644311Y-55413672D01*
X256655798Y-55373578D01*
X256667362Y-55333504D01*
X256679004Y-55293450D01*
X256690723Y-55253416D01*
X256702519Y-55213403D01*
X256714392Y-55173412D01*
X256726341Y-55133443D01*
X256738367Y-55093497D01*
X256750469Y-55053574D01*
X256762647Y-55013676D01*
X256774900Y-54973802D01*
X256787229Y-54933954D01*
X256799634Y-54894132D01*
X256812113Y-54854338D01*
X256824668Y-54814571D01*
X256837297Y-54774832D01*
X256850000Y-54735122D01*
X256862777Y-54695443D01*
X256875628Y-54655794D01*
X256888553Y-54616177D01*
X256901551Y-54576592D01*
X256914622Y-54537040D01*
X256927766Y-54497523D01*
X256940982Y-54458040D01*
X256954270Y-54418593D01*
X256967630Y-54379183D01*
X256981061Y-54339810D01*
X256994563Y-54300476D01*
X257008136Y-54261182D01*
X257021779Y-54221928D01*
X257035492Y-54182715D01*
X257049274Y-54143545D01*
X257063126Y-54104419D01*
X257077046Y-54065337D01*
X257091035Y-54026301D01*
X257105091Y-53987312D01*
X257119215Y-53948370D01*
X257133406Y-53909478D01*
X257147663Y-53870636D01*
X257161985Y-53831846D01*
X257176374Y-53793108D01*
X257190827Y-53754424D01*
X257205344Y-53715796D01*
X257219926Y-53677224D01*
X257234570Y-53638711D01*
X257249277Y-53600256D01*
X257264046Y-53561863D01*
X257278876Y-53523531D01*
X257293767Y-53485264D01*
X257308718Y-53447061D01*
X257323728Y-53408926D01*
X257338796Y-53370859D01*
X257353923Y-53332862D01*
X257369106Y-53294937D01*
X257384346Y-53257085D01*
X257399641Y-53219309D01*
X257414990Y-53181610D01*
X257430394Y-53143990D01*
X257445850Y-53106451D01*
X257461358Y-53068995D01*
X257476916Y-53031623D01*
X257492525Y-52994339D01*
X257508182Y-52957144D01*
X257523887Y-52920040D01*
X257539639Y-52883030D01*
X257555436Y-52846116D01*
X257571278Y-52809300D01*
X257587163Y-52772585D01*
X257603089Y-52735974D01*
X257619056Y-52699469D01*
X257635061Y-52663073D01*
X257651105Y-52626788D01*
X257667184Y-52590618D01*
X257683298Y-52554565D01*
X257699445Y-52518633D01*
X257715624Y-52482826D01*
X257731831Y-52447145D01*
X257748067Y-52411595D01*
X257764328Y-52376179D01*
X257780614Y-52340901D01*
X257796921Y-52305764D01*
X257813248Y-52270774D01*
X257829592Y-52235933D01*
X257845952Y-52201247D01*
X257862324Y-52166719D01*
X257878707Y-52132354D01*
X257895096Y-52098158D01*
X257911491Y-52064135D01*
X257927887Y-52030290D01*
X257944283Y-51996630D01*
X257960673Y-51963159D01*
X257977056Y-51929884D01*
X257993427Y-51896812D01*
X258009782Y-51863948D01*
X258026118Y-51831300D01*
X258042431Y-51798876D01*
X258058716Y-51766683D01*
X258074968Y-51734729D01*
X258091182Y-51703024D01*
X258107353Y-51671575D01*
X258123475Y-51640394D01*
X258139542Y-51609490D01*
X258155548Y-51578875D01*
X258171485Y-51548560D01*
X258187346Y-51518559D01*
X258203123Y-51488884D01*
X258218807Y-51459550D01*
X258234389Y-51430575D01*
X258249858Y-51401973D01*
X258265203Y-51373766D01*
X258280411Y-51345972D01*
X258295469Y-51318614D01*
X258310362Y-51291718D01*
X258325073Y-51265312D01*
X258339582Y-51239425D01*
X258353869Y-51214093D01*
X258367908Y-51189356D01*
X258381673Y-51165259D01*
X258395128Y-51141856D01*
X258408237Y-51119210D01*
X258420951Y-51097394D01*
X258433213Y-51076503D01*
X258444950Y-51056652D01*
X258456066Y-51037994D01*
X258466430Y-51020739D01*
X258475846Y-51005194D01*
X258483994Y-50991866D01*
X258490229Y-50981773D01*
X258492631Y-50977925D01*
D10*
X250000000Y-30500000D02*
G75*
G02*
X258492631Y-50977925I0J-12000000D01*
G01*
X258492631Y-70977925D02*
X258492631Y-85977925D01*
X130000000Y-124926860D02*
G75*
G02*
X120000000Y-119500000I0J11926860D01*
G01*
D11*
X241514720Y-34014719D02*
X241475578Y-34047734D01*
X241436439Y-34080721D01*
X241397301Y-34113681D01*
X241358165Y-34146613D01*
X241319031Y-34179518D01*
X241279899Y-34212394D01*
X241240768Y-34245244D01*
X241201639Y-34278065D01*
X241162512Y-34310860D01*
X241123387Y-34343626D01*
X241084263Y-34376365D01*
X241045142Y-34409076D01*
X241006022Y-34441760D01*
X240966904Y-34474416D01*
X240927787Y-34507045D01*
X240888673Y-34539646D01*
X240849560Y-34572220D01*
X240810449Y-34604765D01*
X240771339Y-34637284D01*
X240732232Y-34669775D01*
X240693126Y-34702239D01*
X240654022Y-34734675D01*
X240614920Y-34767084D01*
X240575820Y-34799465D01*
X240536721Y-34831820D01*
X240497624Y-34864146D01*
X240458529Y-34896445D01*
X240419436Y-34928717D01*
X240380344Y-34960961D01*
X240341254Y-34993178D01*
X240302166Y-35025368D01*
X240263080Y-35057530D01*
X240223995Y-35089665D01*
X240184913Y-35121772D01*
X240145832Y-35153853D01*
X240106753Y-35185905D01*
X240067675Y-35217931D01*
X240028600Y-35249929D01*
X239989525Y-35281901D01*
X239950453Y-35313844D01*
X239911383Y-35345761D01*
X239872314Y-35377650D01*
X239833247Y-35409512D01*
X239794182Y-35441346D01*
X239755118Y-35473154D01*
X239716057Y-35504934D01*
X239676997Y-35536688D01*
X239637939Y-35568413D01*
X239598882Y-35600112D01*
X239559828Y-35631783D01*
X239520775Y-35663428D01*
X239481724Y-35695045D01*
X239442674Y-35726635D01*
X239403627Y-35758198D01*
X239364581Y-35789734D01*
X239325537Y-35821242D01*
X239286494Y-35852724D01*
X239247454Y-35884179D01*
X239208415Y-35915606D01*
X239169378Y-35947006D01*
X239130342Y-35978380D01*
X239091309Y-36009726D01*
X239052277Y-36041045D01*
X239013247Y-36072337D01*
X238974218Y-36103603D01*
X238935192Y-36134840D01*
X238896166Y-36166052D01*
X238857144Y-36197236D01*
X238818122Y-36228393D01*
X238779102Y-36259523D01*
X238740084Y-36290626D01*
X238701068Y-36321702D01*
X238662053Y-36352752D01*
X238623041Y-36383774D01*
X238584029Y-36414770D01*
X238545020Y-36445738D01*
X238506012Y-36476680D01*
X238467007Y-36507594D01*
X238428002Y-36538482D01*
X238389000Y-36569343D01*
X238349999Y-36600177D01*
X238311001Y-36630984D01*
X238272003Y-36661765D01*
X238233008Y-36692518D01*
X238194014Y-36723245D01*
X238155022Y-36753945D01*
X238116031Y-36784618D01*
X238077043Y-36815264D01*
X238038056Y-36845884D01*
X237999071Y-36876477D01*
X237960087Y-36907043D01*
X237921106Y-36937582D01*
X237882125Y-36968095D01*
X237843147Y-36998580D01*
X237804170Y-37029040D01*
X237765196Y-37059471D01*
X237726222Y-37089877D01*
X237687251Y-37120256D01*
X237648281Y-37150609D01*
X237609314Y-37180934D01*
X237570347Y-37211233D01*
X237531383Y-37241505D01*
X237492419Y-37271751D01*
X237453459Y-37301969D01*
X237414499Y-37332162D01*
X237375541Y-37362327D01*
X237336585Y-37392467D01*
X237297631Y-37422579D01*
X237258678Y-37452665D01*
X237219727Y-37482724D01*
X237180777Y-37512757D01*
X237141830Y-37542763D01*
X237102884Y-37572743D01*
X237063940Y-37602696D01*
X237024997Y-37632623D01*
X236986057Y-37662522D01*
X236947117Y-37692396D01*
X236908181Y-37722243D01*
X236869244Y-37752064D01*
X236830311Y-37781857D01*
X236791378Y-37811625D01*
X236752448Y-37841366D01*
X236713518Y-37871081D01*
X236674592Y-37900769D01*
X236635666Y-37930431D01*
X236596742Y-37960066D01*
X236557820Y-37989675D01*
X236518900Y-38019257D01*
X236479980Y-38048814D01*
X236441064Y-38078343D01*
X236402148Y-38107847D01*
X236363235Y-38137324D01*
X236324322Y-38166775D01*
X236285412Y-38196199D01*
X236246503Y-38225597D01*
X236207596Y-38254968D01*
X236168690Y-38284314D01*
X236129787Y-38313632D01*
X236090885Y-38342926D01*
X236051985Y-38372192D01*
X236013086Y-38401432D01*
X235974189Y-38430646D01*
X235935293Y-38459834D01*
X235896400Y-38488994D01*
X235857508Y-38518130D01*
X235818618Y-38547238D01*
X235779729Y-38576322D01*
X235740842Y-38605378D01*
X235701957Y-38634408D01*
X235663073Y-38663412D01*
X235624191Y-38692390D01*
X235585311Y-38721341D01*
X235546432Y-38750267D01*
X235507555Y-38779166D01*
X235468679Y-38808040D01*
X235429806Y-38836886D01*
X235390934Y-38865708D01*
X235352064Y-38894502D01*
X235313195Y-38923271D01*
X235274328Y-38952013D01*
X235235462Y-38980730D01*
X235196599Y-39009420D01*
X235157736Y-39038085D01*
X235118876Y-39066723D01*
X235080017Y-39095336D01*
X235041160Y-39123921D01*
X235002304Y-39152482D01*
X234963451Y-39181016D01*
X234924598Y-39209524D01*
X234885748Y-39238006D01*
X234846899Y-39266463D01*
X234808052Y-39294892D01*
X234769206Y-39323297D01*
X234730362Y-39351675D01*
X234691519Y-39380027D01*
X234652679Y-39408353D01*
X234613839Y-39436654D01*
X234575002Y-39464928D01*
X234536166Y-39493177D01*
X234497332Y-39521399D01*
X234458499Y-39549596D01*
X234419669Y-39577766D01*
X234380839Y-39605912D01*
X234342012Y-39634030D01*
X234303185Y-39662124D01*
X234264361Y-39690191D01*
X234225538Y-39718233D01*
X234186717Y-39746248D01*
X234147897Y-39774238D01*
X234109080Y-39802202D01*
X234070262Y-39830140D01*
X234031448Y-39858052D01*
X233992635Y-39885939D01*
X233953824Y-39913799D01*
X233915013Y-39941635D01*
X233876206Y-39969444D01*
X233837398Y-39997228D01*
X233798594Y-40024985D01*
X233759790Y-40052717D01*
X233720989Y-40080423D01*
X233682188Y-40108104D01*
X233643390Y-40135759D01*
X233604592Y-40163388D01*
X233565798Y-40190991D01*
X233527003Y-40218569D01*
X233488212Y-40246121D01*
X233449420Y-40273648D01*
X233410632Y-40301148D01*
X233371844Y-40328624D01*
X233333059Y-40356073D01*
X233294274Y-40383497D01*
X233255492Y-40410895D01*
X233216710Y-40438268D01*
X233177932Y-40465615D01*
X233139153Y-40492937D01*
X233100378Y-40520232D01*
X233061602Y-40547503D01*
X233022830Y-40574747D01*
X232984058Y-40601967D01*
X232945288Y-40629160D01*
X232906519Y-40656329D01*
X232867753Y-40683471D01*
X232828988Y-40710589D01*
X232790225Y-40737680D01*
X232751462Y-40764746D01*
X232712702Y-40791786D01*
X232673943Y-40818802D01*
X232635186Y-40845791D01*
X232596430Y-40872756D01*
X232557677Y-40899694D01*
X232518923Y-40926608D01*
X232480173Y-40953495D01*
X232441423Y-40980358D01*
X232402676Y-41007194D01*
X232363929Y-41034007D01*
X232325185Y-41060792D01*
X232286441Y-41087554D01*
X232247701Y-41114288D01*
X232208960Y-41140999D01*
X232170222Y-41167683D01*
X232131485Y-41194343D01*
X232092750Y-41220976D01*
X232054016Y-41247586D01*
X232015284Y-41274168D01*
X231976553Y-41300727D01*
X231937824Y-41327259D01*
X231899096Y-41353767D01*
X231860371Y-41380249D01*
X231821646Y-41406706D01*
X231782924Y-41433137D01*
X231744202Y-41459544D01*
X231705483Y-41485924D01*
X231666764Y-41512280D01*
X231628048Y-41538610D01*
X231589332Y-41564916D01*
X231550619Y-41591196D01*
X231511906Y-41617451D01*
X231473196Y-41643680D01*
X231434487Y-41669885D01*
X231395780Y-41696064D01*
X231357073Y-41722219D01*
X231318370Y-41748347D01*
X231279666Y-41774451D01*
X231240966Y-41800530D01*
X231202265Y-41826584D01*
X231163567Y-41852611D01*
X231124870Y-41878615D01*
X231086176Y-41904593D01*
X231047481Y-41930546D01*
X231008790Y-41956474D01*
X230970098Y-41982377D01*
X230931410Y-42008254D01*
X230892721Y-42034107D01*
X230854036Y-42059935D01*
X230815351Y-42085738D01*
X230776669Y-42111515D01*
X230737986Y-42137268D01*
X230699307Y-42162994D01*
X230660628Y-42188697D01*
X230621952Y-42214374D01*
X230583275Y-42240027D01*
X230544602Y-42265654D01*
X230505929Y-42291257D01*
X230467259Y-42316834D01*
X230428588Y-42342387D01*
X230389921Y-42367914D01*
X230351254Y-42393417D01*
X230312590Y-42418894D01*
X230273925Y-42444348D01*
X230235264Y-42469775D01*
X230196603Y-42495178D01*
X230157945Y-42520556D01*
X230119286Y-42545909D01*
X230080631Y-42571237D01*
X230041976Y-42596541D01*
X230003324Y-42621819D01*
X229964671Y-42647073D01*
X229926022Y-42672301D01*
X229887373Y-42697505D01*
X229848726Y-42722684D01*
X229810080Y-42747839D01*
X229771437Y-42772967D01*
X229732793Y-42798073D01*
X229694153Y-42823152D01*
X229655512Y-42848207D01*
X229616875Y-42873237D01*
X229578237Y-42898243D01*
X229539603Y-42923223D01*
X229500968Y-42948179D01*
X229462337Y-42973110D01*
X229423705Y-42998017D01*
X229385076Y-43022898D01*
X229346447Y-43047756D01*
X229307822Y-43072587D01*
X229269196Y-43097395D01*
X229230573Y-43122177D01*
X229191950Y-43146936D01*
X229153330Y-43171669D01*
X229114710Y-43196378D01*
X229076093Y-43221062D01*
X229037476Y-43245722D01*
X228998862Y-43270356D01*
X228960248Y-43294967D01*
X228921637Y-43319552D01*
X228883025Y-43344113D01*
X228844417Y-43368649D01*
X228805809Y-43393161D01*
X228767203Y-43417647D01*
X228728598Y-43442111D01*
X228689995Y-43466548D01*
X228651392Y-43490962D01*
X228612793Y-43515350D01*
X228574193Y-43539715D01*
X228535596Y-43564054D01*
X228496999Y-43588369D01*
X228458406Y-43612659D01*
X228419811Y-43636926D01*
X228381220Y-43661167D01*
X228342629Y-43685384D01*
X228304041Y-43709576D01*
X228265452Y-43733745D01*
X228226867Y-43757888D01*
X228188282Y-43782008D01*
X228149699Y-43806102D01*
X228111116Y-43830172D01*
X228072537Y-43854217D01*
X228033957Y-43878239D01*
X227995380Y-43902235D01*
X227956803Y-43926208D01*
X227918229Y-43950156D01*
X227879654Y-43974080D01*
X227841083Y-43997979D01*
X227802512Y-44021854D01*
X227763944Y-44045704D01*
X227725375Y-44069530D01*
X227686809Y-44093331D01*
X227648243Y-44117109D01*
X227609681Y-44140862D01*
X227571117Y-44164591D01*
X227532557Y-44188294D01*
X227493997Y-44211975D01*
X227455440Y-44235630D01*
X227416882Y-44259262D01*
X227378328Y-44282868D01*
X227339773Y-44306452D01*
X227301222Y-44330009D01*
X227262669Y-44353544D01*
X227224121Y-44377053D01*
X227185571Y-44400540D01*
X227147025Y-44424000D01*
X227108478Y-44447438D01*
X227069935Y-44470850D01*
X227031391Y-44494240D01*
X226992851Y-44517604D01*
X226954310Y-44540944D01*
X226915772Y-44564260D01*
X226877233Y-44587552D01*
X226838698Y-44610819D01*
X226800163Y-44634063D01*
X226761630Y-44657282D01*
X226723097Y-44680478D01*
X226684568Y-44703648D01*
X226646038Y-44726796D01*
X226607511Y-44749918D01*
X226568983Y-44773017D01*
X226530459Y-44796091D01*
X226491934Y-44819142D01*
X226453413Y-44842167D01*
X226414890Y-44865170D01*
X226376372Y-44888147D01*
X226337852Y-44911102D01*
X226299336Y-44934031D01*
X226260819Y-44956938D01*
X226222306Y-44979819D01*
X226183792Y-45002677D01*
X226145281Y-45025510D01*
X226106770Y-45048320D01*
X226068262Y-45071105D01*
X226029753Y-45093867D01*
X225991247Y-45116604D01*
X225952741Y-45139318D01*
X225914239Y-45162007D01*
X225875735Y-45184673D01*
X225837235Y-45207314D01*
X225798734Y-45229933D01*
X225760237Y-45252526D01*
X225721738Y-45275096D01*
X225683244Y-45297641D01*
X225644748Y-45320163D01*
X225606256Y-45342661D01*
X225567763Y-45365135D01*
X225529273Y-45387585D01*
X225490783Y-45410011D01*
X225452296Y-45432413D01*
X225413808Y-45454792D01*
X225375324Y-45477146D01*
X225336839Y-45499477D01*
X225298357Y-45521783D01*
X225259874Y-45544066D01*
X225221395Y-45566325D01*
X225182915Y-45588560D01*
X225144439Y-45610771D01*
X225105961Y-45632959D01*
X225067487Y-45655122D01*
X225029012Y-45677262D01*
X224990541Y-45699378D01*
X224952069Y-45721471D01*
X224913600Y-45743538D01*
X224875130Y-45765584D01*
X224836664Y-45787604D01*
X224798197Y-45809601D01*
X224759733Y-45831574D01*
X224721269Y-45853524D01*
X224682807Y-45875449D01*
X224644345Y-45897352D01*
X224605887Y-45919230D01*
X224567427Y-45941085D01*
X224528971Y-45962915D01*
X224490514Y-45984723D01*
X224452061Y-46006506D01*
X224413606Y-46028266D01*
X224375155Y-46050002D01*
X224336703Y-46071715D01*
X224298255Y-46093403D01*
X224259805Y-46115069D01*
X224221359Y-46136710D01*
X224182912Y-46158328D01*
X224144469Y-46179921D01*
X224106024Y-46201493D01*
X224067583Y-46223039D01*
X224029141Y-46244563D01*
X223990702Y-46266062D01*
X223952263Y-46287539D01*
X223913827Y-46308990D01*
X223875390Y-46330420D01*
X223836956Y-46351824D01*
X223798521Y-46373207D01*
X223760090Y-46394564D01*
X223721658Y-46415900D01*
X223683230Y-46437210D01*
X223644800Y-46458498D01*
X223606374Y-46479761D01*
X223567946Y-46501003D01*
X223529523Y-46522219D01*
X223491098Y-46543413D01*
X223452676Y-46564582D01*
X223414254Y-46585729D01*
X223375835Y-46606852D01*
X223337415Y-46627952D01*
X223298999Y-46649027D01*
X223260581Y-46670080D01*
X223222167Y-46691109D01*
X223183752Y-46712115D01*
X223145340Y-46733096D01*
X223106927Y-46754056D01*
X223068518Y-46774990D01*
X223030107Y-46795903D01*
X222991701Y-46816791D01*
X222953293Y-46837656D01*
X222914888Y-46858497D01*
X222876482Y-46879316D01*
X222838080Y-46900110D01*
X222799677Y-46920883D01*
X222761277Y-46941630D01*
X222722876Y-46962355D01*
X222684479Y-46983056D01*
X222646080Y-47003735D01*
X222607685Y-47024389D01*
X222569289Y-47045021D01*
X222530897Y-47065628D01*
X222492502Y-47086214D01*
X222454112Y-47106774D01*
X222415721Y-47127313D01*
X222377333Y-47147827D01*
X222338943Y-47168319D01*
X222300558Y-47188787D01*
X222262171Y-47209233D01*
X222223787Y-47229654D01*
X222185403Y-47250053D01*
X222147022Y-47270427D01*
X222108639Y-47290780D01*
X222070261Y-47311108D01*
X222031880Y-47331414D01*
X221993504Y-47351695D01*
X221955126Y-47371955D01*
X221916752Y-47392190D01*
X221878377Y-47412403D01*
X221840005Y-47432592D01*
X221801632Y-47452759D01*
X221763262Y-47472901D01*
X221724891Y-47493022D01*
X221686524Y-47513118D01*
X221648155Y-47533192D01*
X221609790Y-47553242D01*
X221571423Y-47573269D01*
X221533061Y-47593273D01*
X221494696Y-47613254D01*
X221456336Y-47633211D01*
X221417974Y-47653147D01*
X221379616Y-47673058D01*
X221341256Y-47692947D01*
X221302900Y-47712812D01*
X221264542Y-47732655D01*
X221226188Y-47752473D01*
X221187833Y-47772270D01*
X221149481Y-47792042D01*
X221111128Y-47811793D01*
X221072778Y-47831519D01*
X221034427Y-47851224D01*
X220996080Y-47870904D01*
X220957731Y-47890562D01*
X220919386Y-47910196D01*
X220881040Y-47929809D01*
X220842697Y-47949397D01*
X220804352Y-47968963D01*
X220766012Y-47988505D01*
X220727669Y-48008026D01*
X220689331Y-48027522D01*
X220650990Y-48046996D01*
X220612654Y-48066446D01*
X220574316Y-48085875D01*
X220535982Y-48105279D01*
X220497646Y-48124662D01*
X220459314Y-48144020D01*
X220420980Y-48163357D01*
X220382650Y-48182669D01*
X220344319Y-48201960D01*
X220305991Y-48221227D01*
X220267661Y-48240472D01*
X220229336Y-48259692D01*
X220191008Y-48278892D01*
X220152685Y-48298067D01*
X220114359Y-48317220D01*
X220076038Y-48336349D01*
X220037714Y-48355457D01*
X219999395Y-48374541D01*
X219961074Y-48393603D01*
X219922757Y-48412640D01*
X219884437Y-48431657D01*
X219846122Y-48450649D01*
X219807805Y-48469619D01*
X219769492Y-48488566D01*
X219731177Y-48507491D01*
X219692866Y-48526392D01*
X219654553Y-48545271D01*
X219616244Y-48564126D01*
X219577933Y-48582960D01*
X219539626Y-48601770D01*
X219501317Y-48620558D01*
X219463012Y-48639322D01*
X219424706Y-48658065D01*
X219386403Y-48676784D01*
X219348098Y-48695481D01*
X219309797Y-48714154D01*
X219271494Y-48732806D01*
X219233195Y-48751434D01*
X219194894Y-48770040D01*
X219156598Y-48788622D01*
X219118299Y-48807183D01*
X219080004Y-48825720D01*
X219041707Y-48844235D01*
X219003414Y-48862727D01*
X218965119Y-48881197D01*
X218926828Y-48899643D01*
X218888535Y-48918068D01*
X218850247Y-48936469D01*
X218773669Y-48973204D01*
X218697095Y-49009848D01*
X218620525Y-49046402D01*
X218543958Y-49082865D01*
X218467396Y-49119238D01*
X218390838Y-49155521D01*
X218314283Y-49191713D01*
X218237732Y-49227815D01*
X218161185Y-49263827D01*
X218084641Y-49299749D01*
X218008102Y-49335580D01*
X217931566Y-49371322D01*
X217855034Y-49406974D01*
X217778506Y-49442535D01*
X217701981Y-49478007D01*
X217625460Y-49513389D01*
X217548942Y-49548681D01*
X217472429Y-49583883D01*
X217395919Y-49618996D01*
X217319412Y-49654019D01*
X217242909Y-49688953D01*
X217166410Y-49723797D01*
X217089914Y-49758551D01*
X217013422Y-49793216D01*
X216936933Y-49827792D01*
X216860448Y-49862278D01*
X216783966Y-49896675D01*
X216707488Y-49930983D01*
X216631013Y-49965201D01*
X216554542Y-49999330D01*
X216478074Y-50033371D01*
X216401609Y-50067322D01*
X216325148Y-50101184D01*
X216248690Y-50134958D01*
X216172235Y-50168642D01*
X216095784Y-50202238D01*
X216019336Y-50235744D01*
X215942892Y-50269162D01*
X215866451Y-50302492D01*
X215790013Y-50335732D01*
X215713578Y-50368884D01*
X215637146Y-50401948D01*
X215560718Y-50434923D01*
X215484293Y-50467809D01*
X215407871Y-50500607D01*
X215331452Y-50533317D01*
X215255036Y-50565938D01*
X215178624Y-50598471D01*
X215102214Y-50630916D01*
X215025808Y-50663273D01*
X214949404Y-50695542D01*
X214873004Y-50727722D01*
X214796607Y-50759814D01*
X214720213Y-50791819D01*
X214643821Y-50823735D01*
X214567433Y-50855564D01*
X214491048Y-50887304D01*
X214414665Y-50918957D01*
X214338286Y-50950522D01*
X214261909Y-50982000D01*
X214185536Y-51013389D01*
X214109165Y-51044691D01*
X214032797Y-51075906D01*
X213956432Y-51107033D01*
X213880069Y-51138072D01*
X213803710Y-51169024D01*
X213727353Y-51199889D01*
X213650999Y-51230666D01*
X213574648Y-51261356D01*
X213498299Y-51291958D01*
X213421953Y-51322474D01*
X213345610Y-51352902D01*
X213269270Y-51383243D01*
X213192932Y-51413497D01*
X213116597Y-51443664D01*
X213040264Y-51473744D01*
X212963934Y-51503736D01*
X212887606Y-51533642D01*
X212811282Y-51563461D01*
X212734959Y-51593194D01*
X212658639Y-51622839D01*
X212582322Y-51652398D01*
X212506007Y-51681870D01*
X212429695Y-51711255D01*
X212353385Y-51740554D01*
X212277077Y-51769766D01*
X212200772Y-51798891D01*
X212124469Y-51827930D01*
X212048169Y-51856883D01*
X211971871Y-51885749D01*
X211895575Y-51914528D01*
X211819282Y-51943222D01*
X211742990Y-51971829D01*
X211666702Y-52000350D01*
X211590415Y-52028784D01*
X211514131Y-52057133D01*
X211437848Y-52085395D01*
X211361568Y-52113572D01*
X211285291Y-52141662D01*
X211209015Y-52169666D01*
X211132742Y-52197584D01*
X211056470Y-52225416D01*
X210980201Y-52253163D01*
X210903934Y-52280823D01*
X210827669Y-52308398D01*
X210751406Y-52335887D01*
X210675145Y-52363290D01*
X210598886Y-52390608D01*
X210522629Y-52417840D01*
X210446373Y-52444986D01*
X210370120Y-52472047D01*
X210293869Y-52499022D01*
X210217620Y-52525911D01*
X210141372Y-52552716D01*
X210065127Y-52579434D01*
X209988883Y-52606068D01*
X209912641Y-52632616D01*
X209836401Y-52659078D01*
X209760163Y-52685456D01*
X209683927Y-52711748D01*
X209607692Y-52737955D01*
X209531459Y-52764077D01*
X209455228Y-52790114D01*
X209378998Y-52816066D01*
X209302770Y-52841932D01*
X209226544Y-52867714D01*
X209150319Y-52893411D01*
X209074096Y-52919022D01*
X208997875Y-52944549D01*
X208921655Y-52969991D01*
X208845437Y-52995348D01*
X208769220Y-53020621D01*
X208693005Y-53045808D01*
X208616792Y-53070911D01*
X208540579Y-53095929D01*
X208464369Y-53120863D01*
X208388159Y-53145712D01*
X208311952Y-53170476D01*
X208235745Y-53195156D01*
X208159540Y-53219751D01*
X208083336Y-53244262D01*
X208007134Y-53268689D01*
X207930933Y-53293031D01*
X207854733Y-53317289D01*
X207778535Y-53341462D01*
X207702338Y-53365551D01*
X207626142Y-53389556D01*
X207549947Y-53413476D01*
X207473754Y-53437313D01*
X207397561Y-53461065D01*
X207321370Y-53484733D01*
X207245180Y-53508317D01*
X207168992Y-53531817D01*
X207092804Y-53555233D01*
X207016617Y-53578565D01*
X206940432Y-53601813D01*
X206864247Y-53624977D01*
X206788064Y-53648057D01*
X206711881Y-53671053D01*
X206635700Y-53693966D01*
X206559519Y-53716794D01*
X206483339Y-53739539D01*
X206407161Y-53762200D01*
X206330983Y-53784778D01*
X206254806Y-53807272D01*
X206178630Y-53829682D01*
X206102455Y-53852008D01*
X206026281Y-53874251D01*
X205950107Y-53896411D01*
X205873935Y-53918487D01*
X205797763Y-53940479D01*
X205721592Y-53962388D01*
X205645421Y-53984214D01*
X205569251Y-54005956D01*
X205493082Y-54027615D01*
X205416914Y-54049191D01*
X205340746Y-54070683D01*
X205264579Y-54092092D01*
X205188413Y-54113417D01*
X205112247Y-54134660D01*
X205036081Y-54155819D01*
X204959917Y-54176896D01*
X204883752Y-54197889D01*
X204807589Y-54218799D01*
X204731425Y-54239626D01*
X204655263Y-54260369D01*
X204579100Y-54281030D01*
X204502938Y-54301608D01*
X204426777Y-54322103D01*
X204350616Y-54342515D01*
X204274455Y-54362845D01*
X204198295Y-54383091D01*
X204122135Y-54403254D01*
X204045975Y-54423335D01*
X203969816Y-54443333D01*
X203893656Y-54463248D01*
X203817497Y-54483081D01*
X203741339Y-54502830D01*
X203665180Y-54522497D01*
X203589022Y-54542082D01*
X203512864Y-54561584D01*
X203436706Y-54581003D01*
X203360548Y-54600340D01*
X203284390Y-54619594D01*
X203208233Y-54638766D01*
X203132075Y-54657855D01*
X203055918Y-54676862D01*
X202979760Y-54695786D01*
X202903603Y-54714628D01*
X202827445Y-54733387D01*
X202751288Y-54752065D01*
X202675130Y-54770660D01*
X202598972Y-54789172D01*
X202522815Y-54807602D01*
X202446657Y-54825950D01*
X202370499Y-54844216D01*
X202294341Y-54862400D01*
X202218182Y-54880501D01*
X202142024Y-54898521D01*
X202065865Y-54916458D01*
X201989706Y-54934313D01*
X201913547Y-54952086D01*
X201837387Y-54969777D01*
X201761228Y-54987386D01*
X201685068Y-55004913D01*
X201608907Y-55022358D01*
X201532746Y-55039721D01*
X201456585Y-55057002D01*
X201380424Y-55074201D01*
X201304262Y-55091319D01*
X201228099Y-55108354D01*
X201151936Y-55125308D01*
X201075773Y-55142180D01*
X200999609Y-55158970D01*
X200923445Y-55175678D01*
X200847280Y-55192304D01*
X200771115Y-55208849D01*
X200694949Y-55225312D01*
X200618782Y-55241693D01*
X200542615Y-55257993D01*
X200466447Y-55274211D01*
X200390279Y-55290348D01*
X200314110Y-55306402D01*
X200237940Y-55322376D01*
X200161769Y-55338267D01*
X200085598Y-55354078D01*
X200009426Y-55369806D01*
X199933253Y-55385453D01*
X199857080Y-55401019D01*
X199780905Y-55416503D01*
X199704730Y-55431906D01*
X199628554Y-55447228D01*
X199552377Y-55462468D01*
X199476199Y-55477626D01*
X199400020Y-55492703D01*
X199323841Y-55507699D01*
X199247660Y-55522614D01*
X199171478Y-55537447D01*
X199095296Y-55552200D01*
X199019112Y-55566870D01*
X198942928Y-55581460D01*
X198866742Y-55595968D01*
X198790555Y-55610395D01*
X198714367Y-55624742D01*
X198638178Y-55639006D01*
X198561988Y-55653190D01*
X198485797Y-55667293D01*
X198409605Y-55681314D01*
X198333411Y-55695254D01*
X198257216Y-55709114D01*
X198181020Y-55722892D01*
X198104823Y-55736589D01*
X198028624Y-55750205D01*
X197952425Y-55763741D01*
X197876223Y-55777195D01*
X197800021Y-55790568D01*
X197723817Y-55803860D01*
X197647612Y-55817072D01*
X197571405Y-55830202D01*
X197495198Y-55843252D01*
X197418988Y-55856220D01*
X197342777Y-55869108D01*
X197266565Y-55881915D01*
X197190351Y-55894641D01*
X197114136Y-55907287D01*
X197037919Y-55919851D01*
X196961701Y-55932335D01*
X196885481Y-55944738D01*
X196809260Y-55957060D01*
X196733037Y-55969301D01*
X196656812Y-55981462D01*
X196580586Y-55993542D01*
X196504358Y-56005541D01*
X196428128Y-56017460D01*
X196351897Y-56029298D01*
X196275664Y-56041055D01*
X196199429Y-56052731D01*
X196123193Y-56064327D01*
X196046954Y-56075843D01*
X195970714Y-56087278D01*
X195894473Y-56098632D01*
X195818229Y-56109905D01*
X195741983Y-56121098D01*
X195665736Y-56132211D01*
X195589487Y-56143243D01*
X195513236Y-56154194D01*
X195436982Y-56165065D01*
X195360727Y-56175856D01*
X195284470Y-56186566D01*
X195208211Y-56197195D01*
X195131951Y-56207744D01*
X195055688Y-56218213D01*
X194979423Y-56228601D01*
X194903156Y-56238909D01*
X194826886Y-56249136D01*
X194750615Y-56259283D01*
X194674342Y-56269349D01*
X194598066Y-56279336D01*
X194521789Y-56289241D01*
X194445509Y-56299067D01*
X194369227Y-56308812D01*
X194292943Y-56318477D01*
X194216657Y-56328061D01*
X194140368Y-56337565D01*
X194064077Y-56346989D01*
X193987784Y-56356333D01*
X193911489Y-56365596D01*
X193835191Y-56374779D01*
X193758891Y-56383882D01*
X193682589Y-56392904D01*
X193606284Y-56401846D01*
X193529977Y-56410708D01*
X193453667Y-56419490D01*
X193377355Y-56428192D01*
X193301041Y-56436813D01*
X193224724Y-56445354D01*
X193148405Y-56453815D01*
X193072083Y-56462196D01*
X192995759Y-56470497D01*
X192919432Y-56478717D01*
X192843102Y-56486857D01*
X192766770Y-56494918D01*
X192690436Y-56502898D01*
X192614099Y-56510798D01*
X192537759Y-56518617D01*
X192461417Y-56526357D01*
X192385072Y-56534017D01*
X192308724Y-56541596D01*
X192232374Y-56549096D01*
X192156021Y-56556515D01*
X192079665Y-56563854D01*
X192003306Y-56571113D01*
X191926945Y-56578292D01*
X191850581Y-56585391D01*
X191774214Y-56592410D01*
X191697844Y-56599349D01*
X191621472Y-56606208D01*
X191545097Y-56612987D01*
X191468719Y-56619686D01*
X191392337Y-56626305D01*
X191315954Y-56632844D01*
X191239567Y-56639303D01*
X191163177Y-56645682D01*
X191086784Y-56651980D01*
X191010389Y-56658199D01*
X190933990Y-56664338D01*
X190857588Y-56670397D01*
X190781184Y-56676376D01*
X190704776Y-56682275D01*
X190628365Y-56688094D01*
X190551951Y-56693833D01*
X190475535Y-56699492D01*
X190399115Y-56705071D01*
X190322692Y-56710570D01*
X190246265Y-56715990D01*
X190169836Y-56721329D01*
X190093404Y-56726588D01*
X190016968Y-56731768D01*
X189940529Y-56736867D01*
X189864087Y-56741887D01*
X189787642Y-56746826D01*
X189711193Y-56751686D01*
X189634742Y-56756466D01*
X189558287Y-56761166D01*
X189481828Y-56765786D01*
X189405367Y-56770326D01*
X189328902Y-56774786D01*
X189252433Y-56779166D01*
X189175962Y-56783467D01*
X189099487Y-56787687D01*
X189023009Y-56791828D01*
X188946527Y-56795888D01*
X188870042Y-56799869D01*
X188793553Y-56803770D01*
X188717061Y-56807591D01*
X188640566Y-56811332D01*
X188564067Y-56814993D01*
X188487564Y-56818575D01*
X188411058Y-56822076D01*
X188334549Y-56825498D01*
X188258036Y-56828839D01*
X188181519Y-56832101D01*
X188104999Y-56835283D01*
X188028475Y-56838385D01*
X187951948Y-56841407D01*
X187875417Y-56844349D01*
X187798883Y-56847212D01*
X187722345Y-56849994D01*
X187645803Y-56852697D01*
X187569258Y-56855320D01*
X187492708Y-56857863D01*
X187416156Y-56860326D01*
X187339599Y-56862709D01*
X187263039Y-56865012D01*
X187186475Y-56867235D01*
X187109907Y-56869379D01*
X187033336Y-56871442D01*
X186956760Y-56873426D01*
X186880181Y-56875330D01*
X186803599Y-56877154D01*
X186727012Y-56878898D01*
X186650421Y-56880562D01*
X186573827Y-56882146D01*
X186497229Y-56883650D01*
X186420627Y-56885075D01*
X186344021Y-56886419D01*
X186267411Y-56887684D01*
X186190797Y-56888868D01*
X186114179Y-56889973D01*
X186037558Y-56890998D01*
X185960932Y-56891943D01*
X185884303Y-56892808D01*
X185807669Y-56893593D01*
X185731032Y-56894298D01*
X185654390Y-56894924D01*
X185577745Y-56895469D01*
X185501095Y-56895934D01*
X185424442Y-56896320D01*
X185347784Y-56896625D01*
X185271122Y-56896851D01*
X185194456Y-56896997D01*
X185117787Y-56897062D01*
X185041113Y-56897048D01*
X184964435Y-56896954D01*
X184887752Y-56896780D01*
X184811066Y-56896525D01*
X184734376Y-56896191D01*
X184657681Y-56895777D01*
X184580982Y-56895283D01*
X184504279Y-56894709D01*
X184427572Y-56894055D01*
X184350860Y-56893321D01*
X184274145Y-56892507D01*
X184197425Y-56891613D01*
X184120701Y-56890638D01*
X184043973Y-56889584D01*
X183967240Y-56888450D01*
X183890503Y-56887236D01*
X183813762Y-56885942D01*
X183737017Y-56884567D01*
X183660267Y-56883113D01*
X183583513Y-56881579D01*
X183506754Y-56879964D01*
X183429992Y-56878270D01*
X183353225Y-56876495D01*
X183276453Y-56874641D01*
X183199677Y-56872706D01*
X183122897Y-56870691D01*
X183046113Y-56868596D01*
X182969324Y-56866421D01*
X182892530Y-56864166D01*
X182815733Y-56861831D01*
X182738930Y-56859415D01*
X182662124Y-56856920D01*
X182585313Y-56854344D01*
X182508497Y-56851688D01*
X182431677Y-56848952D01*
X182354853Y-56846136D01*
X182278024Y-56843239D01*
X182201190Y-56840263D01*
X182124353Y-56837206D01*
X182047510Y-56834069D01*
X181970663Y-56830852D01*
X181893812Y-56827555D01*
X181816956Y-56824177D01*
X181740095Y-56820719D01*
X181663230Y-56817181D01*
X181586361Y-56813563D01*
X181509486Y-56809864D01*
X181432608Y-56806085D01*
X181355724Y-56802226D01*
X181278836Y-56798287D01*
X181201944Y-56794267D01*
X181125047Y-56790167D01*
X181048145Y-56785987D01*
X180971239Y-56781726D01*
X180894328Y-56777385D01*
X180817412Y-56772964D01*
X180740492Y-56768462D01*
X180663567Y-56763880D01*
X180586638Y-56759217D01*
X180509703Y-56754475D01*
X180432765Y-56749651D01*
X180355821Y-56744748D01*
X180278873Y-56739764D01*
X180201920Y-56734699D01*
X180124963Y-56729554D01*
X180048000Y-56724329D01*
X179971033Y-56719023D01*
X179894062Y-56713637D01*
X179817085Y-56708170D01*
X179740104Y-56702623D01*
X179663119Y-56696995D01*
X179586128Y-56691286D01*
X179509133Y-56685498D01*
X179432133Y-56679628D01*
X179355128Y-56673678D01*
X179278119Y-56667648D01*
X179201104Y-56661537D01*
X179124085Y-56655345D01*
X179047062Y-56649073D01*
X178970033Y-56642720D01*
X178893000Y-56636286D01*
X178815962Y-56629772D01*
X178738919Y-56623178D01*
X178661871Y-56616502D01*
X178584819Y-56609746D01*
X178507762Y-56602909D01*
X178430700Y-56595992D01*
X178353633Y-56588994D01*
X178276562Y-56581915D01*
X178199485Y-56574755D01*
X178122404Y-56567515D01*
X178045318Y-56560194D01*
X177968228Y-56552792D01*
X177891132Y-56545309D01*
X177814032Y-56537746D01*
X177736926Y-56530101D01*
X177659816Y-56522376D01*
X177582702Y-56514570D01*
X177505582Y-56506683D01*
X177428458Y-56498716D01*
X177351328Y-56490667D01*
X177274194Y-56482538D01*
X177197055Y-56474327D01*
X177119912Y-56466036D01*
X177042763Y-56457664D01*
X176965610Y-56449211D01*
X176888451Y-56440677D01*
X176811288Y-56432062D01*
X176734120Y-56423365D01*
X176656948Y-56414588D01*
X176579770Y-56405730D01*
X176502588Y-56396791D01*
X176425401Y-56387771D01*
X176348209Y-56378670D01*
X176271012Y-56369487D01*
X176193810Y-56360224D01*
X176116603Y-56350879D01*
X176039392Y-56341454D01*
X175962176Y-56331947D01*
X175884955Y-56322359D01*
X175807729Y-56312690D01*
X175730499Y-56302940D01*
X175653263Y-56293108D01*
X175576023Y-56283195D01*
X175498778Y-56273201D01*
X175421528Y-56263126D01*
X175344273Y-56252970D01*
X175267014Y-56242732D01*
X175189749Y-56232413D01*
X175112480Y-56222013D01*
X175035206Y-56211531D01*
X174957928Y-56200968D01*
X174880644Y-56190324D01*
X174803356Y-56179598D01*
X174726063Y-56168791D01*
X174648765Y-56157903D01*
X174571462Y-56146933D01*
X174494155Y-56135881D01*
X174416843Y-56124749D01*
X174339526Y-56113534D01*
X174262204Y-56102239D01*
X174184878Y-56090862D01*
X174107546Y-56079403D01*
X174030210Y-56067863D01*
X173952870Y-56056241D01*
X173875524Y-56044538D01*
X173798174Y-56032753D01*
X173720819Y-56020886D01*
X173643460Y-56008938D01*
X173566096Y-55996908D01*
X173488727Y-55984797D01*
X173411353Y-55972604D01*
X173333974Y-55960329D01*
X173256591Y-55947973D01*
X173179204Y-55935534D01*
X173101811Y-55923015D01*
X173024414Y-55910413D01*
X172947012Y-55897730D01*
X172869606Y-55884964D01*
X172792195Y-55872117D01*
X172714779Y-55859189D01*
X172637359Y-55846178D01*
X172559934Y-55833086D01*
X172482505Y-55819911D01*
X172405071Y-55806655D01*
X172327632Y-55793317D01*
X172250189Y-55779897D01*
X172172741Y-55766395D01*
X172095289Y-55752811D01*
X172017832Y-55739145D01*
X171940371Y-55725397D01*
X171862905Y-55711568D01*
X171785434Y-55697656D01*
X171707959Y-55683662D01*
X171630480Y-55669586D01*
X171552996Y-55655428D01*
X171475507Y-55641188D01*
X171398015Y-55626865D01*
X171320517Y-55612461D01*
X171243016Y-55597975D01*
X171165509Y-55583406D01*
X171087999Y-55568755D01*
X171010484Y-55554022D01*
X170932965Y-55539207D01*
X170855441Y-55524309D01*
X170777913Y-55509329D01*
X170700380Y-55494267D01*
X170622844Y-55479123D01*
X170545303Y-55463897D01*
X170467757Y-55448588D01*
X170390208Y-55433196D01*
X170312654Y-55417723D01*
X170235095Y-55402167D01*
X170157533Y-55386528D01*
X170079966Y-55370808D01*
X170002395Y-55355004D01*
X169924820Y-55339119D01*
X169847241Y-55323151D01*
X169769658Y-55307100D01*
X169692070Y-55290967D01*
X169614479Y-55274751D01*
X169536883Y-55258453D01*
X169459283Y-55242072D01*
X169381679Y-55225609D01*
X169304071Y-55209063D01*
X169226459Y-55192435D01*
X169148843Y-55175724D01*
X169071223Y-55158930D01*
X168993599Y-55142054D01*
X168915971Y-55125095D01*
X168838339Y-55108053D01*
X168760703Y-55090928D01*
X168683063Y-55073721D01*
X168605419Y-55056431D01*
X168527772Y-55039058D01*
X168450120Y-55021603D01*
X168372465Y-55004065D01*
X168294806Y-54986443D01*
X168217143Y-54968739D01*
X168139476Y-54950953D01*
X168061806Y-54933083D01*
X167984132Y-54915130D01*
X167906454Y-54897095D01*
X167828773Y-54878976D01*
X167751087Y-54860775D01*
X167673399Y-54842491D01*
X167595706Y-54824123D01*
X167518010Y-54805673D01*
X167440311Y-54787140D01*
X167362608Y-54768523D01*
X167284901Y-54749824D01*
X167207191Y-54731041D01*
X167129478Y-54712176D01*
X167051761Y-54693227D01*
X166974040Y-54674195D01*
X166896317Y-54655080D01*
X166818590Y-54635882D01*
X166740859Y-54616601D01*
X166663125Y-54597237D01*
X166585388Y-54577789D01*
X166507648Y-54558258D01*
X166429905Y-54538644D01*
X166352158Y-54518947D01*
X166274408Y-54499166D01*
X166196655Y-54479302D01*
X166118899Y-54459355D01*
X166041140Y-54439324D01*
X165963378Y-54419211D01*
X165885612Y-54399013D01*
X165807844Y-54378733D01*
X165730073Y-54358369D01*
X165652299Y-54337921D01*
X165574522Y-54317391D01*
X165496742Y-54296776D01*
X165418959Y-54276079D01*
X165341173Y-54255297D01*
X165263385Y-54234433D01*
X165185594Y-54213484D01*
X165107800Y-54192453D01*
X165030004Y-54171338D01*
X164952205Y-54150139D01*
X164874403Y-54128856D01*
X164796599Y-54107490D01*
X164718792Y-54086041D01*
X164640982Y-54064508D01*
X164563171Y-54042891D01*
X164485356Y-54021191D01*
X164407540Y-53999406D01*
X164329721Y-53977539D01*
X164251899Y-53955587D01*
X164174076Y-53933552D01*
X164096250Y-53911433D01*
X164018422Y-53889231D01*
X163940591Y-53866944D01*
X163862759Y-53844574D01*
X163784924Y-53822120D01*
X163707088Y-53799582D01*
X163629249Y-53776961D01*
X163551409Y-53754256D01*
X163473566Y-53731466D01*
X163395722Y-53708593D01*
X163317875Y-53685636D01*
X163240027Y-53662596D01*
X163162177Y-53639471D01*
X163084326Y-53616262D01*
X163006473Y-53592970D01*
X162928618Y-53569593D01*
X162850761Y-53546133D01*
X162772903Y-53522589D01*
X162695043Y-53498960D01*
X162617182Y-53475248D01*
X162539319Y-53451452D01*
X162461456Y-53427571D01*
X162383590Y-53403607D01*
X162305724Y-53379559D01*
X162227856Y-53355426D01*
X162149987Y-53331210D01*
X162072116Y-53306909D01*
X161994245Y-53282525D01*
X161916373Y-53258056D01*
X161838499Y-53233503D01*
X161760625Y-53208866D01*
X161682750Y-53184145D01*
X161604874Y-53159340D01*
X161526997Y-53134450D01*
X161449119Y-53109477D01*
X161371240Y-53084419D01*
X161293361Y-53059277D01*
X161215481Y-53034051D01*
X161137601Y-53008741D01*
X161059720Y-52983346D01*
X160981839Y-52957867D01*
X160903957Y-52932304D01*
X160826075Y-52906657D01*
X160748193Y-52880926D01*
X160670311Y-52855110D01*
X160592428Y-52829210D01*
X160514545Y-52803225D01*
X160436662Y-52777157D01*
X160358779Y-52751004D01*
X160280896Y-52724767D01*
X160203013Y-52698445D01*
X160125131Y-52672039D01*
X160047248Y-52645549D01*
X159969366Y-52618975D01*
X159891484Y-52592316D01*
X159813603Y-52565572D01*
X159735722Y-52538745D01*
X159657841Y-52511833D01*
X159579962Y-52484837D01*
X159502082Y-52457756D01*
X159424204Y-52430591D01*
X159346326Y-52403341D01*
X159268449Y-52376008D01*
X159190573Y-52348589D01*
X159112698Y-52321087D01*
X159034824Y-52293500D01*
X158956951Y-52265828D01*
X158879079Y-52238072D01*
X158801208Y-52210232D01*
X158723339Y-52182307D01*
X158645471Y-52154298D01*
X158567604Y-52126204D01*
X158489739Y-52098026D01*
X158411875Y-52069764D01*
X158334014Y-52041417D01*
X158256153Y-52012986D01*
X158178295Y-51984470D01*
X158100438Y-51955869D01*
X158022583Y-51927185D01*
X157944731Y-51898416D01*
X157866880Y-51869562D01*
X157789031Y-51840624D01*
X157711185Y-51811601D01*
X157633341Y-51782494D01*
X157555499Y-51753303D01*
X157477660Y-51724027D01*
X157399823Y-51694667D01*
X157321989Y-51665222D01*
X157244158Y-51635693D01*
X157166329Y-51606079D01*
X157088503Y-51576381D01*
X157010680Y-51546598D01*
X156932860Y-51516731D01*
X156855043Y-51486780D01*
X156777229Y-51456744D01*
X156699418Y-51426624D01*
X156621611Y-51396419D01*
X156543807Y-51366130D01*
X156466006Y-51335756D01*
X156388209Y-51305298D01*
X156310416Y-51274756D01*
X156232626Y-51244129D01*
X156154841Y-51213418D01*
X156077059Y-51182623D01*
X155999281Y-51151743D01*
X155921507Y-51120778D01*
X155843738Y-51089730D01*
X155765972Y-51058597D01*
X155688211Y-51027379D01*
X155610455Y-50996078D01*
X155532703Y-50964692D01*
X155454955Y-50933221D01*
X155377213Y-50901667D01*
X155299475Y-50870028D01*
X155221742Y-50838304D01*
X155144014Y-50806497D01*
X155066291Y-50774605D01*
X154988573Y-50742629D01*
X154910861Y-50710569D01*
X154833154Y-50678424D01*
X154755452Y-50646195D01*
X154677757Y-50613882D01*
X154600066Y-50581485D01*
X154522382Y-50549004D01*
X154444703Y-50516438D01*
X154367031Y-50483789D01*
X154289365Y-50451055D01*
X154211704Y-50418237D01*
X154134051Y-50385335D01*
X154056403Y-50352349D01*
X153978762Y-50319279D01*
X153901128Y-50286125D01*
X153823500Y-50252887D01*
X153745880Y-50219565D01*
X153668266Y-50186159D01*
X153590659Y-50152669D01*
X153513060Y-50119095D01*
X153435468Y-50085437D01*
X153357883Y-50051695D01*
X153280306Y-50017869D01*
X153202736Y-49983960D01*
X153125175Y-49949967D01*
X153047621Y-49915889D01*
X152970075Y-49881729D01*
X152892537Y-49847484D01*
X152815007Y-49813156D01*
X152737486Y-49778743D01*
X152659974Y-49744248D01*
X152582469Y-49709668D01*
X152504974Y-49675005D01*
X152427488Y-49640259D01*
X152350010Y-49605429D01*
X152272542Y-49570515D01*
X152195082Y-49535518D01*
X152117633Y-49500437D01*
X152040192Y-49465273D01*
X151962761Y-49430026D01*
X151885340Y-49394695D01*
X151807929Y-49359281D01*
X151730528Y-49323783D01*
X151653137Y-49288203D01*
X151575757Y-49252539D01*
X151498386Y-49216792D01*
X151421027Y-49180962D01*
X151343678Y-49145048D01*
X151266340Y-49109052D01*
X151189013Y-49072973D01*
X151111697Y-49036810D01*
X151034392Y-49000565D01*
X150957098Y-48964237D01*
X150879817Y-48927825D01*
X150802547Y-48891332D01*
X150725288Y-48854755D01*
X150648042Y-48818095D01*
X150570808Y-48781353D01*
X150493586Y-48744529D01*
X150416377Y-48707621D01*
X150339180Y-48670631D01*
X150261996Y-48633559D01*
X150184825Y-48596404D01*
X150107667Y-48559167D01*
X150030522Y-48521847D01*
X149953391Y-48484446D01*
X149876273Y-48446962D01*
X149799169Y-48409395D01*
X149722079Y-48371747D01*
X149645003Y-48334017D01*
X149567941Y-48296204D01*
X149490893Y-48258310D01*
X149413860Y-48220334D01*
X149336841Y-48182276D01*
X149259838Y-48144136D01*
X149182849Y-48105914D01*
X149105876Y-48067611D01*
X149028918Y-48029226D01*
X148951976Y-47990760D01*
X148875049Y-47952212D01*
X148798139Y-47913583D01*
X148721244Y-47874872D01*
X148644366Y-47836081D01*
X148567504Y-47797208D01*
X148490659Y-47758254D01*
X148413831Y-47719219D01*
X148337020Y-47680103D01*
X148260226Y-47640906D01*
X148183449Y-47601628D01*
X148106690Y-47562270D01*
X148029949Y-47522831D01*
X147953226Y-47483311D01*
X147876521Y-47443711D01*
X147799834Y-47404030D01*
X147723166Y-47364269D01*
X147646517Y-47324428D01*
X147569887Y-47284507D01*
X147493276Y-47244506D01*
X147416684Y-47204424D01*
X147340112Y-47164263D01*
X147263560Y-47124022D01*
X147187027Y-47083701D01*
X147110515Y-47043300D01*
X147034024Y-47002820D01*
X146957553Y-46962261D01*
X146881103Y-46921622D01*
X146804674Y-46880904D01*
X146728267Y-46840107D01*
X146651881Y-46799230D01*
X146575517Y-46758275D01*
X146499175Y-46717241D01*
X146422855Y-46676128D01*
X146346557Y-46634937D01*
X146270282Y-46593667D01*
X146194031Y-46552319D01*
X146117802Y-46510892D01*
X146041597Y-46469387D01*
X145965415Y-46427804D01*
X145889257Y-46386143D01*
X145813124Y-46344404D01*
X145737015Y-46302588D01*
X145660930Y-46260694D01*
X145584871Y-46218722D01*
X145508836Y-46176673D01*
X145432827Y-46134547D01*
X145356843Y-46092344D01*
X145280886Y-46050064D01*
X145204955Y-46007707D01*
X145129050Y-45965273D01*
X145053171Y-45922762D01*
X144977320Y-45880176D01*
X144901496Y-45837512D01*
X144825700Y-45794773D01*
X144749931Y-45751958D01*
X144674190Y-45709067D01*
X144598478Y-45666100D01*
X144522794Y-45623057D01*
X144447139Y-45579939D01*
X144371514Y-45536746D01*
X144295918Y-45493477D01*
X144220351Y-45450134D01*
X144144815Y-45406716D01*
X144069309Y-45363223D01*
X143993834Y-45319656D01*
X143918390Y-45276014D01*
X143842977Y-45232298D01*
X143767596Y-45188508D01*
X143692246Y-45144645D01*
X143616929Y-45100707D01*
X143541644Y-45056696D01*
X143466393Y-45012612D01*
X143391174Y-44968455D01*
X143315989Y-44924225D01*
X143240837Y-44879922D01*
X143165720Y-44835546D01*
X143090638Y-44791099D01*
X143015590Y-44746578D01*
X142940577Y-44701986D01*
X142865600Y-44657323D01*
X142790659Y-44612587D01*
X142715753Y-44567780D01*
X142640885Y-44522902D01*
X142566053Y-44477953D01*
X142491259Y-44432934D01*
X142416502Y-44387843D01*
X142341783Y-44342683D01*
X142267103Y-44297452D01*
X142192461Y-44252151D01*
X142117859Y-44206781D01*
X142043296Y-44161341D01*
X141968773Y-44115832D01*
X141894290Y-44070255D01*
X141819848Y-44024608D01*
X141745446Y-43978893D01*
X141671087Y-43933109D01*
X141596769Y-43887258D01*
X141522493Y-43841339D01*
X141448260Y-43795353D01*
X141374070Y-43749299D01*
X141299924Y-43703178D01*
X141225822Y-43656990D01*
X141151764Y-43610737D01*
X141077750Y-43564417D01*
X141003782Y-43518031D01*
X140929860Y-43471579D01*
X140855983Y-43425062D01*
X140782153Y-43378480D01*
X140708371Y-43331834D01*
X140634635Y-43285122D01*
X140560948Y-43238347D01*
X140487309Y-43191508D01*
X140413718Y-43144605D01*
X140340177Y-43097639D01*
X140266686Y-43050611D01*
X140193245Y-43003519D01*
X140119855Y-42956366D01*
X140046517Y-42909150D01*
X139973230Y-42861873D01*
X139899995Y-42814534D01*
X139826813Y-42767135D01*
X139753684Y-42719675D01*
X139680609Y-42672155D01*
X139607589Y-42624575D01*
X139534623Y-42576935D01*
X139461713Y-42529236D01*
X139388859Y-42481479D01*
X139316061Y-42433663D01*
X139243320Y-42385789D01*
X139170637Y-42337858D01*
X139098012Y-42289869D01*
X139025446Y-42241824D01*
X138952939Y-42193722D01*
X138880493Y-42145564D01*
X138808106Y-42097350D01*
X138735781Y-42049081D01*
X138663518Y-42000758D01*
X138591317Y-41952380D01*
X138519179Y-41903949D01*
X138447104Y-41855464D01*
X138375094Y-41806926D01*
X138303149Y-41758335D01*
X138231269Y-41709693D01*
X138159455Y-41660999D01*
X138087708Y-41612254D01*
X138016029Y-41563458D01*
X137944418Y-41514612D01*
X137872876Y-41465717D01*
X137801403Y-41416772D01*
X137730001Y-41367779D01*
X137658670Y-41318738D01*
X137587410Y-41269649D01*
X137516223Y-41220514D01*
X137445109Y-41171332D01*
X137374069Y-41122104D01*
X137303104Y-41072831D01*
X137232214Y-41023513D01*
X137161400Y-40974151D01*
X137090664Y-40924746D01*
X137020005Y-40875297D01*
X136949425Y-40825806D01*
X136878924Y-40776274D01*
X136808504Y-40726700D01*
X136738165Y-40677086D01*
X136667907Y-40627433D01*
X136597733Y-40577740D01*
X136527642Y-40528008D01*
X136457636Y-40478239D01*
X136387715Y-40428433D01*
X136317881Y-40378590D01*
X136248134Y-40328712D01*
X136178475Y-40278799D01*
X136108905Y-40228851D01*
X136039425Y-40178870D01*
X135970037Y-40128857D01*
X135900741Y-40078811D01*
X135831537Y-40028734D01*
X135762428Y-39978627D01*
X135693414Y-39928491D01*
X135624496Y-39878326D01*
X135555675Y-39828132D01*
X135486952Y-39777912D01*
X135418329Y-39727666D01*
X135349807Y-39677395D01*
X135281385Y-39627099D01*
X135213067Y-39576779D01*
X135144852Y-39526438D01*
X135076743Y-39476074D01*
X135008739Y-39425690D01*
X134940843Y-39375287D01*
X134873056Y-39324864D01*
X134805378Y-39274425D01*
X134737812Y-39223968D01*
X134670358Y-39173496D01*
X134603018Y-39123010D01*
X134535793Y-39072510D01*
X134468684Y-39021999D01*
X134401693Y-38971476D01*
X134334821Y-38920943D01*
X134268069Y-38870401D01*
X134201440Y-38819851D01*
X134134934Y-38769296D01*
X134068553Y-38718735D01*
X134002298Y-38668170D01*
X133936171Y-38617603D01*
X133870174Y-38567035D01*
X133804307Y-38516466D01*
X133738574Y-38465899D01*
X133672975Y-38415335D01*
X133607512Y-38364776D01*
X133542186Y-38314222D01*
X133477000Y-38263675D01*
X133411955Y-38213137D01*
X133347054Y-38162609D01*
X133282297Y-38112093D01*
X133217686Y-38061591D01*
X133153225Y-38011104D01*
X133088914Y-37960633D01*
X133024755Y-37910181D01*
X132960752Y-37859750D01*
X132896904Y-37809340D01*
X132833216Y-37758955D01*
X132769688Y-37708595D01*
X132706323Y-37658263D01*
X132643124Y-37607960D01*
X132580092Y-37557690D01*
X132517231Y-37507453D01*
X132454541Y-37457252D01*
X132392026Y-37407088D01*
X132329688Y-37356966D01*
X132267531Y-37306885D01*
X132205555Y-37256850D01*
X132143764Y-37206861D01*
X132082162Y-37156922D01*
X132020749Y-37107035D01*
X131959530Y-37057203D01*
X131898508Y-37007428D01*
X131837684Y-36957714D01*
X131777063Y-36908061D01*
X131716647Y-36858475D01*
X131656441Y-36808957D01*
X131596446Y-36759510D01*
X131536666Y-36710138D01*
X131477106Y-36660844D01*
X131417768Y-36611631D01*
X131358656Y-36562502D01*
X131299774Y-36513462D01*
X131241126Y-36464512D01*
X131182715Y-36415658D01*
X131124547Y-36366902D01*
X131066625Y-36318250D01*
X131008953Y-36269704D01*
X130951537Y-36221269D01*
X130894380Y-36172950D01*
X130837487Y-36124750D01*
X130780864Y-36076674D01*
X130724516Y-36028728D01*
X130668447Y-35980915D01*
X130612663Y-35933242D01*
X130557171Y-35885713D01*
X130501975Y-35838334D01*
X130447082Y-35791110D01*
X130392498Y-35744048D01*
X130338230Y-35697154D01*
X130284284Y-35650433D01*
X130230667Y-35603893D01*
X130177388Y-35557541D01*
X130124452Y-35511384D01*
X130071869Y-35465428D01*
X130019647Y-35419684D01*
X129967794Y-35374157D01*
X129916320Y-35328858D01*
X129865233Y-35283795D01*
X129814545Y-35238978D01*
X129764265Y-35194417D01*
X129714404Y-35150121D01*
X129664974Y-35106104D01*
X129615987Y-35062375D01*
X129567456Y-35018948D01*
X129519394Y-34975835D01*
X129471817Y-34933051D01*
X129424739Y-34890611D01*
X129378177Y-34848530D01*
X129332148Y-34806824D01*
X129286672Y-34765514D01*
X129241767Y-34724616D01*
X129197455Y-34684154D01*
X129153760Y-34644149D01*
X129110707Y-34604625D01*
X129068323Y-34565610D01*
X129026639Y-34527133D01*
X128985686Y-34489226D01*
X128945502Y-34451924D01*
X128906127Y-34415267D01*
X128867605Y-34379300D01*
X128829988Y-34344071D01*
X128793332Y-34309638D01*
X128757704Y-34276066D01*
X128723182Y-34243430D01*
X128689856Y-34211821D01*
X128657834Y-34181346D01*
X128627252Y-34152137D01*
X128598277Y-34124361D01*
X128571131Y-34098238D01*
X128546118Y-34074070D01*
X128523687Y-34052300D01*
X128504581Y-34033669D01*
X128490308Y-34019676D01*
X128485281Y-34014720D01*
D10*
X250000000Y-119500000D02*
G75*
G02*
X240000000Y-124926860I-10000000J6500000D01*
G01*
X250000000Y-100500000D02*
X250000000Y-119500000D01*
X111514719Y-50985281D02*
G75*
G02*
X120000000Y-30500001I8485281J8485281D01*
G01*
X120000000Y-30500001D02*
G75*
G02*
X128485281Y-34014719I0J-11999999D01*
G01*
M02*
