%TF.GenerationSoftware,KiCad,Pcbnew,10.0.0-1.fc44app2*%
%TF.CreationDate,2026-05-13T18:30:08-04:00*%
%TF.ProjectId,JankWheelPCB,4a616e6b-5768-4656-956c-5043422e6b69,rev?*%
%TF.SameCoordinates,Original*%
%TF.FileFunction,Copper,L1,Top*%
%TF.FilePolarity,Positive*%
%FSLAX46Y46*%
G04 Gerber Fmt 4.6, Leading zero omitted, Abs format (unit mm)*
G04 Created by KiCad (PCBNEW 10.0.0-1.fc44app2) date 2026-05-13 18:30:08*
%MOMM*%
%LPD*%
G01*
G04 APERTURE LIST*
G04 Aperture macros list*
%AMRoundRect*
0 Rectangle with rounded corners*
0 $1 Rounding radius*
0 $2 $3 $4 $5 $6 $7 $8 $9 X,Y pos of 4 corners*
0 Add a 4 corners polygon primitive as box body*
4,1,4,$2,$3,$4,$5,$6,$7,$8,$9,$2,$3,0*
0 Add four circle primitives for the rounded corners*
1,1,$1+$1,$2,$3*
1,1,$1+$1,$4,$5*
1,1,$1+$1,$6,$7*
1,1,$1+$1,$8,$9*
0 Add four rect primitives between the rounded corners*
20,1,$1+$1,$2,$3,$4,$5,0*
20,1,$1+$1,$4,$5,$6,$7,0*
20,1,$1+$1,$6,$7,$8,$9,0*
20,1,$1+$1,$8,$9,$2,$3,0*%
G04 Aperture macros list end*
%TA.AperFunction,ComponentPad*%
%ADD10R,1.875000X1.875000*%
%TD*%
%TA.AperFunction,ComponentPad*%
%ADD11C,1.875000*%
%TD*%
%TA.AperFunction,SMDPad,CuDef*%
%ADD12RoundRect,0.065700X0.299300X-0.539300X0.299300X0.539300X-0.299300X0.539300X-0.299300X-0.539300X0*%
%TD*%
%TA.AperFunction,SMDPad,CuDef*%
%ADD13RoundRect,0.065700X-0.299300X0.539300X-0.299300X-0.539300X0.299300X-0.539300X0.299300X0.539300X0*%
%TD*%
%TA.AperFunction,ComponentPad*%
%ADD14R,1.358000X1.358000*%
%TD*%
%TA.AperFunction,ComponentPad*%
%ADD15C,1.358000*%
%TD*%
%TA.AperFunction,ViaPad*%
%ADD16C,0.600000*%
%TD*%
%TA.AperFunction,Conductor*%
%ADD17C,0.500000*%
%TD*%
%TA.AperFunction,Conductor*%
%ADD18C,0.250000*%
%TD*%
G04 APERTURE END LIST*
D10*
%TO.P,S4,1*%
%TO.N,Net-(D4-PadA)*%
X123750000Y-93000000D03*
D11*
%TO.P,S4,2*%
X136250000Y-93000000D03*
%TO.P,S4,3*%
%TO.N,/Button Matrix/Row4*%
X123750000Y-98000000D03*
%TO.P,S4,4*%
X136250000Y-98000000D03*
%TD*%
D12*
%TO.P,D2,A*%
%TO.N,Net-(D2-PadA)*%
X136500000Y-58070000D03*
%TO.P,D2,C*%
%TO.N,/Button Matrix/Column1*%
X136500000Y-61430000D03*
%TD*%
D13*
%TO.P,D5,A*%
%TO.N,Net-(D5-PadA)*%
X141500000Y-105180000D03*
%TO.P,D5,C*%
%TO.N,/Button Matrix/Column1*%
X141500000Y-101820000D03*
%TD*%
D12*
%TO.P,D4,A*%
%TO.N,Net-(D4-PadA)*%
X141500000Y-93070000D03*
%TO.P,D4,C*%
%TO.N,/Button Matrix/Column1*%
X141500000Y-96430000D03*
%TD*%
D10*
%TO.P,S3,1*%
%TO.N,Net-(D3-PadA)*%
X113750000Y-77000000D03*
D11*
%TO.P,S3,2*%
X126250000Y-77000000D03*
%TO.P,S3,3*%
%TO.N,/Button Matrix/Row3*%
X113750000Y-82000000D03*
%TO.P,S3,4*%
X126250000Y-82000000D03*
%TD*%
D10*
%TO.P,S2,1*%
%TO.N,Net-(D2-PadA)*%
X118750000Y-58000000D03*
D11*
%TO.P,S2,2*%
X131250000Y-58000000D03*
%TO.P,S2,3*%
%TO.N,/Button Matrix/Row2*%
X118750000Y-63000000D03*
%TO.P,S2,4*%
X131250000Y-63000000D03*
%TD*%
D12*
%TO.P,D7,A*%
%TO.N,Net-(D7-PadA)*%
X234000000Y-58070000D03*
%TO.P,D7,C*%
%TO.N,/Button Matrix/Column2*%
X234000000Y-61430000D03*
%TD*%
%TO.P,D6,A*%
%TO.N,Net-(D6-PadA)*%
X239000000Y-39890000D03*
%TO.P,D6,C*%
%TO.N,/Button Matrix/Column2*%
X239000000Y-43250000D03*
%TD*%
%TO.P,D3,A*%
%TO.N,Net-(D3-PadA)*%
X132000000Y-77070000D03*
%TO.P,D3,C*%
%TO.N,/Button Matrix/Column1*%
X132000000Y-80430000D03*
%TD*%
D10*
%TO.P,S7,1*%
%TO.N,Net-(D7-PadA)*%
X238750000Y-58000000D03*
D11*
%TO.P,S7,2*%
X251250000Y-58000000D03*
%TO.P,S7,3*%
%TO.N,/Button Matrix/Row2*%
X238750000Y-63000000D03*
%TO.P,S7,4*%
X251250000Y-63000000D03*
%TD*%
D10*
%TO.P,S9,1*%
%TO.N,Net-(D9-PadA)*%
X233750000Y-93000000D03*
D11*
%TO.P,S9,2*%
X246250000Y-93000000D03*
%TO.P,S9,3*%
%TO.N,/Button Matrix/Row4*%
X233750000Y-98000000D03*
%TO.P,S9,4*%
X246250000Y-98000000D03*
%TD*%
D12*
%TO.P,D9,A*%
%TO.N,Net-(D9-PadA)*%
X228500000Y-92890000D03*
%TO.P,D9,C*%
%TO.N,/Button Matrix/Column2*%
X228500000Y-96250000D03*
%TD*%
%TO.P,D8,A*%
%TO.N,Net-(D8-PadA)*%
X238500000Y-76890000D03*
%TO.P,D8,C*%
%TO.N,/Button Matrix/Column2*%
X238500000Y-80250000D03*
%TD*%
D10*
%TO.P,S10,1*%
%TO.N,Net-(D10-PadA)*%
X233750000Y-110500000D03*
D11*
%TO.P,S10,2*%
X246250000Y-110500000D03*
%TO.P,S10,3*%
%TO.N,/Button Matrix/Row5*%
X233750000Y-115500000D03*
%TO.P,S10,4*%
X246250000Y-115500000D03*
%TD*%
D10*
%TO.P,S5,1*%
%TO.N,Net-(D5-PadA)*%
X123750000Y-110500000D03*
D11*
%TO.P,S5,2*%
X136250000Y-110500000D03*
%TO.P,S5,3*%
%TO.N,/Button Matrix/Row5*%
X123750000Y-115500000D03*
%TO.P,S5,4*%
X136250000Y-115500000D03*
%TD*%
D10*
%TO.P,S6,1*%
%TO.N,Net-(D6-PadA)*%
X243750000Y-40000000D03*
D11*
%TO.P,S6,2*%
X256250000Y-40000000D03*
%TO.P,S6,3*%
%TO.N,/Button Matrix/Row1*%
X243750000Y-45000000D03*
%TO.P,S6,4*%
X256250000Y-45000000D03*
%TD*%
D14*
%TO.P,U1,1,D0*%
%TO.N,/Button Matrix/Row1*%
X177380000Y-77943500D03*
D15*
%TO.P,U1,2,D1*%
%TO.N,/Button Matrix/Row2*%
X177380000Y-80483500D03*
%TO.P,U1,3,D2*%
%TO.N,/Button Matrix/Row3*%
X177380000Y-83023500D03*
%TO.P,U1,4,D3*%
%TO.N,/Button Matrix/Row4*%
X177380000Y-85563500D03*
%TO.P,U1,5,D4*%
%TO.N,/Button Matrix/Row5*%
X177380000Y-88103500D03*
%TO.P,U1,6,D5*%
%TO.N,/Button Matrix/Column1*%
X177380000Y-90643500D03*
%TO.P,U1,7,TX_D6*%
%TO.N,Net-(U1-TX_D6)*%
X177380000Y-93183500D03*
%TO.P,U1,8,RX_D7*%
%TO.N,Net-(U1-RX_D7)*%
X192620000Y-93183500D03*
%TO.P,U1,9,D8*%
%TO.N,Net-(U1-D8)*%
X192620000Y-90643500D03*
%TO.P,U1,10,D9*%
%TO.N,Net-(U1-D9)*%
X192620000Y-88103500D03*
%TO.P,U1,11,D10*%
%TO.N,/Button Matrix/Column2*%
X192620000Y-85563500D03*
%TO.P,U1,12,VCC_3V3*%
%TO.N,Net-(U1-VCC_3V3)*%
X192620000Y-83023500D03*
%TO.P,U1,13,GND*%
%TO.N,Net-(U1-GND)*%
X192620000Y-80483500D03*
%TO.P,U1,14,VUSB*%
%TO.N,unconnected-(U1-VUSB-Pad14)*%
X192620000Y-77943500D03*
%TD*%
D10*
%TO.P,S8,1*%
%TO.N,Net-(D8-PadA)*%
X243750000Y-77000000D03*
D11*
%TO.P,S8,2*%
X256250000Y-77000000D03*
%TO.P,S8,3*%
%TO.N,/Button Matrix/Row3*%
X243750000Y-82000000D03*
%TO.P,S8,4*%
X256250000Y-82000000D03*
%TD*%
D13*
%TO.P,D10,A*%
%TO.N,Net-(D10-PadA)*%
X228500000Y-105397500D03*
%TO.P,D10,C*%
%TO.N,/Button Matrix/Column2*%
X228500000Y-102037500D03*
%TD*%
D10*
%TO.P,S1,1*%
%TO.N,Net-(D1-PadA)*%
X113750000Y-40000000D03*
D11*
%TO.P,S1,2*%
X126250000Y-40000000D03*
%TO.P,S1,3*%
%TO.N,/Button Matrix/Row1*%
X113750000Y-45000000D03*
%TO.P,S1,4*%
X126250000Y-45000000D03*
%TD*%
D12*
%TO.P,D1,A*%
%TO.N,Net-(D1-PadA)*%
X131500000Y-40070000D03*
%TO.P,D1,C*%
%TO.N,/Button Matrix/Column1*%
X131500000Y-43430000D03*
%TD*%
D16*
%TO.N,/Button Matrix/Row1*%
X183400000Y-59000000D03*
%TO.N,/Button Matrix/Row2*%
X187250000Y-64000000D03*
%TO.N,/Button Matrix/Row5*%
X179500000Y-107250000D03*
%TD*%
%TO.N,Net-(U1-TX_D6)*%
D17*
X177380000Y-93620000D02*
X177380000Y-93183500D01*
%TO.N,Net-(U1-D9)*%
D18*
X192623500Y-88100000D02*
X192620000Y-88103500D01*
%TO.N,Net-(U1-VCC_3V3)*%
D17*
X192643500Y-83000000D02*
X192620000Y-83023500D01*
%TO.N,Net-(D1-PadA)*%
X126570000Y-40320000D02*
X126250000Y-40000000D01*
X126250000Y-40000000D02*
X113750000Y-40000000D01*
X131430000Y-40000000D02*
X131500000Y-40070000D01*
X126250000Y-40000000D02*
X131430000Y-40000000D01*
%TO.N,Net-(D2-PadA)*%
X131570000Y-58320000D02*
X131250000Y-58000000D01*
X136430000Y-58000000D02*
X136500000Y-58070000D01*
X131250000Y-58000000D02*
X118750000Y-58000000D01*
X131250000Y-58000000D02*
X136430000Y-58000000D01*
%TO.N,Net-(D3-PadA)*%
X126250000Y-77000000D02*
X131930000Y-77000000D01*
X126570000Y-77320000D02*
X126250000Y-77000000D01*
X131930000Y-77000000D02*
X132000000Y-77070000D01*
X126250000Y-77000000D02*
X113750000Y-77000000D01*
%TO.N,Net-(D4-PadA)*%
X141430000Y-93000000D02*
X141500000Y-93070000D01*
X136250000Y-93000000D02*
X123750000Y-93000000D01*
X136570000Y-93320000D02*
X136250000Y-93000000D01*
X136250000Y-93000000D02*
X141430000Y-93000000D01*
%TO.N,Net-(D5-PadA)*%
X136570000Y-110820000D02*
X136250000Y-110500000D01*
X136250000Y-110500000D02*
X136250000Y-110430000D01*
X136250000Y-110500000D02*
X123750000Y-110500000D01*
X136250000Y-110430000D02*
X141500000Y-105180000D01*
%TO.N,Net-(D6-PadA)*%
X243360000Y-39890000D02*
X243610000Y-40140000D01*
X239000000Y-39890000D02*
X243360000Y-39890000D01*
X243610000Y-40140000D02*
X243750000Y-40000000D01*
X243750000Y-40000000D02*
X256250000Y-40000000D01*
%TO.N,Net-(D7-PadA)*%
X234000000Y-58070000D02*
X238180000Y-58070000D01*
X238180000Y-58070000D02*
X238430000Y-58320000D01*
X238430000Y-58320000D02*
X238750000Y-58000000D01*
X238750000Y-58000000D02*
X251250000Y-58000000D01*
%TO.N,Net-(D8-PadA)*%
X243610000Y-77140000D02*
X243750000Y-77000000D01*
X238500000Y-76890000D02*
X243360000Y-76890000D01*
X243360000Y-76890000D02*
X243610000Y-77140000D01*
X243750000Y-77000000D02*
X256250000Y-77000000D01*
%TO.N,Net-(D9-PadA)*%
X233750000Y-93000000D02*
X246250000Y-93000000D01*
X233610000Y-93140000D02*
X233750000Y-93000000D01*
X233360000Y-92890000D02*
X233610000Y-93140000D01*
X228500000Y-92890000D02*
X233360000Y-92890000D01*
%TO.N,Net-(D10-PadA)*%
X233602500Y-110500000D02*
X228500000Y-105397500D01*
X233750000Y-110500000D02*
X246250000Y-110500000D01*
X233750000Y-110500000D02*
X233602500Y-110500000D01*
%TO.N,/Button Matrix/Column1*%
X142356500Y-90643500D02*
X143286500Y-90643500D01*
X142285000Y-90715000D02*
X142750000Y-91180000D01*
X141500000Y-101820000D02*
X141500000Y-96430000D01*
X143000000Y-91430000D02*
X143000000Y-94930000D01*
X132000000Y-80430000D02*
X142285000Y-90715000D01*
X138000000Y-56750000D02*
X138000000Y-59930000D01*
X143286500Y-90643500D02*
X142750000Y-91180000D01*
X177380000Y-90643500D02*
X143750000Y-90643500D01*
X131500000Y-50250000D02*
X138000000Y-56750000D01*
X138000000Y-59930000D02*
X136500000Y-61430000D01*
X143000000Y-91393500D02*
X143750000Y-90643500D01*
X142285000Y-90715000D02*
X142356500Y-90643500D01*
X143750000Y-90643500D02*
X143286500Y-90643500D01*
X143000000Y-94930000D02*
X141500000Y-96430000D01*
X136500000Y-75930000D02*
X132000000Y-80430000D01*
X136500000Y-61430000D02*
X136500000Y-75930000D01*
X142750000Y-91180000D02*
X143000000Y-91430000D01*
X131500000Y-43430000D02*
X131500000Y-50250000D01*
X143000000Y-91430000D02*
X143000000Y-91393500D01*
%TO.N,/Button Matrix/Column2*%
X234000000Y-61430000D02*
X234000000Y-75750000D01*
X239000000Y-43250000D02*
X239000000Y-49750000D01*
X220813500Y-85563500D02*
X226750000Y-91500000D01*
X226750000Y-91500000D02*
X227000000Y-91750000D01*
X227250000Y-91500000D02*
X238500000Y-80250000D01*
X192620000Y-85563500D02*
X220813500Y-85563500D01*
X226750000Y-91500000D02*
X227250000Y-91500000D01*
X227000000Y-91750000D02*
X227250000Y-91500000D01*
X232500000Y-59930000D02*
X234000000Y-61430000D01*
X227000000Y-94750000D02*
X227000000Y-91750000D01*
X234000000Y-75750000D02*
X238500000Y-80250000D01*
X232500000Y-56250000D02*
X232500000Y-59930000D01*
X228500000Y-96250000D02*
X227000000Y-94750000D01*
X239000000Y-49750000D02*
X232500000Y-56250000D01*
X228500000Y-102037500D02*
X228500000Y-96250000D01*
%TO.N,/Button Matrix/Row1*%
X177380000Y-77920000D02*
X183400000Y-71900000D01*
X183400000Y-71900000D02*
X183400000Y-59000000D01*
X126250000Y-45000000D02*
X113750000Y-45000000D01*
X256250000Y-45000000D02*
X243750000Y-45000000D01*
X177380000Y-77943500D02*
X177380000Y-77920000D01*
%TO.N,/Button Matrix/Row2*%
X238750000Y-63000000D02*
X251250000Y-63000000D01*
X131250000Y-63000000D02*
X118750000Y-63000000D01*
X180516500Y-80483500D02*
X187250000Y-73750000D01*
X177380000Y-80483500D02*
X177448250Y-80483500D01*
X177380000Y-80483500D02*
X180516500Y-80483500D01*
X187250000Y-73750000D02*
X187250000Y-64000000D01*
%TO.N,/Button Matrix/Row3*%
X243750000Y-82000000D02*
X256250000Y-82000000D01*
X126250000Y-82000000D02*
X113750000Y-82000000D01*
%TO.N,/Button Matrix/Row4*%
X136250000Y-98000000D02*
X123750000Y-98000000D01*
X233750000Y-98000000D02*
X246250000Y-98000000D01*
%TO.N,/Button Matrix/Row5*%
X179500000Y-90223500D02*
X179500000Y-107250000D01*
X177380000Y-88103500D02*
X179500000Y-90223500D01*
X136250000Y-115500000D02*
X123750000Y-115500000D01*
X233750000Y-115500000D02*
X246250000Y-115500000D01*
%TD*%
M02*
