%TF.GenerationSoftware,KiCad,Pcbnew,10.0.0-1.fc44app2*%
%TF.CreationDate,2026-05-13T18:30:08-04:00*%
%TF.ProjectId,JankWheelPCB,4a616e6b-5768-4656-956c-5043422e6b69,rev?*%
%TF.SameCoordinates,Original*%
%TF.FileFunction,Legend,Top*%
%TF.FilePolarity,Positive*%
%FSLAX46Y46*%
G04 Gerber Fmt 4.6, Leading zero omitted, Abs format (unit mm)*
G04 Created by KiCad (PCBNEW 10.0.0-1.fc44app2) date 2026-05-13 18:30:08*
%MOMM*%
%LPD*%
G01*
G04 APERTURE LIST*
%ADD10C,0.150000*%
%ADD11C,0.100000*%
%ADD12C,0.127000*%
%ADD13C,0.200000*%
G04 APERTURE END LIST*
D10*
X174666666Y-104954819D02*
X174666666Y-103954819D01*
X174666666Y-103954819D02*
X174999999Y-104669104D01*
X174999999Y-104669104D02*
X175333332Y-103954819D01*
X175333332Y-103954819D02*
X175333332Y-104954819D01*
X175999999Y-103954819D02*
X176190475Y-103954819D01*
X176190475Y-103954819D02*
X176285713Y-104002438D01*
X176285713Y-104002438D02*
X176380951Y-104097676D01*
X176380951Y-104097676D02*
X176428570Y-104288152D01*
X176428570Y-104288152D02*
X176428570Y-104621485D01*
X176428570Y-104621485D02*
X176380951Y-104811961D01*
X176380951Y-104811961D02*
X176285713Y-104907200D01*
X176285713Y-104907200D02*
X176190475Y-104954819D01*
X176190475Y-104954819D02*
X175999999Y-104954819D01*
X175999999Y-104954819D02*
X175904761Y-104907200D01*
X175904761Y-104907200D02*
X175809523Y-104811961D01*
X175809523Y-104811961D02*
X175761904Y-104621485D01*
X175761904Y-104621485D02*
X175761904Y-104288152D01*
X175761904Y-104288152D02*
X175809523Y-104097676D01*
X175809523Y-104097676D02*
X175904761Y-104002438D01*
X175904761Y-104002438D02*
X175999999Y-103954819D01*
X176857142Y-103954819D02*
X176857142Y-104764342D01*
X176857142Y-104764342D02*
X176904761Y-104859580D01*
X176904761Y-104859580D02*
X176952380Y-104907200D01*
X176952380Y-104907200D02*
X177047618Y-104954819D01*
X177047618Y-104954819D02*
X177238094Y-104954819D01*
X177238094Y-104954819D02*
X177333332Y-104907200D01*
X177333332Y-104907200D02*
X177380951Y-104859580D01*
X177380951Y-104859580D02*
X177428570Y-104764342D01*
X177428570Y-104764342D02*
X177428570Y-103954819D01*
X177904761Y-104954819D02*
X177904761Y-103954819D01*
X177904761Y-103954819D02*
X178476189Y-104954819D01*
X178476189Y-104954819D02*
X178476189Y-103954819D01*
X178809523Y-103954819D02*
X179380951Y-103954819D01*
X179095237Y-104954819D02*
X179095237Y-103954819D01*
X179714285Y-104954819D02*
X179714285Y-103954819D01*
X180190475Y-104954819D02*
X180190475Y-103954819D01*
X180190475Y-103954819D02*
X180761903Y-104954819D01*
X180761903Y-104954819D02*
X180761903Y-103954819D01*
X181761903Y-104002438D02*
X181666665Y-103954819D01*
X181666665Y-103954819D02*
X181523808Y-103954819D01*
X181523808Y-103954819D02*
X181380951Y-104002438D01*
X181380951Y-104002438D02*
X181285713Y-104097676D01*
X181285713Y-104097676D02*
X181238094Y-104192914D01*
X181238094Y-104192914D02*
X181190475Y-104383390D01*
X181190475Y-104383390D02*
X181190475Y-104526247D01*
X181190475Y-104526247D02*
X181238094Y-104716723D01*
X181238094Y-104716723D02*
X181285713Y-104811961D01*
X181285713Y-104811961D02*
X181380951Y-104907200D01*
X181380951Y-104907200D02*
X181523808Y-104954819D01*
X181523808Y-104954819D02*
X181619046Y-104954819D01*
X181619046Y-104954819D02*
X181761903Y-104907200D01*
X181761903Y-104907200D02*
X181809522Y-104859580D01*
X181809522Y-104859580D02*
X181809522Y-104526247D01*
X181809522Y-104526247D02*
X181619046Y-104526247D01*
X182999999Y-104954819D02*
X182999999Y-103954819D01*
X182999999Y-104431009D02*
X183571427Y-104431009D01*
X183571427Y-104954819D02*
X183571427Y-103954819D01*
X184238094Y-103954819D02*
X184428570Y-103954819D01*
X184428570Y-103954819D02*
X184523808Y-104002438D01*
X184523808Y-104002438D02*
X184619046Y-104097676D01*
X184619046Y-104097676D02*
X184666665Y-104288152D01*
X184666665Y-104288152D02*
X184666665Y-104621485D01*
X184666665Y-104621485D02*
X184619046Y-104811961D01*
X184619046Y-104811961D02*
X184523808Y-104907200D01*
X184523808Y-104907200D02*
X184428570Y-104954819D01*
X184428570Y-104954819D02*
X184238094Y-104954819D01*
X184238094Y-104954819D02*
X184142856Y-104907200D01*
X184142856Y-104907200D02*
X184047618Y-104811961D01*
X184047618Y-104811961D02*
X183999999Y-104621485D01*
X183999999Y-104621485D02*
X183999999Y-104288152D01*
X183999999Y-104288152D02*
X184047618Y-104097676D01*
X184047618Y-104097676D02*
X184142856Y-104002438D01*
X184142856Y-104002438D02*
X184238094Y-103954819D01*
X185571427Y-104954819D02*
X185095237Y-104954819D01*
X185095237Y-104954819D02*
X185095237Y-103954819D01*
X185904761Y-104431009D02*
X186238094Y-104431009D01*
X186380951Y-104954819D02*
X185904761Y-104954819D01*
X185904761Y-104954819D02*
X185904761Y-103954819D01*
X185904761Y-103954819D02*
X186380951Y-103954819D01*
X186761904Y-104907200D02*
X186904761Y-104954819D01*
X186904761Y-104954819D02*
X187142856Y-104954819D01*
X187142856Y-104954819D02*
X187238094Y-104907200D01*
X187238094Y-104907200D02*
X187285713Y-104859580D01*
X187285713Y-104859580D02*
X187333332Y-104764342D01*
X187333332Y-104764342D02*
X187333332Y-104669104D01*
X187333332Y-104669104D02*
X187285713Y-104573866D01*
X187285713Y-104573866D02*
X187238094Y-104526247D01*
X187238094Y-104526247D02*
X187142856Y-104478628D01*
X187142856Y-104478628D02*
X186952380Y-104431009D01*
X186952380Y-104431009D02*
X186857142Y-104383390D01*
X186857142Y-104383390D02*
X186809523Y-104335771D01*
X186809523Y-104335771D02*
X186761904Y-104240533D01*
X186761904Y-104240533D02*
X186761904Y-104145295D01*
X186761904Y-104145295D02*
X186809523Y-104050057D01*
X186809523Y-104050057D02*
X186857142Y-104002438D01*
X186857142Y-104002438D02*
X186952380Y-103954819D01*
X186952380Y-103954819D02*
X187190475Y-103954819D01*
X187190475Y-103954819D02*
X187333332Y-104002438D01*
X189190475Y-103954819D02*
X188428571Y-104954819D01*
X188714285Y-104954819D02*
X188619047Y-104907200D01*
X188619047Y-104907200D02*
X188523809Y-104811961D01*
X188523809Y-104811961D02*
X188476190Y-104621485D01*
X188476190Y-104621485D02*
X188476190Y-104288152D01*
X188476190Y-104288152D02*
X188523809Y-104097676D01*
X188523809Y-104097676D02*
X188619047Y-104002438D01*
X188619047Y-104002438D02*
X188714285Y-103954819D01*
X188714285Y-103954819D02*
X188904761Y-103954819D01*
X188904761Y-103954819D02*
X188999999Y-104002438D01*
X188999999Y-104002438D02*
X189095237Y-104097676D01*
X189095237Y-104097676D02*
X189142856Y-104288152D01*
X189142856Y-104288152D02*
X189142856Y-104621485D01*
X189142856Y-104621485D02*
X189095237Y-104811961D01*
X189095237Y-104811961D02*
X188999999Y-104907200D01*
X188999999Y-104907200D02*
X188904761Y-104954819D01*
X188904761Y-104954819D02*
X188714285Y-104954819D01*
X190047618Y-103954819D02*
X189571428Y-103954819D01*
X189571428Y-103954819D02*
X189523809Y-104431009D01*
X189523809Y-104431009D02*
X189571428Y-104383390D01*
X189571428Y-104383390D02*
X189666666Y-104335771D01*
X189666666Y-104335771D02*
X189904761Y-104335771D01*
X189904761Y-104335771D02*
X189999999Y-104383390D01*
X189999999Y-104383390D02*
X190047618Y-104431009D01*
X190047618Y-104431009D02*
X190095237Y-104526247D01*
X190095237Y-104526247D02*
X190095237Y-104764342D01*
X190095237Y-104764342D02*
X190047618Y-104859580D01*
X190047618Y-104859580D02*
X189999999Y-104907200D01*
X189999999Y-104907200D02*
X189904761Y-104954819D01*
X189904761Y-104954819D02*
X189666666Y-104954819D01*
X189666666Y-104954819D02*
X189571428Y-104907200D01*
X189571428Y-104907200D02*
X189523809Y-104859580D01*
X190523809Y-104859580D02*
X190571428Y-104907200D01*
X190571428Y-104907200D02*
X190523809Y-104954819D01*
X190523809Y-104954819D02*
X190476190Y-104907200D01*
X190476190Y-104907200D02*
X190523809Y-104859580D01*
X190523809Y-104859580D02*
X190523809Y-104954819D01*
X190904761Y-103954819D02*
X191523808Y-103954819D01*
X191523808Y-103954819D02*
X191190475Y-104335771D01*
X191190475Y-104335771D02*
X191333332Y-104335771D01*
X191333332Y-104335771D02*
X191428570Y-104383390D01*
X191428570Y-104383390D02*
X191476189Y-104431009D01*
X191476189Y-104431009D02*
X191523808Y-104526247D01*
X191523808Y-104526247D02*
X191523808Y-104764342D01*
X191523808Y-104764342D02*
X191476189Y-104859580D01*
X191476189Y-104859580D02*
X191428570Y-104907200D01*
X191428570Y-104907200D02*
X191333332Y-104954819D01*
X191333332Y-104954819D02*
X191047618Y-104954819D01*
X191047618Y-104954819D02*
X190952380Y-104907200D01*
X190952380Y-104907200D02*
X190904761Y-104859580D01*
X192999999Y-105335771D02*
X192952380Y-105288152D01*
X192952380Y-105288152D02*
X192857142Y-105145295D01*
X192857142Y-105145295D02*
X192809523Y-105050057D01*
X192809523Y-105050057D02*
X192761904Y-104907200D01*
X192761904Y-104907200D02*
X192714285Y-104669104D01*
X192714285Y-104669104D02*
X192714285Y-104478628D01*
X192714285Y-104478628D02*
X192761904Y-104240533D01*
X192761904Y-104240533D02*
X192809523Y-104097676D01*
X192809523Y-104097676D02*
X192857142Y-104002438D01*
X192857142Y-104002438D02*
X192952380Y-103859580D01*
X192952380Y-103859580D02*
X192999999Y-103811961D01*
X193285714Y-104954819D02*
X193809523Y-104288152D01*
X193285714Y-104288152D02*
X193809523Y-104954819D01*
X194619047Y-104288152D02*
X194619047Y-104954819D01*
X194380952Y-103907200D02*
X194142857Y-104621485D01*
X194142857Y-104621485D02*
X194761904Y-104621485D01*
X195047619Y-105335771D02*
X195095238Y-105288152D01*
X195095238Y-105288152D02*
X195190476Y-105145295D01*
X195190476Y-105145295D02*
X195238095Y-105050057D01*
X195238095Y-105050057D02*
X195285714Y-104907200D01*
X195285714Y-104907200D02*
X195333333Y-104669104D01*
X195333333Y-104669104D02*
X195333333Y-104478628D01*
X195333333Y-104478628D02*
X195285714Y-104240533D01*
X195285714Y-104240533D02*
X195238095Y-104097676D01*
X195238095Y-104097676D02*
X195190476Y-104002438D01*
X195190476Y-104002438D02*
X195095238Y-103859580D01*
X195095238Y-103859580D02*
X195047619Y-103811961D01*
X161166667Y-103454819D02*
X161166667Y-102454819D01*
X161166667Y-102454819D02*
X161500000Y-103169104D01*
X161500000Y-103169104D02*
X161833333Y-102454819D01*
X161833333Y-102454819D02*
X161833333Y-103454819D01*
X162309524Y-103454819D02*
X162309524Y-102454819D01*
X162309524Y-102931009D02*
X162880952Y-102931009D01*
X162880952Y-103454819D02*
X162880952Y-102454819D01*
X163261905Y-102454819D02*
X163880952Y-102454819D01*
X163880952Y-102454819D02*
X163547619Y-102835771D01*
X163547619Y-102835771D02*
X163690476Y-102835771D01*
X163690476Y-102835771D02*
X163785714Y-102883390D01*
X163785714Y-102883390D02*
X163833333Y-102931009D01*
X163833333Y-102931009D02*
X163880952Y-103026247D01*
X163880952Y-103026247D02*
X163880952Y-103264342D01*
X163880952Y-103264342D02*
X163833333Y-103359580D01*
X163833333Y-103359580D02*
X163785714Y-103407200D01*
X163785714Y-103407200D02*
X163690476Y-103454819D01*
X163690476Y-103454819D02*
X163404762Y-103454819D01*
X163404762Y-103454819D02*
X163309524Y-103407200D01*
X163309524Y-103407200D02*
X163261905Y-103359580D01*
X206166667Y-68454819D02*
X206166667Y-67454819D01*
X206166667Y-67454819D02*
X206500000Y-68169104D01*
X206500000Y-68169104D02*
X206833333Y-67454819D01*
X206833333Y-67454819D02*
X206833333Y-68454819D01*
X207309524Y-68454819D02*
X207309524Y-67454819D01*
X207309524Y-67931009D02*
X207880952Y-67931009D01*
X207880952Y-68454819D02*
X207880952Y-67454819D01*
X208309524Y-67550057D02*
X208357143Y-67502438D01*
X208357143Y-67502438D02*
X208452381Y-67454819D01*
X208452381Y-67454819D02*
X208690476Y-67454819D01*
X208690476Y-67454819D02*
X208785714Y-67502438D01*
X208785714Y-67502438D02*
X208833333Y-67550057D01*
X208833333Y-67550057D02*
X208880952Y-67645295D01*
X208880952Y-67645295D02*
X208880952Y-67740533D01*
X208880952Y-67740533D02*
X208833333Y-67883390D01*
X208833333Y-67883390D02*
X208261905Y-68454819D01*
X208261905Y-68454819D02*
X208880952Y-68454819D01*
D11*
G36*
X157790378Y-80988344D02*
G01*
X157790378Y-81870000D01*
X157666181Y-81870000D01*
X157666181Y-80988344D01*
X157357458Y-80988344D01*
X157357458Y-80881366D01*
X158103375Y-80881366D01*
X158090491Y-80988344D01*
X157790378Y-80988344D01*
G37*
G36*
X158425654Y-80798079D02*
G01*
X158425654Y-81217383D01*
X158457842Y-81181099D01*
X158494202Y-81151582D01*
X158535136Y-81128356D01*
X158601117Y-81105603D01*
X158666844Y-81098192D01*
X158722296Y-81102502D01*
X158766281Y-81114337D01*
X158801080Y-81132623D01*
X158828410Y-81157116D01*
X158855668Y-81199167D01*
X158873074Y-81252660D01*
X158879396Y-81320758D01*
X158879396Y-81870000D01*
X158758740Y-81870000D01*
X158758740Y-81323628D01*
X158754630Y-81279225D01*
X158743707Y-81247117D01*
X158727172Y-81224221D01*
X158704094Y-81207818D01*
X158672041Y-81197012D01*
X158628070Y-81192958D01*
X158586127Y-81197804D01*
X158546249Y-81212376D01*
X158509334Y-81234159D01*
X158476578Y-81260491D01*
X158447944Y-81290118D01*
X158425654Y-81319354D01*
X158425654Y-81870000D01*
X158304998Y-81870000D01*
X158304998Y-80811024D01*
X158425654Y-80798079D01*
G37*
G36*
X159534121Y-81104797D02*
G01*
X159593619Y-81123651D01*
X159644935Y-81154236D01*
X159689427Y-81197294D01*
X159723895Y-81248543D01*
X159749525Y-81309535D01*
X159765853Y-81382136D01*
X159771676Y-81468647D01*
X159770577Y-81505284D01*
X159768806Y-81534715D01*
X159260476Y-81534715D01*
X159267632Y-81601026D01*
X159282239Y-81653344D01*
X159303105Y-81694331D01*
X159329780Y-81726079D01*
X159375472Y-81759507D01*
X159425565Y-81779260D01*
X159481638Y-81785980D01*
X159537917Y-81781506D01*
X159586418Y-81768761D01*
X159632788Y-81748048D01*
X159683382Y-81717775D01*
X159740108Y-81797459D01*
X159684270Y-81834316D01*
X159619452Y-81862794D01*
X159550397Y-81880585D01*
X159480172Y-81886486D01*
X159407918Y-81880598D01*
X159345964Y-81863849D01*
X159292472Y-81836966D01*
X159245394Y-81799904D01*
X159206283Y-81754204D01*
X159174685Y-81698785D01*
X159152684Y-81638407D01*
X159138942Y-81570267D01*
X159134141Y-81493072D01*
X159137392Y-81441414D01*
X159261209Y-81441414D01*
X159655355Y-81441414D01*
X159647508Y-81361905D01*
X159629166Y-81302512D01*
X159602233Y-81258660D01*
X159564610Y-81224695D01*
X159519893Y-81204377D01*
X159465823Y-81197294D01*
X159412356Y-81204045D01*
X159366038Y-81223714D01*
X159325078Y-81256889D01*
X159301509Y-81287957D01*
X159282592Y-81327738D01*
X159268819Y-81378120D01*
X159261209Y-81441414D01*
X159137392Y-81441414D01*
X159138905Y-81417364D01*
X159152613Y-81349788D01*
X159174685Y-81289190D01*
X159206064Y-81233240D01*
X159244266Y-81186932D01*
X159289602Y-81149178D01*
X159341230Y-81121191D01*
X159399010Y-81104104D01*
X159464419Y-81098192D01*
X159534121Y-81104797D01*
G37*
G36*
X161455792Y-80881366D02*
G01*
X161455792Y-81541920D01*
X161451679Y-81603304D01*
X161439244Y-81664713D01*
X161417347Y-81723040D01*
X161384656Y-81775966D01*
X161356881Y-81806662D01*
X161322708Y-81833447D01*
X161281280Y-81856383D01*
X161236706Y-81872418D01*
X161182962Y-81882766D01*
X161118309Y-81886486D01*
X161043925Y-81880783D01*
X160974523Y-81863995D01*
X160909127Y-81836170D01*
X160846955Y-81796788D01*
X160902215Y-81714234D01*
X160965988Y-81749467D01*
X161019635Y-81768822D01*
X161072166Y-81779237D01*
X161116905Y-81782438D01*
X161167373Y-81777925D01*
X161209660Y-81765171D01*
X161245349Y-81744745D01*
X161275540Y-81716371D01*
X161305544Y-81669296D01*
X161324667Y-81609864D01*
X161331594Y-81534715D01*
X161331594Y-80983337D01*
X161038625Y-80983337D01*
X161038625Y-80881366D01*
X161455792Y-80881366D01*
G37*
G36*
X162077390Y-81103031D02*
G01*
X162134808Y-81116373D01*
X162181058Y-81136959D01*
X162218135Y-81164260D01*
X162248772Y-81199500D01*
X162270769Y-81240145D01*
X162284418Y-81287255D01*
X162289209Y-81342313D01*
X162289209Y-81704891D01*
X162293588Y-81747088D01*
X162304291Y-81771631D01*
X162322757Y-81789100D01*
X162350942Y-81801795D01*
X162321510Y-81886486D01*
X162275147Y-81875271D01*
X162236025Y-81855284D01*
X162205083Y-81824984D01*
X162182964Y-81780240D01*
X162153349Y-81812403D01*
X162119391Y-81838753D01*
X162080626Y-81859619D01*
X162017030Y-81879622D01*
X161946048Y-81886486D01*
X161889721Y-81882071D01*
X161842114Y-81869605D01*
X161801685Y-81849778D01*
X161767262Y-81822616D01*
X161739119Y-81788740D01*
X161718881Y-81749909D01*
X161706327Y-81705159D01*
X161701927Y-81653173D01*
X161702076Y-81651769D01*
X161831132Y-81651769D01*
X161837598Y-81705598D01*
X161854966Y-81743923D01*
X161882287Y-81770865D01*
X161921482Y-81788130D01*
X161976884Y-81794590D01*
X162031301Y-81787568D01*
X162083496Y-81766257D01*
X162129676Y-81732639D01*
X162167882Y-81687611D01*
X162167882Y-81493072D01*
X162058766Y-81493072D01*
X161975982Y-81499040D01*
X161919595Y-81514328D01*
X161882484Y-81536181D01*
X161854107Y-81567921D01*
X161837081Y-81605805D01*
X161831132Y-81651769D01*
X161702076Y-81651769D01*
X161707932Y-81596712D01*
X161725070Y-81549124D01*
X161753077Y-81508501D01*
X161793091Y-81473715D01*
X161839233Y-81448324D01*
X161896877Y-81428754D01*
X161968401Y-81415921D01*
X162056568Y-81411250D01*
X162167882Y-81411250D01*
X162167882Y-81348053D01*
X162161819Y-81295807D01*
X162145558Y-81258485D01*
X162120132Y-81232159D01*
X162086584Y-81214121D01*
X162043291Y-81202349D01*
X161987691Y-81198026D01*
X161948897Y-81200090D01*
X161900069Y-81207002D01*
X161849112Y-81218532D01*
X161790954Y-81236739D01*
X161759324Y-81145575D01*
X161827782Y-81123122D01*
X161889628Y-81109000D01*
X161950412Y-81100811D01*
X162006315Y-81098192D01*
X162077390Y-81103031D01*
G37*
G36*
X162608557Y-81870000D02*
G01*
X162608557Y-81114007D01*
X162711261Y-81114007D01*
X162720603Y-81218848D01*
X162753726Y-81183096D01*
X162791837Y-81153400D01*
X162835458Y-81129455D01*
X162904808Y-81105745D01*
X162970403Y-81098192D01*
X163026273Y-81102519D01*
X163070414Y-81114379D01*
X163105179Y-81132666D01*
X163132336Y-81157116D01*
X163159384Y-81199139D01*
X163176673Y-81252631D01*
X163182955Y-81320758D01*
X163182955Y-81870000D01*
X163062299Y-81870000D01*
X163062299Y-81409785D01*
X163059875Y-81335991D01*
X163053689Y-81284855D01*
X163039586Y-81242382D01*
X163017419Y-81215245D01*
X162985142Y-81199247D01*
X162933094Y-81192958D01*
X162889829Y-81197835D01*
X162849441Y-81212376D01*
X162812310Y-81234274D01*
X162779771Y-81260858D01*
X162751354Y-81290644D01*
X162729213Y-81319354D01*
X162729213Y-81870000D01*
X162608557Y-81870000D01*
G37*
G36*
X163597801Y-80794537D02*
G01*
X163597801Y-81870000D01*
X163477206Y-81870000D01*
X163477206Y-80809619D01*
X163597801Y-80794537D01*
G37*
G36*
X164102529Y-81114007D02*
G01*
X163762238Y-81454298D01*
X164142035Y-81870000D01*
X163983339Y-81870000D01*
X163611418Y-81457168D01*
X163946031Y-81114007D01*
X164102529Y-81114007D01*
G37*
G36*
X165040788Y-80881366D02*
G01*
X164890029Y-81870000D01*
X164726325Y-81870000D01*
X164612875Y-81124021D01*
X164498691Y-81870000D01*
X164331446Y-81870000D01*
X164192166Y-80881366D01*
X164317096Y-80881366D01*
X164422609Y-81732857D01*
X164541067Y-80996282D01*
X164694024Y-80996282D01*
X164806742Y-81732857D01*
X164925200Y-80881366D01*
X165040788Y-80881366D01*
G37*
G36*
X165311348Y-80798079D02*
G01*
X165311348Y-81217383D01*
X165343537Y-81181099D01*
X165379896Y-81151582D01*
X165420830Y-81128356D01*
X165486811Y-81105603D01*
X165552538Y-81098192D01*
X165607991Y-81102502D01*
X165651975Y-81114337D01*
X165686774Y-81132623D01*
X165714105Y-81157116D01*
X165741362Y-81199167D01*
X165758768Y-81252660D01*
X165765090Y-81320758D01*
X165765090Y-81870000D01*
X165644434Y-81870000D01*
X165644434Y-81323628D01*
X165640324Y-81279225D01*
X165629402Y-81247117D01*
X165612866Y-81224221D01*
X165589788Y-81207818D01*
X165557735Y-81197012D01*
X165513764Y-81192958D01*
X165471822Y-81197804D01*
X165431943Y-81212376D01*
X165395028Y-81234159D01*
X165362273Y-81260491D01*
X165333639Y-81290118D01*
X165311348Y-81319354D01*
X165311348Y-81870000D01*
X165190692Y-81870000D01*
X165190692Y-80811024D01*
X165311348Y-80798079D01*
G37*
G36*
X166419815Y-81104797D02*
G01*
X166479313Y-81123651D01*
X166530630Y-81154236D01*
X166575122Y-81197294D01*
X166609589Y-81248543D01*
X166635220Y-81309535D01*
X166651547Y-81382136D01*
X166657370Y-81468647D01*
X166656271Y-81505284D01*
X166654501Y-81534715D01*
X166146170Y-81534715D01*
X166153326Y-81601026D01*
X166167934Y-81653344D01*
X166188800Y-81694331D01*
X166215474Y-81726079D01*
X166261166Y-81759507D01*
X166311260Y-81779260D01*
X166367332Y-81785980D01*
X166423612Y-81781506D01*
X166472112Y-81768761D01*
X166518482Y-81748048D01*
X166569077Y-81717775D01*
X166625802Y-81797459D01*
X166569964Y-81834316D01*
X166505146Y-81862794D01*
X166436092Y-81880585D01*
X166365867Y-81886486D01*
X166293613Y-81880598D01*
X166231659Y-81863849D01*
X166178166Y-81836966D01*
X166131088Y-81799904D01*
X166091977Y-81754204D01*
X166060380Y-81698785D01*
X166038378Y-81638407D01*
X166024636Y-81570267D01*
X166019836Y-81493072D01*
X166023087Y-81441414D01*
X166146903Y-81441414D01*
X166541050Y-81441414D01*
X166533202Y-81361905D01*
X166514860Y-81302512D01*
X166487927Y-81258660D01*
X166450305Y-81224695D01*
X166405587Y-81204377D01*
X166351517Y-81197294D01*
X166298050Y-81204045D01*
X166251733Y-81223714D01*
X166210772Y-81256889D01*
X166187203Y-81287957D01*
X166168287Y-81327738D01*
X166154514Y-81378120D01*
X166146903Y-81441414D01*
X166023087Y-81441414D01*
X166024600Y-81417364D01*
X166038308Y-81349788D01*
X166060380Y-81289190D01*
X166091758Y-81233240D01*
X166129960Y-81186932D01*
X166175296Y-81149178D01*
X166226924Y-81121191D01*
X166284704Y-81104104D01*
X166350113Y-81098192D01*
X166419815Y-81104797D01*
G37*
G36*
X167280527Y-81104797D02*
G01*
X167340025Y-81123651D01*
X167391341Y-81154236D01*
X167435833Y-81197294D01*
X167470301Y-81248543D01*
X167495931Y-81309535D01*
X167512259Y-81382136D01*
X167518082Y-81468647D01*
X167516983Y-81505284D01*
X167515212Y-81534715D01*
X167006882Y-81534715D01*
X167014038Y-81601026D01*
X167028645Y-81653344D01*
X167049511Y-81694331D01*
X167076186Y-81726079D01*
X167121878Y-81759507D01*
X167171972Y-81779260D01*
X167228044Y-81785980D01*
X167284324Y-81781506D01*
X167332824Y-81768761D01*
X167379194Y-81748048D01*
X167429788Y-81717775D01*
X167486514Y-81797459D01*
X167430676Y-81834316D01*
X167365858Y-81862794D01*
X167296804Y-81880585D01*
X167226578Y-81886486D01*
X167154324Y-81880598D01*
X167092371Y-81863849D01*
X167038878Y-81836966D01*
X166991800Y-81799904D01*
X166952689Y-81754204D01*
X166921092Y-81698785D01*
X166899090Y-81638407D01*
X166885348Y-81570267D01*
X166880547Y-81493072D01*
X166883798Y-81441414D01*
X167007615Y-81441414D01*
X167401762Y-81441414D01*
X167393914Y-81361905D01*
X167375572Y-81302512D01*
X167348639Y-81258660D01*
X167311016Y-81224695D01*
X167266299Y-81204377D01*
X167212229Y-81197294D01*
X167158762Y-81204045D01*
X167112444Y-81223714D01*
X167071484Y-81256889D01*
X167047915Y-81287957D01*
X167028999Y-81327738D01*
X167015226Y-81378120D01*
X167007615Y-81441414D01*
X166883798Y-81441414D01*
X166885312Y-81417364D01*
X166899019Y-81349788D01*
X166921092Y-81289190D01*
X166952470Y-81233240D01*
X166990672Y-81186932D01*
X167036008Y-81149178D01*
X167087636Y-81121191D01*
X167145416Y-81104104D01*
X167210825Y-81098192D01*
X167280527Y-81104797D01*
G37*
G36*
X168067201Y-80809619D02*
G01*
X168067201Y-81683337D01*
X168071562Y-81718884D01*
X168083345Y-81744452D01*
X168102006Y-81762655D01*
X168140379Y-81779728D01*
X168192131Y-81785980D01*
X168257100Y-81778836D01*
X168319199Y-81759419D01*
X168351500Y-81847773D01*
X168318569Y-81861435D01*
X168275052Y-81874640D01*
X168227801Y-81883372D01*
X168172042Y-81886486D01*
X168107137Y-81879846D01*
X168053618Y-81861104D01*
X168009071Y-81830860D01*
X167982221Y-81801049D01*
X167962895Y-81766184D01*
X167950854Y-81725260D01*
X167946606Y-81676864D01*
X167946606Y-80905057D01*
X167714698Y-80905057D01*
X167714698Y-80809619D01*
X168067201Y-80809619D01*
G37*
G36*
X169833871Y-80711250D02*
G01*
X169833871Y-82016484D01*
X169726160Y-82016484D01*
X169726160Y-80711250D01*
X169833871Y-80711250D01*
G37*
G36*
X171846065Y-81114007D02*
G01*
X171571109Y-81870000D01*
X171431097Y-81870000D01*
X171158278Y-81114007D01*
X171286078Y-81114007D01*
X171505041Y-81760151D01*
X171721135Y-81114007D01*
X171846065Y-81114007D01*
G37*
G36*
X172425066Y-80871181D02*
G01*
X172478983Y-80887148D01*
X172526205Y-80913086D01*
X172567842Y-80949493D01*
X172604439Y-80997747D01*
X172637768Y-81064117D01*
X172663569Y-81146893D01*
X172680520Y-81249376D01*
X172686688Y-81375347D01*
X172680518Y-81501710D01*
X172663563Y-81604500D01*
X172637761Y-81687507D01*
X172604439Y-81754045D01*
X172567826Y-81802428D01*
X172526179Y-81838920D01*
X172478956Y-81864911D01*
X172425049Y-81880907D01*
X172362883Y-81886486D01*
X172300719Y-81880908D01*
X172246804Y-81864913D01*
X172199568Y-81838922D01*
X172157903Y-81802430D01*
X172121266Y-81754045D01*
X172107088Y-81725713D01*
X172232946Y-81725713D01*
X172257931Y-81753266D01*
X172287260Y-81772692D01*
X172321785Y-81784647D01*
X172362883Y-81788850D01*
X172405616Y-81783012D01*
X172443078Y-81765830D01*
X172476741Y-81736373D01*
X172507170Y-81691946D01*
X172527414Y-81644187D01*
X172543945Y-81578629D01*
X172555294Y-81490729D01*
X172559560Y-81375347D01*
X172556123Y-81263994D01*
X172546987Y-81179218D01*
X172533731Y-81116144D01*
X172232946Y-81725713D01*
X172107088Y-81725713D01*
X172087971Y-81687511D01*
X172062187Y-81604505D01*
X172045245Y-81501714D01*
X172039078Y-81375347D01*
X172166878Y-81375347D01*
X172170203Y-81485687D01*
X172179065Y-81570311D01*
X172191974Y-81633817D01*
X172494225Y-81026385D01*
X172469197Y-80998550D01*
X172439646Y-80978899D01*
X172404687Y-80966783D01*
X172362883Y-80962515D01*
X172320514Y-80968320D01*
X172283273Y-80985424D01*
X172249709Y-81014787D01*
X172219269Y-81059113D01*
X172199036Y-81106697D01*
X172182504Y-81172114D01*
X172171149Y-81259938D01*
X172166878Y-81375347D01*
X172039078Y-81375347D01*
X172045243Y-81249372D01*
X172062181Y-81146888D01*
X172087964Y-81064113D01*
X172121266Y-80997747D01*
X172157887Y-80949491D01*
X172199542Y-80913084D01*
X172246778Y-80887146D01*
X172300701Y-80871180D01*
X172362883Y-80865612D01*
X172425066Y-80871181D01*
G37*
G36*
X157733653Y-83408583D02*
G01*
X158000732Y-82561366D01*
X158126334Y-82561366D01*
X157795385Y-83550000D01*
X157666181Y-83550000D01*
X157335170Y-82561366D01*
X157469443Y-82561366D01*
X157733653Y-83408583D01*
G37*
G36*
X158673409Y-82784797D02*
G01*
X158732907Y-82803651D01*
X158784224Y-82834236D01*
X158828715Y-82877294D01*
X158863183Y-82928543D01*
X158888813Y-82989535D01*
X158905141Y-83062136D01*
X158910964Y-83148647D01*
X158909865Y-83185284D01*
X158908094Y-83214715D01*
X158399764Y-83214715D01*
X158406920Y-83281026D01*
X158421527Y-83333344D01*
X158442394Y-83374331D01*
X158469068Y-83406079D01*
X158514760Y-83439507D01*
X158564854Y-83459260D01*
X158620926Y-83465980D01*
X158677206Y-83461506D01*
X158725706Y-83448761D01*
X158772076Y-83428048D01*
X158822670Y-83397775D01*
X158879396Y-83477459D01*
X158823558Y-83514316D01*
X158758740Y-83542794D01*
X158689686Y-83560585D01*
X158619460Y-83566486D01*
X158547207Y-83560598D01*
X158485253Y-83543849D01*
X158431760Y-83516966D01*
X158384682Y-83479904D01*
X158345571Y-83434204D01*
X158313974Y-83378785D01*
X158291972Y-83318407D01*
X158278230Y-83250267D01*
X158273429Y-83173072D01*
X158276680Y-83121414D01*
X158400497Y-83121414D01*
X158794644Y-83121414D01*
X158786796Y-83041905D01*
X158768454Y-82982512D01*
X158741521Y-82938660D01*
X158703898Y-82904695D01*
X158659181Y-82884377D01*
X158605111Y-82877294D01*
X158551644Y-82884045D01*
X158505326Y-82903714D01*
X158464366Y-82936889D01*
X158440797Y-82967957D01*
X158421881Y-83007738D01*
X158408108Y-83058120D01*
X158400497Y-83121414D01*
X158276680Y-83121414D01*
X158278194Y-83097364D01*
X158291902Y-83029788D01*
X158313974Y-82969190D01*
X158345352Y-82913240D01*
X158383554Y-82866932D01*
X158428890Y-82829178D01*
X158480518Y-82801191D01*
X158538298Y-82784104D01*
X158603707Y-82778192D01*
X158673409Y-82784797D01*
G37*
G36*
X159738642Y-82489619D02*
G01*
X159738642Y-83550000D01*
X159633129Y-83550000D01*
X159621650Y-83450226D01*
X159591010Y-83487871D01*
X159558628Y-83516960D01*
X159524319Y-83538520D01*
X159467632Y-83559471D01*
X159406960Y-83566486D01*
X159343047Y-83560565D01*
X159289642Y-83543829D01*
X159244661Y-83516966D01*
X159206522Y-83480519D01*
X159174945Y-83434959D01*
X159149895Y-83378785D01*
X159133269Y-83318909D01*
X159122756Y-83250727D01*
X159119059Y-83173072D01*
X159250462Y-83173072D01*
X159255800Y-83265789D01*
X159269993Y-83335240D01*
X159290875Y-83386288D01*
X159317184Y-83422947D01*
X159348724Y-83448153D01*
X159386408Y-83463466D01*
X159432117Y-83468850D01*
X159473433Y-83464673D01*
X159509669Y-83452584D01*
X159541905Y-83432641D01*
X159584172Y-83393511D01*
X159618047Y-83349720D01*
X159618047Y-82972060D01*
X159583518Y-82930817D01*
X159543370Y-82900619D01*
X159497629Y-82881577D01*
X159447138Y-82875157D01*
X159401411Y-82880020D01*
X159362792Y-82893911D01*
X159329751Y-82916629D01*
X159301386Y-82949101D01*
X159280967Y-82986416D01*
X159264993Y-83034500D01*
X159254371Y-83095780D01*
X159250462Y-83173072D01*
X159119059Y-83173072D01*
X159123198Y-83098070D01*
X159135108Y-83030806D01*
X159154230Y-82970289D01*
X159181914Y-82913643D01*
X159215756Y-82867166D01*
X159255835Y-82829544D01*
X159302420Y-82801330D01*
X159355135Y-82784148D01*
X159415570Y-82778192D01*
X159476747Y-82784034D01*
X159529903Y-82800839D01*
X159576643Y-82828312D01*
X159618047Y-82867219D01*
X159618047Y-82474537D01*
X159738642Y-82489619D01*
G37*
G36*
X161250712Y-82566674D02*
G01*
X161325491Y-82581504D01*
X161388039Y-82604607D01*
X161440282Y-82635310D01*
X161476263Y-82667219D01*
X161504324Y-82705076D01*
X161524956Y-82749736D01*
X161537992Y-82802511D01*
X161542620Y-82865081D01*
X161536529Y-82940771D01*
X161519696Y-83001541D01*
X161493466Y-83050340D01*
X161456954Y-83092183D01*
X161412253Y-83125808D01*
X161358155Y-83151578D01*
X161299894Y-83168656D01*
X161234179Y-83179390D01*
X161159952Y-83183147D01*
X161033618Y-83183147D01*
X161033618Y-83550000D01*
X160908688Y-83550000D01*
X160908688Y-83082641D01*
X161033618Y-83082641D01*
X161171432Y-83082641D01*
X161238074Y-83077742D01*
X161294225Y-83063956D01*
X161327742Y-83048222D01*
X161355610Y-83026479D01*
X161378550Y-82998255D01*
X161394558Y-82965442D01*
X161405155Y-82922413D01*
X161409080Y-82866486D01*
X161405302Y-82816506D01*
X161394928Y-82776756D01*
X161378916Y-82745219D01*
X161356388Y-82717954D01*
X161328976Y-82696418D01*
X161295996Y-82680251D01*
X161241010Y-82665625D01*
X161176500Y-82660467D01*
X161033618Y-82660467D01*
X161033618Y-83082641D01*
X160908688Y-83082641D01*
X160908688Y-82561366D01*
X161161418Y-82561366D01*
X161250712Y-82566674D01*
G37*
G36*
X162077390Y-82783031D02*
G01*
X162134808Y-82796373D01*
X162181058Y-82816959D01*
X162218135Y-82844260D01*
X162248772Y-82879500D01*
X162270769Y-82920145D01*
X162284418Y-82967255D01*
X162289209Y-83022313D01*
X162289209Y-83384891D01*
X162293588Y-83427088D01*
X162304291Y-83451631D01*
X162322757Y-83469100D01*
X162350942Y-83481795D01*
X162321510Y-83566486D01*
X162275147Y-83555271D01*
X162236025Y-83535284D01*
X162205083Y-83504984D01*
X162182964Y-83460240D01*
X162153349Y-83492403D01*
X162119391Y-83518753D01*
X162080626Y-83539619D01*
X162017030Y-83559622D01*
X161946048Y-83566486D01*
X161889721Y-83562071D01*
X161842114Y-83549605D01*
X161801685Y-83529778D01*
X161767262Y-83502616D01*
X161739119Y-83468740D01*
X161718881Y-83429909D01*
X161706327Y-83385159D01*
X161701927Y-83333173D01*
X161702076Y-83331769D01*
X161831132Y-83331769D01*
X161837598Y-83385598D01*
X161854966Y-83423923D01*
X161882287Y-83450865D01*
X161921482Y-83468130D01*
X161976884Y-83474590D01*
X162031301Y-83467568D01*
X162083496Y-83446257D01*
X162129676Y-83412639D01*
X162167882Y-83367611D01*
X162167882Y-83173072D01*
X162058766Y-83173072D01*
X161975982Y-83179040D01*
X161919595Y-83194328D01*
X161882484Y-83216181D01*
X161854107Y-83247921D01*
X161837081Y-83285805D01*
X161831132Y-83331769D01*
X161702076Y-83331769D01*
X161707932Y-83276712D01*
X161725070Y-83229124D01*
X161753077Y-83188501D01*
X161793091Y-83153715D01*
X161839233Y-83128324D01*
X161896877Y-83108754D01*
X161968401Y-83095921D01*
X162056568Y-83091250D01*
X162167882Y-83091250D01*
X162167882Y-83028053D01*
X162161819Y-82975807D01*
X162145558Y-82938485D01*
X162120132Y-82912159D01*
X162086584Y-82894121D01*
X162043291Y-82882349D01*
X161987691Y-82878026D01*
X161948897Y-82880090D01*
X161900069Y-82887002D01*
X161849112Y-82898532D01*
X161790954Y-82916739D01*
X161759324Y-82825575D01*
X161827782Y-82803122D01*
X161889628Y-82789000D01*
X161950412Y-82780811D01*
X162006315Y-82778192D01*
X162077390Y-82783031D01*
G37*
G36*
X163208784Y-83511959D02*
G01*
X163167094Y-83534393D01*
X163114689Y-83552137D01*
X163059489Y-83562961D01*
X163006306Y-83566486D01*
X162945277Y-83561958D01*
X162894761Y-83549307D01*
X162852881Y-83529451D01*
X162818178Y-83502616D01*
X162789483Y-83468657D01*
X162769064Y-83430538D01*
X162756528Y-83387432D01*
X162752172Y-83338180D01*
X162752172Y-82887308D01*
X162578454Y-82887308D01*
X162578454Y-82794007D01*
X162752172Y-82794007D01*
X162752172Y-82622426D01*
X162872766Y-82608077D01*
X162872766Y-82794007D01*
X163134106Y-82794007D01*
X163119757Y-82887308D01*
X162872766Y-82887308D01*
X162872766Y-83336775D01*
X162876920Y-83377599D01*
X162888301Y-83408945D01*
X162906167Y-83433007D01*
X162930687Y-83450073D01*
X162966356Y-83461581D01*
X163017114Y-83465980D01*
X163058443Y-83463397D01*
X163095333Y-83455966D01*
X163162133Y-83430076D01*
X163208784Y-83511959D01*
G37*
G36*
X163837680Y-82784797D02*
G01*
X163897178Y-82803651D01*
X163948494Y-82834236D01*
X163992986Y-82877294D01*
X164027454Y-82928543D01*
X164053084Y-82989535D01*
X164069412Y-83062136D01*
X164075235Y-83148647D01*
X164074136Y-83185284D01*
X164072365Y-83214715D01*
X163564035Y-83214715D01*
X163571191Y-83281026D01*
X163585798Y-83333344D01*
X163606664Y-83374331D01*
X163633339Y-83406079D01*
X163679031Y-83439507D01*
X163729124Y-83459260D01*
X163785197Y-83465980D01*
X163841476Y-83461506D01*
X163889977Y-83448761D01*
X163936347Y-83428048D01*
X163986941Y-83397775D01*
X164043667Y-83477459D01*
X163987829Y-83514316D01*
X163923011Y-83542794D01*
X163853956Y-83560585D01*
X163783731Y-83566486D01*
X163711477Y-83560598D01*
X163649523Y-83543849D01*
X163596031Y-83516966D01*
X163548953Y-83479904D01*
X163509842Y-83434204D01*
X163478244Y-83378785D01*
X163456243Y-83318407D01*
X163442501Y-83250267D01*
X163437700Y-83173072D01*
X163440951Y-83121414D01*
X163564767Y-83121414D01*
X163958914Y-83121414D01*
X163951067Y-83041905D01*
X163932725Y-82982512D01*
X163905792Y-82938660D01*
X163868169Y-82904695D01*
X163823452Y-82884377D01*
X163769382Y-82877294D01*
X163715915Y-82884045D01*
X163669597Y-82903714D01*
X163628637Y-82936889D01*
X163605068Y-82967957D01*
X163586151Y-83007738D01*
X163572378Y-83058120D01*
X163564767Y-83121414D01*
X163440951Y-83121414D01*
X163442464Y-83097364D01*
X163456172Y-83029788D01*
X163478244Y-82969190D01*
X163509623Y-82913240D01*
X163547825Y-82866932D01*
X163593161Y-82829178D01*
X163644789Y-82801191D01*
X163702569Y-82784104D01*
X163767978Y-82778192D01*
X163837680Y-82784797D01*
G37*
G36*
X164624354Y-82489619D02*
G01*
X164624354Y-83363337D01*
X164628715Y-83398884D01*
X164640497Y-83424452D01*
X164659159Y-83442655D01*
X164697532Y-83459728D01*
X164749284Y-83465980D01*
X164814253Y-83458836D01*
X164876352Y-83439419D01*
X164908653Y-83527773D01*
X164875722Y-83541435D01*
X164832205Y-83554640D01*
X164784954Y-83563372D01*
X164729195Y-83566486D01*
X164664290Y-83559846D01*
X164610770Y-83541104D01*
X164566224Y-83510860D01*
X164539374Y-83481049D01*
X164520048Y-83446184D01*
X164508007Y-83405260D01*
X164503759Y-83356864D01*
X164503759Y-82585057D01*
X164271851Y-82585057D01*
X164271851Y-82489619D01*
X164624354Y-82489619D01*
G37*
G36*
X157792966Y-84231181D02*
G01*
X157846882Y-84247148D01*
X157894105Y-84273086D01*
X157935741Y-84309493D01*
X157972339Y-84357747D01*
X158005668Y-84424117D01*
X158031469Y-84506893D01*
X158048419Y-84609376D01*
X158054588Y-84735347D01*
X158048417Y-84861710D01*
X158031463Y-84964500D01*
X158005660Y-85047507D01*
X157972339Y-85114045D01*
X157935725Y-85162428D01*
X157894079Y-85198920D01*
X157846856Y-85224911D01*
X157792948Y-85240907D01*
X157730783Y-85246486D01*
X157668618Y-85240908D01*
X157614704Y-85224913D01*
X157567467Y-85198922D01*
X157525803Y-85162430D01*
X157489166Y-85114045D01*
X157474988Y-85085713D01*
X157600846Y-85085713D01*
X157625831Y-85113266D01*
X157655160Y-85132692D01*
X157689684Y-85144647D01*
X157730783Y-85148850D01*
X157773515Y-85143012D01*
X157810977Y-85125830D01*
X157844640Y-85096373D01*
X157875069Y-85051946D01*
X157895313Y-85004187D01*
X157911845Y-84938629D01*
X157923194Y-84850729D01*
X157927459Y-84735347D01*
X157924022Y-84623994D01*
X157914887Y-84539218D01*
X157901631Y-84476144D01*
X157600846Y-85085713D01*
X157474988Y-85085713D01*
X157455870Y-85047511D01*
X157430087Y-84964505D01*
X157413144Y-84861714D01*
X157406978Y-84735347D01*
X157534778Y-84735347D01*
X157538102Y-84845687D01*
X157546965Y-84930311D01*
X157559874Y-84993817D01*
X157862124Y-84386385D01*
X157837096Y-84358550D01*
X157807546Y-84338899D01*
X157772587Y-84326783D01*
X157730783Y-84322515D01*
X157688414Y-84328320D01*
X157651172Y-84345424D01*
X157617609Y-84374787D01*
X157587168Y-84419113D01*
X157566935Y-84466697D01*
X157550404Y-84532114D01*
X157539048Y-84619938D01*
X157534778Y-84735347D01*
X157406978Y-84735347D01*
X157413142Y-84609372D01*
X157430081Y-84506888D01*
X157455863Y-84424113D01*
X157489166Y-84357747D01*
X157525787Y-84309491D01*
X157567442Y-84273084D01*
X157614677Y-84247146D01*
X157668601Y-84231180D01*
X157730783Y-84225612D01*
X157792966Y-84231181D01*
G37*
G36*
X158791774Y-84612554D02*
G01*
X158791774Y-84893311D01*
X158919574Y-84893311D01*
X158919574Y-84989481D01*
X158791774Y-84989481D01*
X158791774Y-85230000D01*
X158675453Y-85230000D01*
X158674781Y-84989481D01*
X158264087Y-84989481D01*
X158264087Y-84901920D01*
X158554125Y-84225612D01*
X158654631Y-84267927D01*
X158391887Y-84893311D01*
X158675453Y-84893311D01*
X158691268Y-84612554D01*
X158791774Y-84612554D01*
G37*
G36*
X159325139Y-85119419D02*
G01*
X159329198Y-85085951D01*
X159341042Y-85056641D01*
X159360982Y-85030453D01*
X159386843Y-85010140D01*
X159416377Y-84998004D01*
X159450741Y-84993817D01*
X159485601Y-84998017D01*
X159515473Y-85010167D01*
X159541538Y-85030453D01*
X159561733Y-85056671D01*
X159573709Y-85085980D01*
X159577808Y-85119419D01*
X159573698Y-85153356D01*
X159561710Y-85183047D01*
X159541538Y-85209544D01*
X159515451Y-85230012D01*
X159485580Y-85242256D01*
X159450741Y-85246486D01*
X159416398Y-85242269D01*
X159386865Y-85230040D01*
X159360982Y-85209544D01*
X159341065Y-85183077D01*
X159329208Y-85153385D01*
X159325139Y-85119419D01*
G37*
G36*
X160625183Y-85131631D02*
G01*
X160625183Y-85230000D01*
X160054448Y-85230000D01*
X160054448Y-85131631D01*
X160297836Y-85131631D01*
X160297836Y-84372035D01*
X160070935Y-84509911D01*
X160018545Y-84423754D01*
X160312918Y-84241366D01*
X160418431Y-84241366D01*
X160418431Y-85131631D01*
X160625183Y-85131631D01*
G37*
G36*
X161244390Y-84232133D02*
G01*
X161313642Y-84251807D01*
X161356729Y-84272714D01*
X161393963Y-84299878D01*
X161425994Y-84333628D01*
X161449895Y-84372875D01*
X161464834Y-84419966D01*
X161470141Y-84476877D01*
X161465062Y-84523557D01*
X161450273Y-84564782D01*
X161425628Y-84601807D01*
X161374198Y-84650402D01*
X161298560Y-84699443D01*
X161360483Y-84730237D01*
X161411452Y-84766040D01*
X161452861Y-84806788D01*
X161484764Y-84854163D01*
X161503807Y-84906404D01*
X161510319Y-84965057D01*
X161505583Y-85017422D01*
X161491705Y-85065215D01*
X161468675Y-85109405D01*
X161437588Y-85148439D01*
X161398688Y-85181861D01*
X161350950Y-85209911D01*
X161299012Y-85229683D01*
X161239399Y-85242114D01*
X161170760Y-85246486D01*
X161101138Y-85242028D01*
X161041574Y-85229436D01*
X160990509Y-85209544D01*
X160943773Y-85181320D01*
X160906088Y-85148020D01*
X160876386Y-85109405D01*
X160854556Y-85065827D01*
X160841379Y-85018746D01*
X160836939Y-84967927D01*
X160963948Y-84967927D01*
X160970114Y-85021712D01*
X160987470Y-85065090D01*
X161015666Y-85100429D01*
X161053091Y-85126026D01*
X161103247Y-85142682D01*
X161170027Y-85148850D01*
X161237036Y-85142353D01*
X161288625Y-85124580D01*
X161328297Y-85096826D01*
X161358841Y-85059176D01*
X161377001Y-85016310D01*
X161383251Y-84966523D01*
X161379114Y-84923191D01*
X161367633Y-84888624D01*
X161349485Y-84860949D01*
X161310693Y-84826378D01*
X161256184Y-84796346D01*
X161118309Y-84743956D01*
X161061103Y-84777605D01*
X161010598Y-84823274D01*
X160985652Y-84860163D01*
X160969736Y-84907401D01*
X160963948Y-84967927D01*
X160836939Y-84967927D01*
X160836880Y-84967255D01*
X160843165Y-84908474D01*
X160861266Y-84857834D01*
X160891102Y-84813565D01*
X160929956Y-84775279D01*
X160977533Y-84740556D01*
X161035022Y-84709457D01*
X160985069Y-84681472D01*
X160946268Y-84651306D01*
X160916931Y-84619026D01*
X160895405Y-84581730D01*
X160881913Y-84537098D01*
X160877244Y-84484754D01*
X160996310Y-84484754D01*
X160999561Y-84521737D01*
X161008519Y-84550994D01*
X161022505Y-84574146D01*
X161053239Y-84602969D01*
X161097487Y-84627269D01*
X161213075Y-84669279D01*
X161276041Y-84627907D01*
X161316451Y-84589595D01*
X161335071Y-84560530D01*
X161346767Y-84524953D01*
X161350950Y-84481151D01*
X161345449Y-84433398D01*
X161329917Y-84394611D01*
X161304605Y-84362754D01*
X161271204Y-84339263D01*
X161228445Y-84324334D01*
X161173630Y-84318913D01*
X161119267Y-84324311D01*
X161076573Y-84339221D01*
X161042960Y-84362754D01*
X161017642Y-84394714D01*
X161001931Y-84434600D01*
X160996310Y-84484754D01*
X160877244Y-84484754D01*
X160877119Y-84483349D01*
X160880407Y-84438581D01*
X160889762Y-84399920D01*
X160904719Y-84366357D01*
X160936666Y-84321736D01*
X160976526Y-84286306D01*
X161022645Y-84259178D01*
X161072697Y-84240327D01*
X161124609Y-84229199D01*
X161173630Y-84225612D01*
X161244390Y-84232133D01*
G37*
G36*
X161907274Y-85119419D02*
G01*
X161911333Y-85085951D01*
X161923178Y-85056641D01*
X161943117Y-85030453D01*
X161968979Y-85010140D01*
X161998512Y-84998004D01*
X162032876Y-84993817D01*
X162067737Y-84998017D01*
X162097609Y-85010167D01*
X162123674Y-85030453D01*
X162143868Y-85056671D01*
X162155844Y-85085980D01*
X162159944Y-85119419D01*
X162155834Y-85153356D01*
X162143845Y-85183047D01*
X162123674Y-85209544D01*
X162097587Y-85230012D01*
X162067716Y-85242256D01*
X162032876Y-85246486D01*
X161998533Y-85242269D01*
X161969001Y-85230040D01*
X161943117Y-85209544D01*
X161923201Y-85183077D01*
X161911343Y-85153385D01*
X161907274Y-85119419D01*
G37*
G36*
X162851273Y-84225612D02*
G01*
X162912598Y-84229945D01*
X162965490Y-84242256D01*
X163011313Y-84261882D01*
X163052824Y-84289299D01*
X163086681Y-84322058D01*
X163113651Y-84360556D01*
X163133209Y-84403431D01*
X163145108Y-84450068D01*
X163149188Y-84501301D01*
X163143285Y-84568586D01*
X163125497Y-84634474D01*
X163095912Y-84698880D01*
X163049720Y-84770884D01*
X162992326Y-84842924D01*
X162912944Y-84929214D01*
X162822827Y-85018407D01*
X162706193Y-85127356D01*
X163172147Y-85127356D01*
X163157065Y-85230000D01*
X162569112Y-85230000D01*
X162569112Y-85131631D01*
X162797723Y-84904790D01*
X162880216Y-84814163D01*
X162935232Y-84745055D01*
X162978123Y-84677923D01*
X163003070Y-84621896D01*
X163017335Y-84564958D01*
X163022121Y-84505575D01*
X163016472Y-84451909D01*
X163000691Y-84408914D01*
X162975409Y-84374234D01*
X162941479Y-84348186D01*
X162898999Y-84331944D01*
X162845472Y-84326118D01*
X162797128Y-84329248D01*
X162757696Y-84337903D01*
X162725610Y-84351275D01*
X162680844Y-84382290D01*
X162632248Y-84431631D01*
X162548961Y-84367028D01*
X162590796Y-84322171D01*
X162634152Y-84286970D01*
X162679265Y-84260416D01*
X162728082Y-84241673D01*
X162784933Y-84229810D01*
X162851273Y-84225612D01*
G37*
G36*
X163862095Y-84229393D02*
G01*
X163911898Y-84240327D01*
X163958724Y-84258381D01*
X164002023Y-84283009D01*
X163954640Y-84364891D01*
X163907255Y-84341730D01*
X163857497Y-84327911D01*
X163804553Y-84323248D01*
X163750706Y-84329972D01*
X163704261Y-84349513D01*
X163663387Y-84382388D01*
X163627233Y-84430959D01*
X163600988Y-84485085D01*
X163580439Y-84549961D01*
X163566334Y-84627418D01*
X163559760Y-84719532D01*
X163594102Y-84675349D01*
X163629580Y-84641874D01*
X163666372Y-84617622D01*
X163706891Y-84600196D01*
X163750566Y-84589611D01*
X163798080Y-84585992D01*
X163847977Y-84589864D01*
X163894422Y-84601254D01*
X163938093Y-84620125D01*
X163977439Y-84646386D01*
X164011302Y-84680407D01*
X164040064Y-84723135D01*
X164060381Y-84770585D01*
X164073421Y-84828039D01*
X164078105Y-84897585D01*
X164073087Y-84969327D01*
X164058827Y-85031269D01*
X164036095Y-85084980D01*
X164004355Y-85133792D01*
X163966903Y-85173443D01*
X163923377Y-85204904D01*
X163874810Y-85227929D01*
X163823054Y-85241780D01*
X163767245Y-85246486D01*
X163707281Y-85242341D01*
X163656191Y-85230632D01*
X163612533Y-85212094D01*
X163575148Y-85186952D01*
X163532678Y-85143227D01*
X163497939Y-85087836D01*
X163471100Y-85018607D01*
X163453998Y-84945407D01*
X163443049Y-84860614D01*
X163441642Y-84825106D01*
X163561165Y-84825106D01*
X163569953Y-84936599D01*
X163588247Y-85015888D01*
X163613189Y-85070631D01*
X163640654Y-85104571D01*
X163674399Y-85128592D01*
X163715657Y-85143529D01*
X163766512Y-85148850D01*
X163812384Y-85144331D01*
X163850164Y-85131602D01*
X163881533Y-85111160D01*
X163907562Y-85082477D01*
X163932505Y-85035861D01*
X163948712Y-84976298D01*
X163954640Y-84900455D01*
X163950803Y-84837857D01*
X163940611Y-84791095D01*
X163925585Y-84756765D01*
X163906524Y-84732110D01*
X163871873Y-84706451D01*
X163830182Y-84690671D01*
X163779457Y-84685094D01*
X163733304Y-84689505D01*
X163691489Y-84702413D01*
X163653061Y-84723867D01*
X163602852Y-84768130D01*
X163561165Y-84825106D01*
X163441642Y-84825106D01*
X163439166Y-84762641D01*
X163444415Y-84654006D01*
X163459256Y-84559868D01*
X163482580Y-84478342D01*
X163517207Y-84401571D01*
X163559238Y-84340097D01*
X163608548Y-84291680D01*
X163651477Y-84263015D01*
X163698295Y-84242501D01*
X163749741Y-84229940D01*
X163806751Y-84225612D01*
X163862095Y-84229393D01*
G37*
D10*
X161166667Y-68454819D02*
X161166667Y-67454819D01*
X161166667Y-67454819D02*
X161500000Y-68169104D01*
X161500000Y-68169104D02*
X161833333Y-67454819D01*
X161833333Y-67454819D02*
X161833333Y-68454819D01*
X162309524Y-68454819D02*
X162309524Y-67454819D01*
X162309524Y-67931009D02*
X162880952Y-67931009D01*
X162880952Y-68454819D02*
X162880952Y-67454819D01*
X163785714Y-67788152D02*
X163785714Y-68454819D01*
X163547619Y-67407200D02*
X163309524Y-68121485D01*
X163309524Y-68121485D02*
X163928571Y-68121485D01*
D11*
X182571428Y-60957419D02*
X182380952Y-60957419D01*
X182380952Y-60957419D02*
X182285714Y-61005038D01*
X182285714Y-61005038D02*
X182238095Y-61052657D01*
X182238095Y-61052657D02*
X182142857Y-61195514D01*
X182142857Y-61195514D02*
X182095238Y-61385990D01*
X182095238Y-61385990D02*
X182095238Y-61766942D01*
X182095238Y-61766942D02*
X182142857Y-61862180D01*
X182142857Y-61862180D02*
X182190476Y-61909800D01*
X182190476Y-61909800D02*
X182285714Y-61957419D01*
X182285714Y-61957419D02*
X182476190Y-61957419D01*
X182476190Y-61957419D02*
X182571428Y-61909800D01*
X182571428Y-61909800D02*
X182619047Y-61862180D01*
X182619047Y-61862180D02*
X182666666Y-61766942D01*
X182666666Y-61766942D02*
X182666666Y-61528847D01*
X182666666Y-61528847D02*
X182619047Y-61433609D01*
X182619047Y-61433609D02*
X182571428Y-61385990D01*
X182571428Y-61385990D02*
X182476190Y-61338371D01*
X182476190Y-61338371D02*
X182285714Y-61338371D01*
X182285714Y-61338371D02*
X182190476Y-61385990D01*
X182190476Y-61385990D02*
X182142857Y-61433609D01*
X182142857Y-61433609D02*
X182095238Y-61528847D01*
X183285714Y-60957419D02*
X183380952Y-60957419D01*
X183380952Y-60957419D02*
X183476190Y-61005038D01*
X183476190Y-61005038D02*
X183523809Y-61052657D01*
X183523809Y-61052657D02*
X183571428Y-61147895D01*
X183571428Y-61147895D02*
X183619047Y-61338371D01*
X183619047Y-61338371D02*
X183619047Y-61576466D01*
X183619047Y-61576466D02*
X183571428Y-61766942D01*
X183571428Y-61766942D02*
X183523809Y-61862180D01*
X183523809Y-61862180D02*
X183476190Y-61909800D01*
X183476190Y-61909800D02*
X183380952Y-61957419D01*
X183380952Y-61957419D02*
X183285714Y-61957419D01*
X183285714Y-61957419D02*
X183190476Y-61909800D01*
X183190476Y-61909800D02*
X183142857Y-61862180D01*
X183142857Y-61862180D02*
X183095238Y-61766942D01*
X183095238Y-61766942D02*
X183047619Y-61576466D01*
X183047619Y-61576466D02*
X183047619Y-61338371D01*
X183047619Y-61338371D02*
X183095238Y-61147895D01*
X183095238Y-61147895D02*
X183142857Y-61052657D01*
X183142857Y-61052657D02*
X183190476Y-61005038D01*
X183190476Y-61005038D02*
X183285714Y-60957419D01*
X184047619Y-61862180D02*
X184095238Y-61909800D01*
X184095238Y-61909800D02*
X184047619Y-61957419D01*
X184047619Y-61957419D02*
X184000000Y-61909800D01*
X184000000Y-61909800D02*
X184047619Y-61862180D01*
X184047619Y-61862180D02*
X184047619Y-61957419D01*
X184952380Y-60957419D02*
X184761904Y-60957419D01*
X184761904Y-60957419D02*
X184666666Y-61005038D01*
X184666666Y-61005038D02*
X184619047Y-61052657D01*
X184619047Y-61052657D02*
X184523809Y-61195514D01*
X184523809Y-61195514D02*
X184476190Y-61385990D01*
X184476190Y-61385990D02*
X184476190Y-61766942D01*
X184476190Y-61766942D02*
X184523809Y-61862180D01*
X184523809Y-61862180D02*
X184571428Y-61909800D01*
X184571428Y-61909800D02*
X184666666Y-61957419D01*
X184666666Y-61957419D02*
X184857142Y-61957419D01*
X184857142Y-61957419D02*
X184952380Y-61909800D01*
X184952380Y-61909800D02*
X184999999Y-61862180D01*
X184999999Y-61862180D02*
X185047618Y-61766942D01*
X185047618Y-61766942D02*
X185047618Y-61528847D01*
X185047618Y-61528847D02*
X184999999Y-61433609D01*
X184999999Y-61433609D02*
X184952380Y-61385990D01*
X184952380Y-61385990D02*
X184857142Y-61338371D01*
X184857142Y-61338371D02*
X184666666Y-61338371D01*
X184666666Y-61338371D02*
X184571428Y-61385990D01*
X184571428Y-61385990D02*
X184523809Y-61433609D01*
X184523809Y-61433609D02*
X184476190Y-61528847D01*
X185428571Y-61052657D02*
X185476190Y-61005038D01*
X185476190Y-61005038D02*
X185571428Y-60957419D01*
X185571428Y-60957419D02*
X185809523Y-60957419D01*
X185809523Y-60957419D02*
X185904761Y-61005038D01*
X185904761Y-61005038D02*
X185952380Y-61052657D01*
X185952380Y-61052657D02*
X185999999Y-61147895D01*
X185999999Y-61147895D02*
X185999999Y-61243133D01*
X185999999Y-61243133D02*
X185952380Y-61385990D01*
X185952380Y-61385990D02*
X185380952Y-61957419D01*
X185380952Y-61957419D02*
X185999999Y-61957419D01*
X186952380Y-61957419D02*
X186380952Y-61957419D01*
X186666666Y-61957419D02*
X186666666Y-60957419D01*
X186666666Y-60957419D02*
X186571428Y-61100276D01*
X186571428Y-61100276D02*
X186476190Y-61195514D01*
X186476190Y-61195514D02*
X186380952Y-61243133D01*
X187523809Y-61385990D02*
X187428571Y-61338371D01*
X187428571Y-61338371D02*
X187380952Y-61290752D01*
X187380952Y-61290752D02*
X187333333Y-61195514D01*
X187333333Y-61195514D02*
X187333333Y-61147895D01*
X187333333Y-61147895D02*
X187380952Y-61052657D01*
X187380952Y-61052657D02*
X187428571Y-61005038D01*
X187428571Y-61005038D02*
X187523809Y-60957419D01*
X187523809Y-60957419D02*
X187714285Y-60957419D01*
X187714285Y-60957419D02*
X187809523Y-61005038D01*
X187809523Y-61005038D02*
X187857142Y-61052657D01*
X187857142Y-61052657D02*
X187904761Y-61147895D01*
X187904761Y-61147895D02*
X187904761Y-61195514D01*
X187904761Y-61195514D02*
X187857142Y-61290752D01*
X187857142Y-61290752D02*
X187809523Y-61338371D01*
X187809523Y-61338371D02*
X187714285Y-61385990D01*
X187714285Y-61385990D02*
X187523809Y-61385990D01*
X187523809Y-61385990D02*
X187428571Y-61433609D01*
X187428571Y-61433609D02*
X187380952Y-61481228D01*
X187380952Y-61481228D02*
X187333333Y-61576466D01*
X187333333Y-61576466D02*
X187333333Y-61766942D01*
X187333333Y-61766942D02*
X187380952Y-61862180D01*
X187380952Y-61862180D02*
X187428571Y-61909800D01*
X187428571Y-61909800D02*
X187523809Y-61957419D01*
X187523809Y-61957419D02*
X187714285Y-61957419D01*
X187714285Y-61957419D02*
X187809523Y-61909800D01*
X187809523Y-61909800D02*
X187857142Y-61862180D01*
X187857142Y-61862180D02*
X187904761Y-61766942D01*
X187904761Y-61766942D02*
X187904761Y-61576466D01*
X187904761Y-61576466D02*
X187857142Y-61481228D01*
X187857142Y-61481228D02*
X187809523Y-61433609D01*
X187809523Y-61433609D02*
X187714285Y-61385990D01*
X154689110Y-67500000D02*
X154689110Y-62013580D01*
X215310890Y-62013580D02*
X215310890Y-67500000D01*
X154689110Y-62600000D02*
X215310890Y-62600000D01*
X154689110Y-62600000D02*
X155815614Y-62013579D01*
X154689110Y-62600000D02*
X155815614Y-63186421D01*
X215310890Y-62600000D02*
X214184386Y-63186421D01*
X215310890Y-62600000D02*
X214184386Y-62013579D01*
X221857419Y-86309523D02*
X221857419Y-85690476D01*
X221857419Y-85690476D02*
X222238371Y-86023809D01*
X222238371Y-86023809D02*
X222238371Y-85880952D01*
X222238371Y-85880952D02*
X222285990Y-85785714D01*
X222285990Y-85785714D02*
X222333609Y-85738095D01*
X222333609Y-85738095D02*
X222428847Y-85690476D01*
X222428847Y-85690476D02*
X222666942Y-85690476D01*
X222666942Y-85690476D02*
X222762180Y-85738095D01*
X222762180Y-85738095D02*
X222809800Y-85785714D01*
X222809800Y-85785714D02*
X222857419Y-85880952D01*
X222857419Y-85880952D02*
X222857419Y-86166666D01*
X222857419Y-86166666D02*
X222809800Y-86261904D01*
X222809800Y-86261904D02*
X222762180Y-86309523D01*
X221857419Y-84785714D02*
X221857419Y-85261904D01*
X221857419Y-85261904D02*
X222333609Y-85309523D01*
X222333609Y-85309523D02*
X222285990Y-85261904D01*
X222285990Y-85261904D02*
X222238371Y-85166666D01*
X222238371Y-85166666D02*
X222238371Y-84928571D01*
X222238371Y-84928571D02*
X222285990Y-84833333D01*
X222285990Y-84833333D02*
X222333609Y-84785714D01*
X222333609Y-84785714D02*
X222428847Y-84738095D01*
X222428847Y-84738095D02*
X222666942Y-84738095D01*
X222666942Y-84738095D02*
X222762180Y-84785714D01*
X222762180Y-84785714D02*
X222809800Y-84833333D01*
X222809800Y-84833333D02*
X222857419Y-84928571D01*
X222857419Y-84928571D02*
X222857419Y-85166666D01*
X222857419Y-85166666D02*
X222809800Y-85261904D01*
X222809800Y-85261904D02*
X222762180Y-85309523D01*
X215810890Y-103000000D02*
X224086420Y-103000000D01*
X224086420Y-68000000D02*
X215810890Y-68000000D01*
X223500000Y-103000000D02*
X223500000Y-68000000D01*
X223500000Y-103000000D02*
X222913579Y-101873496D01*
X223500000Y-103000000D02*
X224086421Y-101873496D01*
X223500000Y-68000000D02*
X224086421Y-69126504D01*
X223500000Y-68000000D02*
X222913579Y-69126504D01*
D10*
X206166667Y-103454819D02*
X206166667Y-102454819D01*
X206166667Y-102454819D02*
X206500000Y-103169104D01*
X206500000Y-103169104D02*
X206833333Y-102454819D01*
X206833333Y-102454819D02*
X206833333Y-103454819D01*
X207309524Y-103454819D02*
X207309524Y-102454819D01*
X207309524Y-102931009D02*
X207880952Y-102931009D01*
X207880952Y-103454819D02*
X207880952Y-102454819D01*
X208880952Y-103454819D02*
X208309524Y-103454819D01*
X208595238Y-103454819D02*
X208595238Y-102454819D01*
X208595238Y-102454819D02*
X208500000Y-102597676D01*
X208500000Y-102597676D02*
X208404762Y-102692914D01*
X208404762Y-102692914D02*
X208309524Y-102740533D01*
X136027618Y-56788276D02*
X136027618Y-56148276D01*
X136027618Y-56148276D02*
X136179999Y-56148276D01*
X136179999Y-56148276D02*
X136271428Y-56178752D01*
X136271428Y-56178752D02*
X136332380Y-56239704D01*
X136332380Y-56239704D02*
X136362857Y-56300657D01*
X136362857Y-56300657D02*
X136393333Y-56422561D01*
X136393333Y-56422561D02*
X136393333Y-56513990D01*
X136393333Y-56513990D02*
X136362857Y-56635895D01*
X136362857Y-56635895D02*
X136332380Y-56696847D01*
X136332380Y-56696847D02*
X136271428Y-56757800D01*
X136271428Y-56757800D02*
X136179999Y-56788276D01*
X136179999Y-56788276D02*
X136027618Y-56788276D01*
X136637142Y-56209228D02*
X136667618Y-56178752D01*
X136667618Y-56178752D02*
X136728571Y-56148276D01*
X136728571Y-56148276D02*
X136880952Y-56148276D01*
X136880952Y-56148276D02*
X136941904Y-56178752D01*
X136941904Y-56178752D02*
X136972380Y-56209228D01*
X136972380Y-56209228D02*
X137002857Y-56270180D01*
X137002857Y-56270180D02*
X137002857Y-56331133D01*
X137002857Y-56331133D02*
X136972380Y-56422561D01*
X136972380Y-56422561D02*
X136606666Y-56788276D01*
X136606666Y-56788276D02*
X137002857Y-56788276D01*
X141027618Y-107038276D02*
X141027618Y-106398276D01*
X141027618Y-106398276D02*
X141179999Y-106398276D01*
X141179999Y-106398276D02*
X141271428Y-106428752D01*
X141271428Y-106428752D02*
X141332380Y-106489704D01*
X141332380Y-106489704D02*
X141362857Y-106550657D01*
X141362857Y-106550657D02*
X141393333Y-106672561D01*
X141393333Y-106672561D02*
X141393333Y-106763990D01*
X141393333Y-106763990D02*
X141362857Y-106885895D01*
X141362857Y-106885895D02*
X141332380Y-106946847D01*
X141332380Y-106946847D02*
X141271428Y-107007800D01*
X141271428Y-107007800D02*
X141179999Y-107038276D01*
X141179999Y-107038276D02*
X141027618Y-107038276D01*
X141972380Y-106398276D02*
X141667618Y-106398276D01*
X141667618Y-106398276D02*
X141637142Y-106703038D01*
X141637142Y-106703038D02*
X141667618Y-106672561D01*
X141667618Y-106672561D02*
X141728571Y-106642085D01*
X141728571Y-106642085D02*
X141880952Y-106642085D01*
X141880952Y-106642085D02*
X141941904Y-106672561D01*
X141941904Y-106672561D02*
X141972380Y-106703038D01*
X141972380Y-106703038D02*
X142002857Y-106763990D01*
X142002857Y-106763990D02*
X142002857Y-106916371D01*
X142002857Y-106916371D02*
X141972380Y-106977323D01*
X141972380Y-106977323D02*
X141941904Y-107007800D01*
X141941904Y-107007800D02*
X141880952Y-107038276D01*
X141880952Y-107038276D02*
X141728571Y-107038276D01*
X141728571Y-107038276D02*
X141667618Y-107007800D01*
X141667618Y-107007800D02*
X141637142Y-106977323D01*
X141027618Y-91788276D02*
X141027618Y-91148276D01*
X141027618Y-91148276D02*
X141179999Y-91148276D01*
X141179999Y-91148276D02*
X141271428Y-91178752D01*
X141271428Y-91178752D02*
X141332380Y-91239704D01*
X141332380Y-91239704D02*
X141362857Y-91300657D01*
X141362857Y-91300657D02*
X141393333Y-91422561D01*
X141393333Y-91422561D02*
X141393333Y-91513990D01*
X141393333Y-91513990D02*
X141362857Y-91635895D01*
X141362857Y-91635895D02*
X141332380Y-91696847D01*
X141332380Y-91696847D02*
X141271428Y-91757800D01*
X141271428Y-91757800D02*
X141179999Y-91788276D01*
X141179999Y-91788276D02*
X141027618Y-91788276D01*
X141941904Y-91361609D02*
X141941904Y-91788276D01*
X141789523Y-91117800D02*
X141637142Y-91574942D01*
X141637142Y-91574942D02*
X142033333Y-91574942D01*
X233527618Y-56788276D02*
X233527618Y-56148276D01*
X233527618Y-56148276D02*
X233679999Y-56148276D01*
X233679999Y-56148276D02*
X233771428Y-56178752D01*
X233771428Y-56178752D02*
X233832380Y-56239704D01*
X233832380Y-56239704D02*
X233862857Y-56300657D01*
X233862857Y-56300657D02*
X233893333Y-56422561D01*
X233893333Y-56422561D02*
X233893333Y-56513990D01*
X233893333Y-56513990D02*
X233862857Y-56635895D01*
X233862857Y-56635895D02*
X233832380Y-56696847D01*
X233832380Y-56696847D02*
X233771428Y-56757800D01*
X233771428Y-56757800D02*
X233679999Y-56788276D01*
X233679999Y-56788276D02*
X233527618Y-56788276D01*
X234106666Y-56148276D02*
X234533333Y-56148276D01*
X234533333Y-56148276D02*
X234259047Y-56788276D01*
X238527618Y-38788276D02*
X238527618Y-38148276D01*
X238527618Y-38148276D02*
X238679999Y-38148276D01*
X238679999Y-38148276D02*
X238771428Y-38178752D01*
X238771428Y-38178752D02*
X238832380Y-38239704D01*
X238832380Y-38239704D02*
X238862857Y-38300657D01*
X238862857Y-38300657D02*
X238893333Y-38422561D01*
X238893333Y-38422561D02*
X238893333Y-38513990D01*
X238893333Y-38513990D02*
X238862857Y-38635895D01*
X238862857Y-38635895D02*
X238832380Y-38696847D01*
X238832380Y-38696847D02*
X238771428Y-38757800D01*
X238771428Y-38757800D02*
X238679999Y-38788276D01*
X238679999Y-38788276D02*
X238527618Y-38788276D01*
X239441904Y-38148276D02*
X239319999Y-38148276D01*
X239319999Y-38148276D02*
X239259047Y-38178752D01*
X239259047Y-38178752D02*
X239228571Y-38209228D01*
X239228571Y-38209228D02*
X239167618Y-38300657D01*
X239167618Y-38300657D02*
X239137142Y-38422561D01*
X239137142Y-38422561D02*
X239137142Y-38666371D01*
X239137142Y-38666371D02*
X239167618Y-38727323D01*
X239167618Y-38727323D02*
X239198095Y-38757800D01*
X239198095Y-38757800D02*
X239259047Y-38788276D01*
X239259047Y-38788276D02*
X239380952Y-38788276D01*
X239380952Y-38788276D02*
X239441904Y-38757800D01*
X239441904Y-38757800D02*
X239472380Y-38727323D01*
X239472380Y-38727323D02*
X239502857Y-38666371D01*
X239502857Y-38666371D02*
X239502857Y-38513990D01*
X239502857Y-38513990D02*
X239472380Y-38453038D01*
X239472380Y-38453038D02*
X239441904Y-38422561D01*
X239441904Y-38422561D02*
X239380952Y-38392085D01*
X239380952Y-38392085D02*
X239259047Y-38392085D01*
X239259047Y-38392085D02*
X239198095Y-38422561D01*
X239198095Y-38422561D02*
X239167618Y-38453038D01*
X239167618Y-38453038D02*
X239137142Y-38513990D01*
X131527618Y-75788276D02*
X131527618Y-75148276D01*
X131527618Y-75148276D02*
X131679999Y-75148276D01*
X131679999Y-75148276D02*
X131771428Y-75178752D01*
X131771428Y-75178752D02*
X131832380Y-75239704D01*
X131832380Y-75239704D02*
X131862857Y-75300657D01*
X131862857Y-75300657D02*
X131893333Y-75422561D01*
X131893333Y-75422561D02*
X131893333Y-75513990D01*
X131893333Y-75513990D02*
X131862857Y-75635895D01*
X131862857Y-75635895D02*
X131832380Y-75696847D01*
X131832380Y-75696847D02*
X131771428Y-75757800D01*
X131771428Y-75757800D02*
X131679999Y-75788276D01*
X131679999Y-75788276D02*
X131527618Y-75788276D01*
X132106666Y-75148276D02*
X132502857Y-75148276D01*
X132502857Y-75148276D02*
X132289523Y-75392085D01*
X132289523Y-75392085D02*
X132380952Y-75392085D01*
X132380952Y-75392085D02*
X132441904Y-75422561D01*
X132441904Y-75422561D02*
X132472380Y-75453038D01*
X132472380Y-75453038D02*
X132502857Y-75513990D01*
X132502857Y-75513990D02*
X132502857Y-75666371D01*
X132502857Y-75666371D02*
X132472380Y-75727323D01*
X132472380Y-75727323D02*
X132441904Y-75757800D01*
X132441904Y-75757800D02*
X132380952Y-75788276D01*
X132380952Y-75788276D02*
X132198095Y-75788276D01*
X132198095Y-75788276D02*
X132137142Y-75757800D01*
X132137142Y-75757800D02*
X132106666Y-75727323D01*
X228027618Y-91788276D02*
X228027618Y-91148276D01*
X228027618Y-91148276D02*
X228179999Y-91148276D01*
X228179999Y-91148276D02*
X228271428Y-91178752D01*
X228271428Y-91178752D02*
X228332380Y-91239704D01*
X228332380Y-91239704D02*
X228362857Y-91300657D01*
X228362857Y-91300657D02*
X228393333Y-91422561D01*
X228393333Y-91422561D02*
X228393333Y-91513990D01*
X228393333Y-91513990D02*
X228362857Y-91635895D01*
X228362857Y-91635895D02*
X228332380Y-91696847D01*
X228332380Y-91696847D02*
X228271428Y-91757800D01*
X228271428Y-91757800D02*
X228179999Y-91788276D01*
X228179999Y-91788276D02*
X228027618Y-91788276D01*
X228698095Y-91788276D02*
X228819999Y-91788276D01*
X228819999Y-91788276D02*
X228880952Y-91757800D01*
X228880952Y-91757800D02*
X228911428Y-91727323D01*
X228911428Y-91727323D02*
X228972380Y-91635895D01*
X228972380Y-91635895D02*
X229002857Y-91513990D01*
X229002857Y-91513990D02*
X229002857Y-91270180D01*
X229002857Y-91270180D02*
X228972380Y-91209228D01*
X228972380Y-91209228D02*
X228941904Y-91178752D01*
X228941904Y-91178752D02*
X228880952Y-91148276D01*
X228880952Y-91148276D02*
X228759047Y-91148276D01*
X228759047Y-91148276D02*
X228698095Y-91178752D01*
X228698095Y-91178752D02*
X228667618Y-91209228D01*
X228667618Y-91209228D02*
X228637142Y-91270180D01*
X228637142Y-91270180D02*
X228637142Y-91422561D01*
X228637142Y-91422561D02*
X228667618Y-91483514D01*
X228667618Y-91483514D02*
X228698095Y-91513990D01*
X228698095Y-91513990D02*
X228759047Y-91544466D01*
X228759047Y-91544466D02*
X228880952Y-91544466D01*
X228880952Y-91544466D02*
X228941904Y-91513990D01*
X228941904Y-91513990D02*
X228972380Y-91483514D01*
X228972380Y-91483514D02*
X229002857Y-91422561D01*
X238027618Y-75788276D02*
X238027618Y-75148276D01*
X238027618Y-75148276D02*
X238179999Y-75148276D01*
X238179999Y-75148276D02*
X238271428Y-75178752D01*
X238271428Y-75178752D02*
X238332380Y-75239704D01*
X238332380Y-75239704D02*
X238362857Y-75300657D01*
X238362857Y-75300657D02*
X238393333Y-75422561D01*
X238393333Y-75422561D02*
X238393333Y-75513990D01*
X238393333Y-75513990D02*
X238362857Y-75635895D01*
X238362857Y-75635895D02*
X238332380Y-75696847D01*
X238332380Y-75696847D02*
X238271428Y-75757800D01*
X238271428Y-75757800D02*
X238179999Y-75788276D01*
X238179999Y-75788276D02*
X238027618Y-75788276D01*
X238759047Y-75422561D02*
X238698095Y-75392085D01*
X238698095Y-75392085D02*
X238667618Y-75361609D01*
X238667618Y-75361609D02*
X238637142Y-75300657D01*
X238637142Y-75300657D02*
X238637142Y-75270180D01*
X238637142Y-75270180D02*
X238667618Y-75209228D01*
X238667618Y-75209228D02*
X238698095Y-75178752D01*
X238698095Y-75178752D02*
X238759047Y-75148276D01*
X238759047Y-75148276D02*
X238880952Y-75148276D01*
X238880952Y-75148276D02*
X238941904Y-75178752D01*
X238941904Y-75178752D02*
X238972380Y-75209228D01*
X238972380Y-75209228D02*
X239002857Y-75270180D01*
X239002857Y-75270180D02*
X239002857Y-75300657D01*
X239002857Y-75300657D02*
X238972380Y-75361609D01*
X238972380Y-75361609D02*
X238941904Y-75392085D01*
X238941904Y-75392085D02*
X238880952Y-75422561D01*
X238880952Y-75422561D02*
X238759047Y-75422561D01*
X238759047Y-75422561D02*
X238698095Y-75453038D01*
X238698095Y-75453038D02*
X238667618Y-75483514D01*
X238667618Y-75483514D02*
X238637142Y-75544466D01*
X238637142Y-75544466D02*
X238637142Y-75666371D01*
X238637142Y-75666371D02*
X238667618Y-75727323D01*
X238667618Y-75727323D02*
X238698095Y-75757800D01*
X238698095Y-75757800D02*
X238759047Y-75788276D01*
X238759047Y-75788276D02*
X238880952Y-75788276D01*
X238880952Y-75788276D02*
X238941904Y-75757800D01*
X238941904Y-75757800D02*
X238972380Y-75727323D01*
X238972380Y-75727323D02*
X239002857Y-75666371D01*
X239002857Y-75666371D02*
X239002857Y-75544466D01*
X239002857Y-75544466D02*
X238972380Y-75483514D01*
X238972380Y-75483514D02*
X238941904Y-75453038D01*
X238941904Y-75453038D02*
X238880952Y-75422561D01*
X227722856Y-107255776D02*
X227722856Y-106615776D01*
X227722856Y-106615776D02*
X227875237Y-106615776D01*
X227875237Y-106615776D02*
X227966666Y-106646252D01*
X227966666Y-106646252D02*
X228027618Y-106707204D01*
X228027618Y-106707204D02*
X228058095Y-106768157D01*
X228058095Y-106768157D02*
X228088571Y-106890061D01*
X228088571Y-106890061D02*
X228088571Y-106981490D01*
X228088571Y-106981490D02*
X228058095Y-107103395D01*
X228058095Y-107103395D02*
X228027618Y-107164347D01*
X228027618Y-107164347D02*
X227966666Y-107225300D01*
X227966666Y-107225300D02*
X227875237Y-107255776D01*
X227875237Y-107255776D02*
X227722856Y-107255776D01*
X228698095Y-107255776D02*
X228332380Y-107255776D01*
X228515237Y-107255776D02*
X228515237Y-106615776D01*
X228515237Y-106615776D02*
X228454285Y-106707204D01*
X228454285Y-106707204D02*
X228393333Y-106768157D01*
X228393333Y-106768157D02*
X228332380Y-106798633D01*
X229094285Y-106615776D02*
X229155238Y-106615776D01*
X229155238Y-106615776D02*
X229216190Y-106646252D01*
X229216190Y-106646252D02*
X229246666Y-106676728D01*
X229246666Y-106676728D02*
X229277142Y-106737680D01*
X229277142Y-106737680D02*
X229307619Y-106859585D01*
X229307619Y-106859585D02*
X229307619Y-107011966D01*
X229307619Y-107011966D02*
X229277142Y-107133871D01*
X229277142Y-107133871D02*
X229246666Y-107194823D01*
X229246666Y-107194823D02*
X229216190Y-107225300D01*
X229216190Y-107225300D02*
X229155238Y-107255776D01*
X229155238Y-107255776D02*
X229094285Y-107255776D01*
X229094285Y-107255776D02*
X229033333Y-107225300D01*
X229033333Y-107225300D02*
X229002857Y-107194823D01*
X229002857Y-107194823D02*
X228972380Y-107133871D01*
X228972380Y-107133871D02*
X228941904Y-107011966D01*
X228941904Y-107011966D02*
X228941904Y-106859585D01*
X228941904Y-106859585D02*
X228972380Y-106737680D01*
X228972380Y-106737680D02*
X229002857Y-106676728D01*
X229002857Y-106676728D02*
X229033333Y-106646252D01*
X229033333Y-106646252D02*
X229094285Y-106615776D01*
X131027618Y-38788276D02*
X131027618Y-38148276D01*
X131027618Y-38148276D02*
X131179999Y-38148276D01*
X131179999Y-38148276D02*
X131271428Y-38178752D01*
X131271428Y-38178752D02*
X131332380Y-38239704D01*
X131332380Y-38239704D02*
X131362857Y-38300657D01*
X131362857Y-38300657D02*
X131393333Y-38422561D01*
X131393333Y-38422561D02*
X131393333Y-38513990D01*
X131393333Y-38513990D02*
X131362857Y-38635895D01*
X131362857Y-38635895D02*
X131332380Y-38696847D01*
X131332380Y-38696847D02*
X131271428Y-38757800D01*
X131271428Y-38757800D02*
X131179999Y-38788276D01*
X131179999Y-38788276D02*
X131027618Y-38788276D01*
X132002857Y-38788276D02*
X131637142Y-38788276D01*
X131819999Y-38788276D02*
X131819999Y-38148276D01*
X131819999Y-38148276D02*
X131759047Y-38239704D01*
X131759047Y-38239704D02*
X131698095Y-38300657D01*
X131698095Y-38300657D02*
X131637142Y-38331133D01*
%TO.C,S4*%
D12*
X124000000Y-89500000D02*
X136000000Y-89500000D01*
X124000000Y-91500000D02*
X124000000Y-89500000D01*
X124000000Y-99500000D02*
X124000000Y-101500000D01*
X124000000Y-101500000D02*
X136000000Y-101500000D01*
X136000000Y-89500000D02*
X136000000Y-91500000D01*
X136000000Y-101500000D02*
X136000000Y-99500000D01*
D13*
X122300000Y-92900000D02*
G75*
G02*
X122100000Y-92900000I-100000J0D01*
G01*
X122100000Y-92900000D02*
G75*
G02*
X122300000Y-92900000I100000J0D01*
G01*
%TO.C,D2*%
D12*
X135650000Y-61100000D02*
X135650000Y-58400000D01*
X137350000Y-61100000D02*
X137350000Y-58400000D01*
D13*
X136600000Y-62550000D02*
G75*
G02*
X136400000Y-62550000I-100000J0D01*
G01*
X136400000Y-62550000D02*
G75*
G02*
X136600000Y-62550000I100000J0D01*
G01*
%TO.C,D5*%
D12*
X140650000Y-102150000D02*
X140650000Y-104850000D01*
X142350000Y-102150000D02*
X142350000Y-104850000D01*
D13*
X141600000Y-100700000D02*
G75*
G02*
X141400000Y-100700000I-100000J0D01*
G01*
X141400000Y-100700000D02*
G75*
G02*
X141600000Y-100700000I100000J0D01*
G01*
%TO.C,D4*%
D12*
X140650000Y-96100000D02*
X140650000Y-93400000D01*
X142350000Y-96100000D02*
X142350000Y-93400000D01*
D13*
X141600000Y-97550000D02*
G75*
G02*
X141400000Y-97550000I-100000J0D01*
G01*
X141400000Y-97550000D02*
G75*
G02*
X141600000Y-97550000I100000J0D01*
G01*
%TO.C,S3*%
D12*
X114000000Y-73500000D02*
X126000000Y-73500000D01*
X114000000Y-75500000D02*
X114000000Y-73500000D01*
X114000000Y-83500000D02*
X114000000Y-85500000D01*
X114000000Y-85500000D02*
X126000000Y-85500000D01*
X126000000Y-73500000D02*
X126000000Y-75500000D01*
X126000000Y-85500000D02*
X126000000Y-83500000D01*
D13*
X112300000Y-76900000D02*
G75*
G02*
X112100000Y-76900000I-100000J0D01*
G01*
X112100000Y-76900000D02*
G75*
G02*
X112300000Y-76900000I100000J0D01*
G01*
%TO.C,S2*%
D12*
X119000000Y-54500000D02*
X131000000Y-54500000D01*
X119000000Y-56500000D02*
X119000000Y-54500000D01*
X119000000Y-64500000D02*
X119000000Y-66500000D01*
X119000000Y-66500000D02*
X131000000Y-66500000D01*
X131000000Y-54500000D02*
X131000000Y-56500000D01*
X131000000Y-66500000D02*
X131000000Y-64500000D01*
D13*
X117300000Y-57900000D02*
G75*
G02*
X117100000Y-57900000I-100000J0D01*
G01*
X117100000Y-57900000D02*
G75*
G02*
X117300000Y-57900000I100000J0D01*
G01*
%TO.C,D7*%
D12*
X233150000Y-61100000D02*
X233150000Y-58400000D01*
X234850000Y-61100000D02*
X234850000Y-58400000D01*
D13*
X234100000Y-62550000D02*
G75*
G02*
X233900000Y-62550000I-100000J0D01*
G01*
X233900000Y-62550000D02*
G75*
G02*
X234100000Y-62550000I100000J0D01*
G01*
%TO.C,D6*%
D12*
X238150000Y-42920000D02*
X238150000Y-40220000D01*
X239850000Y-42920000D02*
X239850000Y-40220000D01*
D13*
X239100000Y-44370000D02*
G75*
G02*
X238900000Y-44370000I-100000J0D01*
G01*
X238900000Y-44370000D02*
G75*
G02*
X239100000Y-44370000I100000J0D01*
G01*
%TO.C,D3*%
D12*
X131150000Y-80100000D02*
X131150000Y-77400000D01*
X132850000Y-80100000D02*
X132850000Y-77400000D01*
D13*
X132100000Y-81550000D02*
G75*
G02*
X131900000Y-81550000I-100000J0D01*
G01*
X131900000Y-81550000D02*
G75*
G02*
X132100000Y-81550000I100000J0D01*
G01*
%TO.C,S7*%
D12*
X239000000Y-54500000D02*
X251000000Y-54500000D01*
X239000000Y-56500000D02*
X239000000Y-54500000D01*
X239000000Y-64500000D02*
X239000000Y-66500000D01*
X239000000Y-66500000D02*
X251000000Y-66500000D01*
X251000000Y-54500000D02*
X251000000Y-56500000D01*
X251000000Y-66500000D02*
X251000000Y-64500000D01*
D13*
X237300000Y-57900000D02*
G75*
G02*
X237100000Y-57900000I-100000J0D01*
G01*
X237100000Y-57900000D02*
G75*
G02*
X237300000Y-57900000I100000J0D01*
G01*
%TO.C,S9*%
D12*
X234000000Y-89500000D02*
X246000000Y-89500000D01*
X234000000Y-91500000D02*
X234000000Y-89500000D01*
X234000000Y-99500000D02*
X234000000Y-101500000D01*
X234000000Y-101500000D02*
X246000000Y-101500000D01*
X246000000Y-89500000D02*
X246000000Y-91500000D01*
X246000000Y-101500000D02*
X246000000Y-99500000D01*
D13*
X232300000Y-92900000D02*
G75*
G02*
X232100000Y-92900000I-100000J0D01*
G01*
X232100000Y-92900000D02*
G75*
G02*
X232300000Y-92900000I100000J0D01*
G01*
%TO.C,D9*%
D12*
X227650000Y-95920000D02*
X227650000Y-93220000D01*
X229350000Y-95920000D02*
X229350000Y-93220000D01*
D13*
X228600000Y-97370000D02*
G75*
G02*
X228400000Y-97370000I-100000J0D01*
G01*
X228400000Y-97370000D02*
G75*
G02*
X228600000Y-97370000I100000J0D01*
G01*
%TO.C,D8*%
D12*
X237650000Y-79920000D02*
X237650000Y-77220000D01*
X239350000Y-79920000D02*
X239350000Y-77220000D01*
D13*
X238600000Y-81370000D02*
G75*
G02*
X238400000Y-81370000I-100000J0D01*
G01*
X238400000Y-81370000D02*
G75*
G02*
X238600000Y-81370000I100000J0D01*
G01*
%TO.C,S10*%
D12*
X234000000Y-107000000D02*
X246000000Y-107000000D01*
X234000000Y-109000000D02*
X234000000Y-107000000D01*
X234000000Y-117000000D02*
X234000000Y-119000000D01*
X234000000Y-119000000D02*
X246000000Y-119000000D01*
X246000000Y-107000000D02*
X246000000Y-109000000D01*
X246000000Y-119000000D02*
X246000000Y-117000000D01*
D13*
X232300000Y-110400000D02*
G75*
G02*
X232100000Y-110400000I-100000J0D01*
G01*
X232100000Y-110400000D02*
G75*
G02*
X232300000Y-110400000I100000J0D01*
G01*
%TO.C,S5*%
D12*
X124000000Y-107000000D02*
X136000000Y-107000000D01*
X124000000Y-109000000D02*
X124000000Y-107000000D01*
X124000000Y-117000000D02*
X124000000Y-119000000D01*
X124000000Y-119000000D02*
X136000000Y-119000000D01*
X136000000Y-107000000D02*
X136000000Y-109000000D01*
X136000000Y-119000000D02*
X136000000Y-117000000D01*
D13*
X122300000Y-110400000D02*
G75*
G02*
X122100000Y-110400000I-100000J0D01*
G01*
X122100000Y-110400000D02*
G75*
G02*
X122300000Y-110400000I100000J0D01*
G01*
%TO.C,S6*%
D12*
X244000000Y-36500000D02*
X256000000Y-36500000D01*
X244000000Y-38500000D02*
X244000000Y-36500000D01*
X244000000Y-46500000D02*
X244000000Y-48500000D01*
X244000000Y-48500000D02*
X256000000Y-48500000D01*
X256000000Y-36500000D02*
X256000000Y-38500000D01*
X256000000Y-48500000D02*
X256000000Y-46500000D01*
D13*
X242300000Y-39900000D02*
G75*
G02*
X242100000Y-39900000I-100000J0D01*
G01*
X242100000Y-39900000D02*
G75*
G02*
X242300000Y-39900000I100000J0D01*
G01*
%TO.C,U1*%
D12*
X176110000Y-75022500D02*
X193890000Y-75022500D01*
X176110000Y-95977500D02*
X176110000Y-75022500D01*
X193890000Y-75022500D02*
X193890000Y-95977500D01*
X193890000Y-95977500D02*
X176110000Y-95977500D01*
D13*
X175600000Y-77816500D02*
G75*
G02*
X175400000Y-77816500I-100000J0D01*
G01*
X175400000Y-77816500D02*
G75*
G02*
X175600000Y-77816500I100000J0D01*
G01*
%TO.C,S8*%
D12*
X244000000Y-73500000D02*
X256000000Y-73500000D01*
X244000000Y-75500000D02*
X244000000Y-73500000D01*
X244000000Y-83500000D02*
X244000000Y-85500000D01*
X244000000Y-85500000D02*
X256000000Y-85500000D01*
X256000000Y-73500000D02*
X256000000Y-75500000D01*
X256000000Y-85500000D02*
X256000000Y-83500000D01*
D13*
X242300000Y-76900000D02*
G75*
G02*
X242100000Y-76900000I-100000J0D01*
G01*
X242100000Y-76900000D02*
G75*
G02*
X242300000Y-76900000I100000J0D01*
G01*
%TO.C,D10*%
D12*
X227650000Y-102367500D02*
X227650000Y-105067500D01*
X229350000Y-102367500D02*
X229350000Y-105067500D01*
D13*
X228600000Y-100917500D02*
G75*
G02*
X228400000Y-100917500I-100000J0D01*
G01*
X228400000Y-100917500D02*
G75*
G02*
X228600000Y-100917500I100000J0D01*
G01*
%TO.C,S1*%
D12*
X114000000Y-36500000D02*
X126000000Y-36500000D01*
X114000000Y-38500000D02*
X114000000Y-36500000D01*
X114000000Y-46500000D02*
X114000000Y-48500000D01*
X114000000Y-48500000D02*
X126000000Y-48500000D01*
X126000000Y-36500000D02*
X126000000Y-38500000D01*
X126000000Y-48500000D02*
X126000000Y-46500000D01*
D13*
X112300000Y-39900000D02*
G75*
G02*
X112100000Y-39900000I-100000J0D01*
G01*
X112100000Y-39900000D02*
G75*
G02*
X112300000Y-39900000I100000J0D01*
G01*
%TO.C,D1*%
D12*
X130650000Y-43100000D02*
X130650000Y-40400000D01*
X132350000Y-43100000D02*
X132350000Y-40400000D01*
D13*
X131600000Y-44550000D02*
G75*
G02*
X131400000Y-44550000I-100000J0D01*
G01*
X131400000Y-44550000D02*
G75*
G02*
X131600000Y-44550000I100000J0D01*
G01*
%TD*%
M02*
